<svg id="Layer_1" data-name="Layer 1" xmlns="http://www.w3.org/2000/svg" viewBox="0 0 917.46 1054.06">
  <defs>
    <style>
      .cls-1 {
        fill:none;
        stroke:#1b4062;
        stroke-miterlimit:10;
        stroke-width:6px;
      }
      .cls-2 {
        font-size:66px;
        font-family:Avenir-Black, Avenir;
        font-weight:800;
        fill:#1b4062;
      }
      polygon {
        fill:#1b4062;
      }
    </style>
  </defs>
  <title>spanbergies-seal</title>
  <circle class="cls-1" cx="459.42" cy="527.85" r="397"/>
  <circle class="cls-1" cx="459.42" cy="527.85" r="325"/>
  <text class="cls-2" transform="translate(123.38 514.25) rotate(-82.97)">O</text>
  <text class="cls-2" transform="translate(130.74 461.13) rotate(-76.34)">f</text>
  <text class="cls-2" transform="translate(135.83 438.29) rotate(-70.86)">fi</text>
  <text class="cls-2" transform="translate(149.28 400.15) rotate(-64.85)">c</text>
  <text class="cls-2" transform="translate(162.67 372.17) rotate(-60.89)">i</text>
  <text class="cls-2" transform="translate(170.29 357.71) rotate(-56.6)">a</text>
  <text class="cls-2" transform="matrix(0.61, -0.79, 0.79, 0.61, 189.61, 328.98)">l</text>
  <text class="cls-2" transform="translate(199.7 315.86) rotate(-49.21)"> </text>
  <text class="cls-2" transform="matrix(0.7, -0.72, 0.72, 0.7, 212.04, 301.53)"> </text>
  <text class="cls-2" transform="matrix(0.74, -0.68, 0.68, 0.74, 225.16, 287.94)"> </text>
  <text class="cls-2" transform="translate(238.57 275) rotate(-37.87)">S</text>
  <text class="cls-2" transform="translate(267.38 252.36) rotate(-31.23)">p</text>
  <text class="cls-2" transform="translate(301.94 231.54) rotate(-24.84)">a</text>
  <text class="cls-2" transform="translate(333.05 217.01) rotate(-18.85)">n</text>
  <text class="cls-2" transform="matrix(0.98, -0.21, 0.21, 0.98, 367.69, 204.99)">b</text>
  <text class="cls-2" transform="translate(407.09 196.35) rotate(-5.85)">e</text>
  <text class="cls-2" transform="translate(443.76 192.8) rotate(-0.45)">r</text>
  <text class="cls-2" transform="translate(468.4 192.14) rotate(5.08)">g</text>
  <text class="cls-2" transform="translate(508.82 196.23) rotate(10.01)">i</text>
  <text class="cls-2" transform="translate(524.94 198.61) rotate(14.6)">e</text>
  <text class="cls-2" transform="translate(560.5 208.01) rotate(20.27)">s</text>
  <text class="cls-2" transform="translate(588.36 218.48) rotate(24.37)"> </text>
  <text class="cls-2" transform="matrix(0.88, 0.47, -0.47, 0.88, 605.68, 226.23)"> </text>
  <text class="cls-2" transform="translate(622.39 235) rotate(30.69)"> </text>
  <text class="cls-2" transform="matrix(0.81, 0.59, -0.59, 0.81, 638.67, 244.01)">R</text>
  <text class="cls-2" transform="translate(672.29 268.34) rotate(42.5)">e</text>
  <text class="cls-2" transform="matrix(0.66, 0.75, -0.75, 0.66, 699.33, 293.25)">c</text>
  <text class="cls-2" transform="translate(719.76 316.56) rotate(52.44)">i</text>
  <text class="cls-2" transform="translate(730.11 329.1) rotate(57.35)">p</text>
  <text class="cls-2" transform="translate(751.62 363.56) rotate(62.24)">i</text>
  <text class="cls-2" transform="matrix(0.39, 0.92, -0.92, 0.39, 759.6, 377.78)">e</text>
  <text class="cls-2" transform="translate(774.15 411.54) rotate(72.95)">n</text>
  <text class="cls-2" transform="translate(784.76 446.82) rotate(78.2)">t</text>
  <circle class="cls-1" cx="459.42" cy="527.85" r="325"/>
  <text class="cls-2" transform="matrix(-0.11, 0.99, -0.99, -0.11, 792.4, 538.35)">O</text>
  <text class="cls-2" transform="translate(785.5 591.53) rotate(103.16)">f</text>
  <text class="cls-2" transform="matrix(-0.32, 0.95, -0.95, -0.32, 780.61, 614.41)">fi</text>
  <text class="cls-2" transform="matrix(-0.42, 0.91, -0.91, -0.42, 767.49, 652.67)">c</text>
  <text class="cls-2" transform="translate(754.35 680.77) rotate(118.61)">i</text>
  <text class="cls-2" transform="translate(746.85 695.3) rotate(122.9)">a</text>
  <text class="cls-2" transform="matrix(-0.61, 0.8, -0.8, -0.61, 727.79, 724.19)">l</text>
  <text class="cls-2" transform="translate(717.81 737.4) rotate(130.29)"> </text>
  <text class="cls-2" transform="translate(705.6 751.83) rotate(133.55)"> </text>
  <text class="cls-2" transform="translate(692.6 765.54) rotate(136.81)"> </text>
  <text class="cls-2" transform="matrix(-0.78, 0.62, -0.62, -0.78, 679.3, 778.6)">S</text>
  <text class="cls-2" transform="matrix(-0.85, 0.53, -0.53, -0.85, 650.68, 801.48)">p</text>
  <text class="cls-2" transform="matrix(-0.9, 0.43, -0.43, -0.9, 616.31, 822.61)">a</text>
  <text class="cls-2" transform="matrix(-0.94, 0.33, -0.33, -0.94, 585.33, 837.41)">n</text>
  <text class="cls-2" transform="translate(550.79 849.73) rotate(167.09)">b</text>
  <text class="cls-2" transform="translate(511.47 858.71) rotate(173.65)">e</text>
  <text class="cls-2" transform="translate(474.83 862.58) rotate(179.05)">r</text>
  <text class="cls-2" transform="matrix(-1, -0.08, 0.08, -1, 450.2, 863.45)">g</text>
  <text class="cls-2" transform="matrix(-0.99, -0.17, 0.17, -0.99, 409.74, 859.73)">i</text>
  <text class="cls-2" transform="translate(393.61 857.48) rotate(-165.9)">e</text>
  <text class="cls-2" transform="matrix(-0.94, -0.34, 0.34, -0.94, 357.97, 848.39)">s</text>
  <text class="cls-2" transform="matrix(-0.91, -0.4, 0.4, -0.91, 330.01, 838.17)"> </text>
  <text class="cls-2" transform="translate(312.63 830.57) rotate(-152.55)"> </text>
  <text class="cls-2" transform="translate(295.85 821.94) rotate(-149.81)"> </text>
  <text class="cls-2" transform="matrix(-0.82, -0.58, 0.58, -0.82, 279.48, 813.08)">R</text>
  <text class="cls-2" transform="matrix(-0.74, -0.67, 0.67, -0.74, 245.65, 789.04)">e</text>
  <text class="cls-2" transform="translate(218.4 764.37) rotate(-132.17)">c</text>
  <text class="cls-2" transform="matrix(-0.62, -0.79, 0.79, -0.62, 197.76, 741.24)">i</text>
  <text class="cls-2" transform="translate(187.3 728.79) rotate(-123.15)">p</text>
  <text class="cls-2" transform="matrix(-0.47, -0.88, 0.88, -0.47, 165.5, 694.52)">i</text>
  <text class="cls-2" transform="translate(157.39 680.37) rotate(-113.72)">e</text>
  <text class="cls-2" transform="translate(142.55 646.74) rotate(-107.55)">n</text>
  <text class="cls-2" transform="translate(131.63 611.55) rotate(-102.3)">t</text>
  <polygon points="224.42 281.27 209.71 285.71 205.03 300.35 196.26 287.73 180.89 287.81 190.18 275.56 185.36 260.97 199.88 266.02 212.26 256.93 211.94 272.3 224.42 281.27"/>
  <polygon points="695.42 772.62 710.09 768.05 714.64 753.37 723.52 765.91 738.89 765.71 729.71 778.03 734.65 792.58 720.1 787.65 707.78 796.85 707.97 781.49 695.42 772.62"/>
  <polygon points="270.92 843.12 285.59 838.55 290.14 823.87 299.02 836.41 314.39 836.21 305.21 848.53 310.15 863.08 295.6 858.15 283.29 867.35 283.47 851.99 270.92 843.12"/>
  <polygon points="119.5 562.81 104.25 560.89 94.02 572.36 91.14 557.26 77.07 551.08 90.54 543.67 92.07 528.38 103.28 538.9 118.29 535.64 111.75 549.54 119.5 562.81"/>
  <polygon points="820.7 485.11 823.84 500.15 838.02 506.09 824.68 513.73 823.41 529.04 812.03 518.72 797.07 522.25 803.37 508.23 795.39 495.09 810.67 496.75 820.7 485.11"/>
  <polygon points="648.95 216.69 634.24 221.13 629.56 235.77 620.79 223.15 605.42 223.22 614.71 210.98 609.89 196.39 624.4 201.44 636.79 192.35 636.47 207.71 648.95 216.69"/>
</svg>