
<svg width="900px" height="800px" viewBox="0 0 900 800" version="1.1" xmlns="http://www.w3.org/2000/svg" xmlns:xlink="http://www.w3.org/1999/xlink">
    <g id="Page-1" stroke="none" stroke-width="1" fill="none" fill-rule="evenodd">
        <g id="Artboard" fill-rule="nonzero">
            <g id="Group">
                <rect id="Rectangle" fill="#8DC6E8" x="0" y="0" width="879" height="450"></rect>
                <rect id="Rectangle-Copy-2" fill="#8DC6E8" x="875" y="0" width="25" height="800"></rect>
                <rect id="Rectangle-Copy" fill="#8DC6E8" x="0" y="0" width="25" height="800"></rect>
                <path d="M67.27,144.5 L74.58,116.5 L74.72,116.5 L82.03,144.5 L67.27,144.5 Z M71.92,110.5 L57.08,165.88 L61.73,165.88 L66.23,148.82 L83.07,148.82 L87.42,165.88 L92.29,165.88 L77.45,110.46 L71.92,110.5 Z M113.41,139 C121.46,139 127.73,139.89 127.73,149.85 C127.73,159.3 122.86,161.59 114.37,161.59 L108.37,161.59 L108.37,138.96 L113.41,139 Z M108.41,134.72 L108.41,114.72 L112.91,114.72 C120.15,114.72 126.2,115.39 126.2,124.1 C126.2,133.03 121.2,134.66 113.36,134.66 L108.41,134.72 Z M111.22,165.88 C123.22,165.88 132.55,163.96 132.55,149.88 C132.55,143.38 129.89,138.36 123.47,136.66 L123.47,136.51 C128.94,134.51 131,129.51 131,123.96 C131,119.9 129.82,116.14 126.79,113.48 C123.76,110.82 119.48,110.48 115.72,110.48 L103.59,110.48 L103.59,165.86 L111.22,165.88 Z M150.49,165.88 L150.49,110.46 L145.69,110.46 L145.69,165.84 L150.49,165.88 Z M193.02,142.65 C192.73,150.55 192.21,162.88 181.72,162.88 C170.5,162.88 170.35,145.75 170.35,138.15 C170.35,130.55 169.91,113.41 182.17,113.41 C189.33,113.41 191.62,119.62 192.43,125.6 L197.02,125.6 C197.02,116.66 191.26,109.13 182.02,109.13 C166.37,109.13 165.56,125.23 165.56,137.04 C165.56,148.26 165.78,167.16 181.36,167.16 C186.89,167.16 190.66,164.88 193.36,160.16 L193.51,160.16 L193.95,165.85 L197.79,165.85 L197.79,138.37 L181.1,138.37 L181.1,142.65 L193.02,142.65 Z M219.19,144.5 L226.5,116.5 L226.65,116.5 L233.96,144.5 L219.19,144.5 Z M223.84,110.5 L209.02,165.84 L213.67,165.84 L218.18,148.78 L235.01,148.78 L239.37,165.84 L244.24,165.84 L229.35,110.46 L223.84,110.5 Z M261.57,165.88 L261.57,110.46 L256.77,110.46 L256.77,165.84 L261.57,165.88 Z M304.02,165.88 L304.02,161.59 L283.47,161.59 L283.47,110.46 L278.67,110.46 L278.67,165.84 L304.02,165.88 Z" id="Shape" fill="#FFFFFF"></path>
                <path d="M74.9,257.36 C74.8796351,259.372082 75.053778,261.381422 75.42,263.36 C75.714857,265.008198 76.4007045,266.561643 77.42,267.89 C78.4462929,269.163604 79.7773879,270.157626 81.29,270.78 C83.2349536,271.53869 85.3133479,271.895861 87.4,271.83 C90.2537983,271.844174 93.0192308,270.840818 95.2,269 C97.52,267.12 98.68,264.213333 98.68,260.28 C98.7217833,258.427322 98.433975,256.581963 97.83,254.83 C97.2278623,253.258983 96.2653844,251.85123 95.02,250.72 C93.4734384,249.341937 91.7226644,248.211862 89.83,247.37 C87.2434828,246.194543 84.5925876,245.166236 81.89,244.29 C78.1345518,243.07657 74.4909959,241.540856 71,239.7 C68.13783,238.191103 65.5459451,236.217621 63.33,233.86 C61.2733791,231.637573 59.7273084,228.992529 58.8,226.11 C57.7861032,222.817281 57.300083,219.384763 57.36,215.94 C57.36,206.673333 59.94,199.763333 65.1,195.21 C70.26,190.656667 77.3466667,188.383333 86.36,188.39 C90.2573616,188.34287 94.1449893,188.789762 97.93,189.72 C101.272892,190.535419 104.402835,192.056067 107.11,194.18 C109.713463,196.282969 111.771601,198.98256 113.11,202.05 C114.638347,205.679755 115.378012,209.592823 115.28,213.53 L115.28,216.16 L97.21,216.16 C97.21,211.7 96.4233333,208.266667 94.85,205.86 C93.27,203.45 90.65,202.25 86.97,202.25 C85.175587,202.195641 83.3890055,202.508718 81.72,203.17 C80.431236,203.701686 79.2866804,204.530975 78.38,205.59 C77.5451508,206.599958 76.9593971,207.792018 76.67,209.07 C76.3591472,210.404202 76.2047735,211.770074 76.21,213.14 C76.1123576,215.689045 76.7399974,218.213474 78.02,220.42 C79.24,222.42 81.8633333,224.236667 85.89,225.87 L100.46,232.17 C103.566622,233.47233 106.515477,235.122883 109.25,237.09 C111.353174,238.619285 113.193833,240.480209 114.7,242.6 C116.047514,244.562463 117.004912,246.765835 117.52,249.09 C118.062742,251.680955 118.324256,254.322921 118.3,256.97 C118.3,266.85 115.436667,274.043333 109.71,278.55 C103.983333,283.056667 96,285.31 85.76,285.31 C75.0933333,285.31 67.46,282.993333 62.86,278.36 C58.26,273.726667 55.98,267.076667 56.02,258.41 L56.02,254.61 L74.92,254.61 L74.92,257.36 L74.9,257.36 Z M162.71,232.56 C166.086121,232.703848 169.376458,231.473579 171.83,229.15 C174.15,226.87 175.31,223.326667 175.31,218.52 C175.31,213.713333 174.31,210.126667 172.31,207.76 C170.31,205.313333 166.943333,204.09 162.21,204.09 L154.32,204.09 L154.32,232.56 L162.71,232.56 Z M168.49,190.18 C172.665023,190.050498 176.814301,190.878301 180.62,192.6 C183.726086,194.076879 186.4448,196.258014 188.56,198.97 C190.602819,201.642813 192.076444,204.705775 192.89,207.97 C193.769937,211.33251 194.21358,214.794263 194.21,218.27 C194.295331,222.565114 193.551761,226.836398 192.02,230.85 C190.740098,234.214481 188.684404,237.229498 186.02,239.65 C183.28542,241.992963 180.079936,243.721879 176.62,244.72 C172.662665,245.901189 168.54958,246.477695 164.42,246.43 L154.32,246.43 L154.32,283.83 L135.42,283.83 L135.42,190.18 L168.49,190.18 Z M222.42,248.57 L231.48,206.45 L231.74,206.45 L240.74,248.57 L222.42,248.57 Z M219.93,190.18 L195.13,283.87 L214.81,283.87 L219.14,264.05 L244.07,264.05 L248.4,283.87 L268.09,283.87 L243.29,190.18 L219.93,190.18 Z M327.14,254.34 L327.4,254.34 L327.4,190.18 L344.72,190.18 L344.72,283.87 L323.2,283.87 L300.11,218.26 L299.84,218.26 L299.84,283.87 L282.52,283.87 L282.52,190.18 L304.3,190.18 L327.14,254.34 Z M394.58,269.96 C399.126667,269.96 402.793333,268.96 405.58,266.96 C408.37,264.96 409.78,261.23 409.78,255.81 C409.847742,253.505414 409.46737,251.209598 408.66,249.05 C408.01643,247.389766 406.988297,245.905828 405.66,244.72 C404.351404,243.608482 402.799562,242.820571 401.13,242.42 C399.240684,241.967053 397.302736,241.74874 395.36,241.77 L387.22,241.77 L387.22,269.98 L394.58,269.96 Z M392.58,228.62 C397.82,228.62 401.646667,227.68 404.06,225.8 C406.473333,223.92 407.676667,220.75 407.67,216.29 C407.67,211.83 406.573333,208.68 404.38,206.84 C402.186667,205 398.733333,204.083333 394.02,204.09 L387.19,204.089964 L387.19,228.62 L392.58,228.62 Z M399.92,190.18 C403.520713,190.150139 407.112324,190.546223 410.62,191.36 C413.689713,192.046646 416.575283,193.387105 419.08,195.29 C421.515882,197.227626 423.413181,199.758505 424.59,202.64 C426.01434,206.229063 426.694765,210.070059 426.59,213.93 C426.709442,218.516607 425.478449,223.037203 423.05,226.93 C420.561736,230.648072 416.767991,233.296199 412.42,234.35 L412.42,234.61 C417.295758,235.109903 421.777136,237.514106 424.89,241.3 C427.95,245.06 429.48,250.09 429.48,256.39 C429.499517,259.941216 429.011244,263.476984 428.03,266.89 C427.124454,270.18422 425.440507,273.212581 423.12,275.72 C420.588329,278.369635 417.496224,280.419649 414.07,281.72 C409.63852,283.329251 404.942668,284.08588 400.23,283.95 L368.34,283.95 L368.34,190.18 L399.92,190.18 Z M501.49,205.66 L468.07,205.66 L468.07,227.72 L499.56,227.72 L499.56,243.2 L468.07,243.2 L468.07,268.39 L502.84,268.39 L502.84,283.88 L449.17,283.88 L449.17,190.18 L501.53,190.18 L501.53,205.66 L501.49,205.66 Z M557.65,190.18 C565.516667,190.18 571.64,192.18 576.02,196.18 C580.4,200.18 582.586667,206.236667 582.58,214.35 C582.58,220.65 581.313333,225.79 578.78,229.77 C576.246667,233.75 572.326667,236.296667 567.02,237.41 L567.02,237.72 C571.74,238.386667 575.193333,239.916667 577.38,242.31 C579.566667,244.703333 580.92,248.506667 581.44,253.72 C581.62,255.473333 581.753333,257.373333 581.84,259.42 C581.926667,261.466667 582.013333,263.763333 582.1,266.31 C582.266667,271.303333 582.53,275.11 582.89,277.73 C583.41,280.363333 584.546667,282.156667 586.3,283.11 L586.3,283.9 L565.83,283.9 C564.853103,282.564496 564.221065,281.008447 563.99,279.37 C563.722847,277.610203 563.545949,275.837884 563.46,274.06 L562.94,256.06 C562.76,252.38 561.85,249.5 560.18,247.4 C558.51,245.3 555.72,244.25 551.79,244.25 L541.68,244.25 L541.68,283.88 L522.79,283.88 L522.79,190.18 L557.65,190.18 Z M549.51,231.12 C554.063333,231.12 557.563333,230.046667 560.01,227.9 C562.456667,225.753333 563.683333,222.146667 563.69,217.08 C563.69,208.413333 559.316667,204.08 550.57,204.08 L541.64,204.08 L541.64,231.08 L549.51,231.12 Z M644.35,212.61 C643.975254,210.856222 643.334515,209.170066 642.45,207.61 C641.612241,206.122374 640.470851,204.827663 639.1,203.81 C637.671087,202.77849 635.941553,202.247677 634.18,202.3 C629.626667,202.3 626.346667,204.836667 624.34,209.91 C622.333333,214.983333 621.333333,223.38 621.34,235.1 C621.34,240.7 621.516667,245.776667 621.87,250.33 C622.109225,254.254279 622.745815,258.144181 623.77,261.94 C624.444236,264.680291 625.795524,267.20751 627.7,269.29 C629.465223,271.01674 631.862387,271.942341 634.33,271.85 C635.627532,271.810043 636.902001,271.496537 638.07,270.93 C639.506524,270.265025 640.80042,269.327714 641.88,268.17 C643.160771,266.816494 644.178133,265.236192 644.88,263.51 C645.710186,261.403912 646.111366,259.153223 646.06,256.89 L646.06,247.31 L633.56,247.31 L633.56,233.35 L664.14,233.35 L664.14,283.87 L650.23,283.87 L650.23,275.21 L650.02,275.21 C648.098319,278.551681 645.245661,281.26188 641.81,283.01 C638.204552,284.628861 634.280816,285.414975 630.33,285.31 C624.563333,285.31 619.863333,284.31 616.23,282.31 C612.478802,280.180362 609.494118,276.922753 607.7,273 C605.446775,268.089445 604.04674,262.83086 603.56,257.45 C602.82791,250.320824 602.494058,243.156362 602.56,235.99 C602.475427,229.044959 602.963749,222.104771 604.02,215.24 C604.783658,209.987728 606.545339,204.93011 609.21,200.34 C611.522512,196.475686 614.891543,193.353 618.92,191.34 C622.92,189.34 627.95,188.34 634.01,188.34 C644.33,188.34 651.766667,190.9 656.32,196.02 C660.873333,201.14 663.146667,208.473333 663.14,218.02 L645.02,218.02 C645.011031,216.211025 644.813293,214.407925 644.43,212.64 L644.35,212.61 Z M739.16,205.66 L705.74,205.66 L705.74,227.72 L737.23,227.72 L737.23,243.2 L705.74,243.2 L705.74,268.39 L740.51,268.39 L740.51,283.88 L686.84,283.88 L686.84,190.18 L739.2,190.18 L739.2,205.66 L739.16,205.66 Z M795.32,190.18 C803.186667,190.18 809.31,192.18 813.69,196.18 C818.07,200.18 820.256667,206.236667 820.25,214.35 C820.25,220.65 818.98,225.79 816.44,229.77 C813.9,233.75 809.963333,236.306667 804.63,237.44 L804.63,237.72 C809.363333,238.386667 812.82,239.916667 815,242.31 C817.18,244.703333 818.55,248.506667 819.11,253.72 C819.28,255.47 819.42,257.37 819.5,259.42 C819.58,261.47 819.68,263.78 819.77,266.31 C819.936667,271.303333 820.196667,275.11 820.55,277.73 C821.08,280.36 822.21,282.15 823.97,283.11 L823.97,283.9 L803.49,283.9 C802.520261,282.561524 801.892063,281.006477 801.66,279.37 C801.387907,277.610827 801.210983,275.838248 801.13,274.06 L800.61,256.06 C800.43,252.38 799.51,249.5 797.85,247.4 C796.19,245.3 793.39,244.25 789.45,244.25 L779.35,244.25 L779.35,283.88 L760.45,283.88 L760.45,190.18 L795.32,190.18 Z M787.22,231.12 C791.766667,231.12 795.266667,230.046667 797.72,227.9 C800.173333,225.753333 801.396667,222.146667 801.39,217.08 C801.39,208.413333 797.016667,204.08 788.27,204.08 L779.35,204.08 L779.35,231.08 L787.22,231.12 Z" id="Shape" fill="#FFFFFF"></path>
                <path d="M391.67,362.79 L395.86,362.79 L395.86,326.59 L400.86,326.59 L400.86,322.91 L395.86,322.91 L395.86,318.35 C395.86,313.73 395.36,312.07 400.99,312.28 L400.99,308.6 C392.83,308.17 391.67,310.99 391.67,318.6 L391.67,322.94 L387.41,322.94 L387.41,326.62 L391.67,326.62 L391.67,362.82 L391.67,362.79 Z M421,363.79 C432.49,363.79 433.65,351.72 433.65,342.69 C433.65,333.95 432.42,321.88 421.22,321.88 C410.22,321.88 408.58,332.94 408.58,341.88 C408.58,351.12 408.86,363.77 421,363.77 L421,363.79 Z M420.93,360.1 C412.33,360.1 412.77,347.89 412.77,341.97 C412.77,336.48 413.2,325.57 420.71,325.57 C429.31,325.57 429.46,336.57 429.46,342.76 C429.46,348.76 429.38,360.1 420.93,360.1 Z M447.52,322.9 L443.52,322.9 L443.52,362.78 L447.71,362.78 L447.71,336.63 C447.71,330.35 450.6,326.16 457.11,326.3 L457.11,321.89 C452.48,321.82 449.74,323.34 447.64,327.53 L447.5,327.53 L447.5,322.91 L447.52,322.9 Z" id="Shape" fill="#FFFFFF"></path>
                <path d="M505.51,344.44 C505.3,351.08 503.51,359.9 495.4,359.9 C483.48,359.9 483.91,343.57 483.91,335.26 C483.91,327.96 483.48,311.49 494.91,311.49 C502.21,311.49 504.67,317.78 505.1,324.21 L509.8,324.21 C509.72,315.03 504.8,307.3 495.06,307.3 C480.68,307.3 479.23,323.05 479.23,334.18 C479.23,345.66 479.23,364.09 494.91,364.09 C505.75,364.09 510.45,353.68 510.23,344.44 L505.51,344.44 Z M532.25,363.8 C543.73,363.8 544.89,351.73 544.89,342.7 C544.89,333.96 543.66,321.89 532.46,321.89 C521.46,321.89 519.82,332.95 519.82,341.89 C519.82,351.13 520.11,363.78 532.25,363.78 L532.25,363.8 Z M532.17,360.11 C523.58,360.11 524.01,347.9 524.01,341.98 C524.01,336.49 524.44,325.58 532.01,325.58 C540.6,325.58 540.75,336.58 540.75,342.77 C540.75,348.77 540.68,360.11 532.22,360.11 L532.17,360.11 Z M560.17,333.38 C560.17,328.9 564.43,325.58 568.63,325.58 C574.12,325.58 574.48,329.26 574.48,333.81 L574.48,362.81 L578.67,362.81 L578.67,331.14 C578.67,325.36 574.48,321.89 569.35,321.89 C565.70821,321.891543 562.317247,323.745269 560.35,326.81 L560.2,326.81 L560.2,322.91 L556.01,322.91 L556.01,362.79 L560.2,362.79 L560.2,333.38 L560.17,333.38 Z M602.8,325.58 C611.9,325.58 611.11,337.43 611.11,343.86 C611.11,349.13 611.03,360.04 603.38,360.11 C595.38,360.11 595.21,348.91 595.21,343.28 C595.21,338.51 595.36,325.58 602.8,325.58 Z M611.11,326.52 L610.96,326.52 C609.107087,323.464534 605.717403,321.683122 602.15,321.89 C591.31,321.89 591.02,335.69 591.02,343.28 C591.02,351.59 591.6,363.8 602.44,363.8 C605.69012,363.962891 608.816238,362.534128 610.82,359.97 L611.11,359.97 C610.89,365.53 611.68,372.76 603.01,372.76 C599.69,372.61 596.37,371.02 596.15,367.41 L591.89,367.41 C592.18,373.7 597.23,376.41 602.89,376.41 C612.28,376.41 615.25,370.56 615.25,361.89 L615.25,322.89 L611.06,322.89 L611.06,326.5 L611.11,326.52 Z M633.11,322.91 L629.11,322.91 L629.11,362.79 L633.3,362.79 L633.3,336.63 C633.3,330.35 636.19,326.16 642.69,326.3 L642.69,321.89 C638.06,321.82 635.32,323.34 633.22,327.53 L633.02,327.53 L633.02,322.91 L633.11,322.91 Z M675.45,338.58 C675.45,331 673.28,321.89 664.03,321.89 C653.03,321.89 652.54,334.97 652.54,342.99 C652.54,351.23 653.05,363.8 664.18,363.8 C672.34,363.8 675.3,357.08 675.3,349.8 L671.3,349.8 C670.93,354.57 670.21,360.13 664.3,360.13 C656.06,360.13 656.78,347.78 656.78,342.65 L675.5,342.65 L675.5,338.6 L675.45,338.58 Z M656.73,338.94 C656.73,334.25 657.46,325.58 663.96,325.58 C670.75,325.58 671.26,333.89 671.26,338.94 L656.73,338.94 Z M687.02,333.38 C687.6,344.15 704.94,342.05 704.94,352.6 C704.94,356.79 702.48,360.11 698.07,360.11 C692.94,360.11 690.77,356.86 690.41,351.95 L686.15,351.95 C686.15,359.54 689.98,363.8 697.78,363.8 C704.72,363.8 709.13,359.9 709.13,352.8 C709.13,344.27 703.13,341.24 696.05,337.99 C693.3,336.9 691.21,335.1 691.21,331.92 C691.21,328.01 693.21,325.56 697.13,325.56 C701.54,325.56 703.85,328.88 704,333.07 L708.11,333.07 C708.11,326.21 704.11,321.87 697.28,321.87 C689.98,321.87 686.37,326.14 687.02,333.36 L687.02,333.38 Z M720.9,333.38 C721.48,344.15 738.82,342.05 738.82,352.6 C738.82,356.79 736.36,360.11 731.96,360.11 C726.83,360.11 724.66,356.86 724.3,351.95 L720.02,351.95 C720.02,359.54 723.85,363.8 731.66,363.8 C738.59,363.8 743,359.9 743,352.8 C743,344.27 737,341.24 729.92,337.99 C727.18,336.9 725.08,335.1 725.08,331.92 C725.08,328.01 727.08,325.56 731.01,325.56 C735.41,325.56 737.73,328.88 737.87,333.07 L742.02,333.07 C742.02,326.21 738.02,321.87 731.18,321.87 C723.88,321.87 720.27,326.14 720.92,333.36 L720.9,333.38 Z" id="Shape" fill="#FFFFFF"></path>
                <polygon id="Shape" fill="#FFFFFF" points="541.6 138.09 528.53 178.31 562.77 153.44 597.01 178.31 583.95 138.09 618.1 113.22 575.83 113.22 562.77 73 549.71 113.22 507.44 113.22 541.6 138.09"></polygon>
                <rect id="Rectangle-path" fill="#FFFFFF" x="755.89" y="330.73" width="67.95" height="11.93"></rect>
                <rect id="Rectangle-path" fill="#FFFFFF" x="56" y="330.73" width="315.78" height="11.93"></rect>
                <polygon id="Shape" fill="#FFFFFF" points="823.96 138.15 823.96 126.22 603.64 126.22 587.26 138.15"></polygon>
                <polygon id="Shape" fill="#FFFFFF" points="303.56 126.22 303.56 138.15 538.28 138.15 521.9 126.22"></polygon>
            </g>
        </g>
    </g>
</svg>