<?xml version="1.0"?>
<svg xmlns="http://www.w3.org/2000/svg" viewBox="0 0 512 512.00079" width="512px" height="512px"><path d="m508.257812 434.464844-26.386718-26.386719c-2.414063-2.414063-5.621094-3.742187-9.035156-3.742187-3.414063 0-6.621094 1.328124-9.035157 3.742187l-4.128906 4.128906-94.226563-94.222656c-9.601562-9.601563-19.09375-19.492187-28.363281-29.519531.890625.019531 1.785157.035156 2.6875.035156 62.035157 0 114.394531-46.378906 121.792969-107.882812.496094-4.113282-2.4375-7.847657-6.550781-8.339844-4.121094-.5-7.847657 2.4375-8.34375 6.550781-2.734375 22.730469-12.46875 43.105469-26.890625 59.082031-4.792969-5.300781-9-10.996094-12.597656-17.011718l11.152343-5.621094c3.699219-1.867188 5.183594-6.375 3.320313-10.074219-1.863282-3.699219-6.375-5.1875-10.074219-3.320313l-11.171875 5.628907c-4.515625-10.761719-7.25-22.273438-8.058594-34.191407h12.4375c4.144532 0 7.5-3.355468 7.5-7.5 0-4.140624-3.355468-7.5-7.5-7.5h-12.4375c.796875-11.757812 3.476563-23.125 7.886719-33.765624l11.191406 5.582031c1.074219.535156 2.214844.789062 3.339844.789062 2.753906 0 5.40625-1.519531 6.71875-4.152343 1.847656-3.707032.34375-8.210938-3.363281-10.058594l-11.179688-5.578125c3.648438-6.160157 7.9375-11.988281 12.835938-17.402344 14.421875 15.972656 24.15625 36.351563 26.890625 59.082031.496093 4.113282 4.226562 7.035156 8.339843 6.550782 4.113282-.496094 7.046876-4.230469 6.550782-8.339844-7.394532-61.503906-59.753906-107.882813-121.789063-107.882813-32.742187 0-62.527343 12.894531-84.546875 33.867188-.289062.222656-.570312.460937-.832031.730469-.164063.167968-.3125.34375-.457031.523437-17.085938 16.753906-29.3125 38.449219-34.324219 62.753906l-1.832031-2.378906c-.078125-.097656-.152344-.191406-.234375-.285156-9.148438-10.71875-18.835938-21.207031-28.800781-31.167969l-77.242188-77.242188c-13.359375-13.359374-29.988281-23.277343-48.085938-28.683593-10.613281-3.167969-22.0625-.273438-29.890624 7.554687l-24.703126 24.707032c-7.832031 7.828124-10.726562 19.28125-7.558593 29.890624 5.40625 18.101563 15.324219 34.730469 28.683593 48.085938l37.203126 37.203125c2.929687 2.929687 7.675781 2.929687 10.605468 0 2.929688-2.929687 2.929688-7.675781 0-10.605469l-37.203125-37.203125c-11.605469-11.601562-20.21875-26.046875-24.914062-41.773437-1.589844-5.320313-.136719-11.066406 3.789062-14.992188l24.703125-24.703125c3.925782-3.925781 9.671875-5.378906 14.992188-3.789062 15.722656 4.691406 30.167968 13.308593 41.773437 24.914062l77.242188 77.242188c9.644531 9.640625 19.023437 19.785156 27.878906 30.160156l11.125 14.414063c-.03125 1.148437-.050781 2.300781-.050781 3.457031 0 34.238281 14.109375 65.242187 36.808594 87.519531.152343.191406.316406.382812.492187.5625.269531.28125.558594.527344.859375.753906 16.171875 15.394532 36.535156 26.425782 59.175781 31.203125.039063.046875.074219.097657.113281.140625 12.984376 14.5 26.542969 28.828125 40.300782 42.585938l4.363281 4.363281-26.25 26.246094-4.363281-4.359375c-19.714844-19.714844-40.460938-38.886719-61.667969-56.984375-.09375-.078125-.1875-.15625-.285156-.230469l-118.683594-91.609375c-10.375-8.859375-20.519531-18.238281-30.160156-27.878906l-20.242188-20.242188c-2.929687-2.929687-7.679687-2.929687-10.609375 0-2.925781 2.929688-2.925781 7.675781 0 10.605469l20.246094 20.242188c9.960938 9.960937 20.445312 19.652343 31.167969 28.804687.09375.078125.1875.15625.285156.230469l118.683594 91.605468c20.859375 17.808594 41.265625 36.667969 60.660156 56.0625l94.226563 94.226563-4.128907 4.128906c-2.414062 2.414063-3.746093 5.621094-3.746093 9.035157 0 3.414062 1.332031 6.625 3.746093 9.039062l26.382813 26.382812c2.414062 2.414063 5.621094 3.742188 9.035156 3.742188s6.625-1.328125 9.035156-3.742188l55.722656-55.722656c4.980469-4.980468 4.980469-13.085937 0-18.070312zm-99.285156-351.136719c-5.960937 6.535156-11.140625 13.597656-15.492187 21.09375l-9.960938-4.96875c-3.710937-1.851563-8.210937-.34375-10.0625 3.363281-1.847656 3.707032-.34375 8.210938 3.363281 10.058594l9.949219 4.960938c-5.402343 12.71875-8.609375 26.363281-9.449219 40.488281h-11.207031c-4.140625 0-7.5 3.355469-7.5 7.5 0 4.140625 3.359375 7.5 7.5 7.5h11.207031c.851563 14.300781 4.132813 28.109375 9.65625 40.960937l-9.929687 5.007813c-3.699219 1.863281-5.1875 6.375-3.320313 10.070312 1.316407 2.617188 3.960938 4.128907 6.703126 4.128907 1.132812 0 2.285156-.261719 3.367187-.804688l9.945313-5.015625c4.296874 7.328125 9.390624 14.242187 15.230468 20.648437-18.8125 15.769532-43.027344 25.179688-69.207031 25.179688-26.300781 0-50.429687-9.484375-69.148437-25.207031 5.828124-6.398438 10.914062-13.304688 15.203124-20.621094l9.941407 5.015625c1.085937.542969 2.238281.804688 3.371093.804688 2.742188 0 5.386719-1.511719 6.703126-4.128907 1.867187-3.695312.378906-8.207031-3.320313-10.070312l-9.929687-5.007813c5.523437-12.851562 8.804687-26.660156 9.660156-40.960937h11.203125c4.140625 0 7.5-3.359375 7.5-7.5 0-4.144531-3.359375-7.5-7.5-7.5h-11.203125c-.84375-14.125-4.050782-27.769531-9.449219-40.488281l9.945313-4.960938c3.707031-1.847656 5.214843-6.351562 3.363281-10.058594-1.847657-3.707031-6.351563-5.214844-10.058594-3.363281l-9.964844 4.96875c-4.34375-7.484375-9.515625-14.539063-15.464843-21.066406 18.722656-15.722657 42.847656-25.210938 69.152343-25.210938 26.179688 0 50.390625 9.414063 69.203125 25.183594zm-149.152344 10.445313c4.882813 5.402343 9.160157 11.21875 12.796876 17.367187l-11.179688 5.574219c-3.707031 1.851562-5.210938 6.355468-3.363281 10.058594 1.316406 2.632812 3.964843 4.15625 6.71875 4.15625 1.125 0 2.265625-.253907 3.339843-.792969l11.195313-5.582031c4.410156 10.644531 7.085937 22.007812 7.886719 33.769531h-12.441406c-4.140626 0-7.5 3.355469-7.5 7.5 0 4.140625 3.359374 7.5 7.5 7.5h12.441406c-.8125 11.914062-3.546875 23.425781-8.0625 34.191406l-11.171875-5.632813c-3.699219-1.863281-8.207031-.378906-10.074219 3.324219-1.863281 3.695313-.375 8.207031 3.324219 10.070313l11.148437 5.621094c-3.585937 6.003906-7.785156 11.6875-12.5625 16.976562-17.226562-19.097656-27.730468-44.371094-27.730468-72.050781.003906-27.683594 10.507812-52.957031 27.734374-72.050781zm109.988282 249.785156 51.273437 51.273437-26.25 26.25-51.273437-51.273437zm35.632812 88.128906 26.246094-26.246094 17.378906 17.375-26.25 26.246094zm38.058594 64.390625-23.242188-23.242187 7.78125-7.78125c.027344-.027344.054688-.046876.082032-.074219.027344-.027344.050781-.058594.078125-.085938l36.695312-36.695312c.027344-.027344.054688-.046875.082031-.074219.027344-.027344.046876-.054688.074219-.082031l7.785157-7.785157 23.242187 23.242188zm0 0" fill="#8dc6e8"/></svg>
