<?xml version="1.0"?>
<svg xmlns="http://www.w3.org/2000/svg" height="512px" viewBox="0 0 511.99885 511" width="512px"><path d="m216 236.503906c5.519531 0 10-4.480468 10-10 0-5.523437-4.480469-10-10-10s-10 4.476563-10 10c0 5.519532 4.480469 10 10 10zm0 0" fill="#8dc6e8"/><path d="m107.726562 316.714844c-35.386718 3.089844-79.632812 26.511718-104.402343 51.046875-.03125.027343-.0625.058593-.09375.089843-.027344.027344-.058594.054688-.085938.082032l-.246093.246094c-3.230469 3.253906-3.753907 8.167968-1.601563 11.96875 3.988281 13.269531 10.710937 27.355468 19.664063 41.242187-7.140626 6.507813-11.125 10.496094-14.628907 14.160156-3.089843 3.230469-3.664062 8.117188-1.40625 11.972657 7.019531 11.984374 15.859375 23.347656 26.28125 33.78125 10.425781 10.414062 21.789063 19.253906 33.773438 26.273437 3.863281 2.265625 8.75 1.679687 11.972656-1.40625 3.710937-3.550781 7.648437-7.480469 14.160156-14.628906 13.949219 8.992187 28.097657 15.742187 41.421875 19.722656 3.800782 2.058594 8.644532 1.457031 11.84375-1.714844.015625-.015625.058594-.058593.074219-.074219l.128906-.128906c.003907-.003906.003907-.003906.003907-.003906 24.582031-24.710938 48.105468-69.105469 51.191406-104.597656 19.132812 7.726562 39.785156 11.734375 60.484375 11.734375 100.5625 0 176.644531-92.386719 156.558593-191.777344-.027343-.15625-.0625-.3125-.097656-.464844-1.953125-9.570312-4.785156-18.914062-8.445312-27.9375 35.386718-3.089843 79.632812-26.523437 104.402344-51.058593.03125-.027344.058593-.054688.085937-.082032.03125-.027344.0625-.058594.089844-.085937l.222656-.21875c3.25-3.25 3.785156-8.179688 1.625-11.992188-3.988281-13.273437-10.710937-27.359375-19.667969-41.242187 7.144532-6.511719 11.125-10.5 14.632813-14.164063 3.089843-3.226562 3.664062-8.113281 1.40625-11.96875-7.023438-11.988281-15.859375-23.351562-26.28125-33.785156-10.425781-10.414063-21.789063-19.25-33.773438-26.273437-3.859375-2.257813-8.742187-1.683594-11.972656 1.40625-3.710937 3.554687-7.648437 7.484374-14.164063 14.632812-13.875-8.953125-27.957031-15.679688-41.222656-19.667969-3.8125-2.167969-8.746094-1.628906-12.003906 1.621094l-.207031.207031c-.011719.011719-.023438.023438-.035157.035156 0 0 0 0-.003906.003907-.015625.015625-.03125.03125-.046875.046875-.035156.039062-.070312.074218-.101562.109375-.003907 0-.003907.003906-.007813.007812-24.523437 24.742188-47.957031 69.007813-51.035156 104.421875-26.03125-10.511718-54.882812-14.121094-82.816406-10.152344-91.660156 13.003907-152.359375 100.585938-134.214844 190.25.023438.125.050781.25.078125.375 1.957031 9.585938 4.796875 18.949219 8.460937 27.988282zm68.273438-80.210938c5.523438 0 10-4.476562 10-10 0-5.523437-4.476562-10-10-10h-54.195312c4.230468-14.320312 10.6875-27.714844 19.28125-40.003906h229.828124c8.550782 12.238281 14.972657 25.558594 19.261719 40.003906h-134.175781c-5.523438 0-10 4.476563-10 10 0 5.523438 4.476562 10 10 10h138.566406c1.921875 13.300782 1.921875 26.695313 0 40h-277.132812c-1.921875-13.300781-1.921875-26.699218 0-40zm299.835938-131.519531c6.34375 10.1875 11.28125 20.359375 14.554687 30.007813-24.632813 22.0625-67.351563 42.726562-95.71875 41.621093-1.714844-2.96875-3.523437-5.886719-5.421875-8.738281 25.597656-13.734375 61.855469-41.8125 86.585938-62.890625zm-104.921876 231.519531h-229.828124c-8.546876-12.234375-14.972657-25.566406-19.257813-40.011718h268.371094c-4.234375 14.320312-10.691407 27.730468-19.285157 40.011718zm-334.75 71.519532c-6.34375-10.191407-11.277343-20.359376-14.554687-30.007813 24.632813-22.0625 67.351563-42.730469 95.722656-41.621094 1.710938 2.964844 3.519531 5.882813 5.417969 8.734375-25.597656 13.738282-61.855469 41.816406-86.585938 62.894532zm32.457032 78.257812c-8.164063-5.410156-15.964844-11.824219-23.273438-19.121094-7.300781-7.308594-13.714844-15.117187-19.125-23.277344 24.0625-23.429687 78.667969-67.449218 108.839844-82.628906 2.496094 2.878906 5.09375 5.695313 7.792969 8.394532 2.699219 2.699218 5.511719 5.292968 8.390625 7.792968-15.171875 30.167969-59.203125 84.78125-82.625 108.839844zm65.867187 4.613281c-9.648437-3.277343-19.816406-8.210937-30.007812-14.554687 21.082031-24.734375 49.15625-60.996094 62.894531-86.589844 2.855469 1.898438 5.765625 3.707031 8.722656 5.410156 1.105469 28.394532-19.554687 71.117188-41.609375 95.734375zm121.6875-94.191406c-35.269531 0-70.96875-13.578125-98.144531-40.207031h195.945312c-26.949218 26.410156-62.097656 40.210937-97.800781 40.207031zm187.203125-369.980469c8.164063 5.414063 15.96875 11.824219 23.273438 19.121094 7.300781 7.3125 13.714844 15.117188 19.128906 23.28125-24.066406 23.425781-78.671875 67.449219-108.84375 82.625-5.152344-5.941406-10.125-10.929688-16.183594-16.183594 15.175782-30.167968 59.203125-84.78125 82.625-108.84375zm-65.867187-4.609375c9.648437 3.273438 19.820312 8.207031 30.007812 14.550781-21.078125 24.738282-49.15625 60.996094-62.894531 86.59375-2.855469-1.902343-5.765625-3.710937-8.722656-5.414062-1.109375-28.382812 19.550781-71.109375 41.609375-95.730469zm-23.542969 134.386719h-195.949219c54.625-53.539062 141.210938-53.636719 195.949219 0zm0 0" fill="#8dc6e8"/></svg>
