<?xml version="1.0"?>
<svg xmlns="http://www.w3.org/2000/svg" height="512px" viewBox="1 -27 511.99899 511" width="512px"><path d="m103.289062 192.832031h-15.136718c0-48.359375 39.347656-87.707031 87.707031-87.707031v15.136719c-40.015625 0-72.570313 32.554687-72.570313 72.570312zm0 0" fill="#8dc6e8"/><path d="m400.25 416.777344v-15.132813c31.179688 0 56.546875-25.367187 56.546875-56.546875h15.132813c0 39.523438-32.15625 71.679688-71.679688 71.679688zm0 0" fill="#8dc6e8"/><path d="m336.140625 401.644531h16.027344v15.132813h-16.027344zm0 0" fill="#8dc6e8"/><path d="m400.25 233.351562c-8.824219 0-17.660156 1.074219-26.363281 3.203126-7.589844-41.007813-37.605469-74.59375-77.605469-86.609376-18.089844-50.785156-66.4375-84.886718-120.421875-84.886718-27.886719 0-54.394531 8.839844-76.652344 25.558594l9.089844 12.097656c19.617187-14.734375 42.980469-22.523438 67.5625-22.523438 44.363281 0 84.398437 26.125 102.546875 65.925782-4.722656-.605469-9.53125-.917969-14.394531-.917969-29.078125 0-56.59375 11.121093-77.484375 31.316406-18.121094 17.523437-29.625 40.269531-33.039063 64.953125-13.265625-5.390625-27.261719-8.117188-41.742187-8.117188-13.167969 0-25.960938 2.257813-38.113282 6.695313-6.914062-14.808594-10.417968-30.65625-10.417968-47.210937 0-28.480469 10.667968-55.667969 30.039062-76.558594l-11.097656-10.289063c-21.972656 23.695313-34.074219 54.539063-34.074219 86.847657 0 18.398437 4.035157 36.675781 11.710938 53.324218-36.566407 19.136719-59.792969 57.144532-59.792969 98.9375 0 61.621094 50.128906 111.75 111.75 111.75h192.332031v-15.132812h-192.332031c-53.277344 0-96.617188-43.339844-96.617188-96.617188 0-38.445312 22.722657-73.1875 57.910157-88.519531 12.199219-5.371094 25.222656-8.09375 38.707031-8.09375 15.730469 0 30.804688 3.726563 44.804688 11.074219l10.613281 5.570312.464843-11.972656c.972657-25.007812 11.417969-48.363281 29.414063-65.757812 18.050781-17.457032 41.835937-27.066407 66.964844-27.066407 7.796875 0 15.414062.898438 22.679687 2.675781 39.71875 9.535157 69.222656 43.28125 73.414063 83.972657l.964843 9.34375 8.921876-2.925781c9.933593-3.261719 20.113281-4.914063 30.257812-4.914063 53.273438 0 96.617188 43.339844 96.617188 96.617187 0 53.273438-43.34375 96.613282-96.617188 96.613282h-72.125v15.132812h72.125c61.621094 0 111.75-50.128906 111.75-111.746094 0-61.621093-50.128906-111.75-111.75-111.75zm0 0" fill="#8dc6e8"/><path d="m191.886719 105.128906h16.027343v15.132813h-16.027343zm0 0" fill="#8dc6e8"/><path d="m368.195312 401.644531h16.027344v15.132813h-16.027344zm0 0" fill="#8dc6e8"/><path d="m87.707031 281.433594h16.027344v15.136718h-16.027344zm0 0" fill="#8dc6e8"/><path d="m71.679688 297.460938h16.027343v15.132812h-16.027343zm0 0" fill="#8dc6e8"/><path d="m55.652344 329.519531h16.027344v15.132813h-16.027344zm0 0" fill="#8dc6e8"/><path d="m160.277344.5h15.136718v40.070312h-15.136718zm0 0" fill="#8dc6e8"/><path d="m266.6875 19.179688 10.699219 10.703124-32.054688 32.054688-10.699219-10.699219zm0 0" fill="#8dc6e8"/><path d="m77.027344 19.1875 32.058594 32.058594-10.703126 10.699218-32.054687-32.054687zm0 0" fill="#8dc6e8"/><path d="m18.390625 89.644531 40.070313 16.027344-5.621094 14.050781-40.070313-16.027344zm0 0" fill="#8dc6e8"/><path d="m333.324219 89.648438 5.621093 14.054687-40.070312 16.027344-5.621094-14.054688zm0 0" fill="#8dc6e8"/></svg>
