<?xml version="1.0"?>
<svg xmlns="http://www.w3.org/2000/svg" height="512px" viewBox="0 0 512 512" width="512px"><path d="m443.132812 151h-423.132812c-11.046875 0-20 8.953125-20 20 0 91.679688 29.761719 144.351562 56.019531 190.820312 19.808594 35.0625 37.238281 65.925782 41.15625 110.179688h-77.175781c-11.046875 0-20 8.953125-20 20s8.953125 20 20 20h380c11.046875 0 20-8.953125 20-20s-8.953125-20-20-20h-75.15625c.863281-9.628906 2.394531-19.007812 4.636719-28.320312 2.582031-10.738282-4.027344-21.539063-14.765625-24.125-10.734375-2.582032-21.539063 4.027343-24.125 14.765624-2.984375 12.398438-4.910156 24.855469-5.867188 37.679688h-147.433594c-4.101562-54.886719-25.585937-92.941406-46.445312-129.855469-22.867188-40.46875-46.445312-82.195312-50.296875-151.144531h341.101563c-2.445313 65.660156-17.234376 90.203125-35.535157 120.566406-5.796875 9.617188-11.789062 19.5625-17.792969 31.367188-5.007812 9.84375-1.085937 21.882812 8.757813 26.890625 4.339844 2.210937 9.105469 2.675781 13.511719 1.671875 1.417968.320312 2.894531.503906 4.410156.503906 25.953125 0 64.523438-16.054688 95.976562-39.953125 39.351563-29.902344 61.023438-66.152344 61.023438-102.078125 0-43.542969-30.894531-78.96875-68.867188-78.96875zm-16.359374 149.195312c-13.945313 10.597657-28.648438 18.683594-41.625 24.054688 17.941406-30.203125 33.992187-62.253906 36.507812-133.25h21.476562c15.648438 0 28.867188 17.847656 28.867188 38.96875 0 22.792969-16.484375 48.390625-45.226562 70.226562zm-351.773438-210.195312c0-20.757812 14.363281-33.550781 25.902344-43.832031 11.398437-10.152344 17.847656-16.371094 17.847656-26.167969 0-11.046875 8.953125-20 20-20s20 8.953125 20 20c0 28.210938-18.054688 44.292969-31.238281 56.039062-5.28125 4.703126-12.511719 11.140626-12.511719 13.960938 0 11.046875-8.953125 20-20 20s-20-8.953125-20-20zm107.875 0c0-20.757812 14.363281-33.550781 25.902344-43.832031 11.398437-10.152344 17.847656-16.371094 17.847656-26.167969 0-11.046875 8.953125-20 20-20s20 8.953125 20 20c0 28.210938-18.054688 44.292969-31.238281 56.039062-5.28125 4.703126-12.511719 11.140626-12.511719 13.960938 0 11.046875-8.953125 20-20 20s-20-8.953125-20-20zm106.9375 0c0-20.757812 14.363281-33.550781 25.90625-43.832031 11.394531-10.152344 17.84375-16.371094 17.84375-26.167969 0-11.046875 8.953125-20 20-20s20 8.953125 20 20c0 28.210938-18.054688 44.292969-31.238281 56.039062-5.28125 4.703126-12.511719 11.140626-12.511719 13.960938 0 11.046875-8.953125 20-20 20s-20-8.953125-20-20zm0 0" fill="#8dc6e8"/></svg>
