<?xml version="1.0" encoding="iso-8859-1"?>
<!-- Generator: Adobe Illustrator 19.0.0, SVG Export Plug-In . SVG Version: 6.00 Build 0)  -->
<svg xmlns="http://www.w3.org/2000/svg" xmlns:xlink="http://www.w3.org/1999/xlink" version="1.1" id="Capa_1" x="0px" y="0px" viewBox="0 0 512 512" style="enable-background:new 0 0 512 512;" xml:space="preserve" width="512px" height="512px">
<g>
	<g>
		<path d="M383.436,230.032c-11.23-16.854-32.485-24.148-51.681-17.733l-30.761,10.26v-25.13l30.764,10.255    c4.594,1.531,9.384,2.308,14.234,2.308c11.842,0,23.438-4.805,31.816-13.182l59.997-59.997c17.589-17.588,17.591-46.042,0-63.632    c-17.542-17.544-46.088-17.544-63.632,0l-40.332,40.332l-23.869-7.958c12.855-11.013,21.022-27.344,21.022-45.556    C330.994,26.915,304.079,0,270.997,0c-33.083,0-59.997,26.915-59.997,59.997c0,13.381,4.406,25.751,11.84,35.741L97.171,120.873    c-24.328,4.87-40.158,28.624-35.29,52.942c4.772,23.93,28.188,40.216,52.953,35.299l96.165-19.233v94.803    c-0.034,4.937,0.735,9.824,2.308,14.539l25.273,75.819l-25.29,77.754c-7.849,23.623,4.94,49.024,28.453,56.869    c23.417,7.842,49.014-4.654,56.976-28.542l29.972-91.913c3.051-9.173,3.051-19.277-0.003-28.46l-15.765-47.298l14.701-4.899    l40.932,61.397c13.867,20.784,41.862,26.184,62.393,12.477c20.693-13.788,26.275-41.703,12.482-62.402L383.436,230.032z     M270.997,29.999c16.541,0,29.999,13.457,29.999,29.999c0,16.541-13.457,29.999-29.999,29.999    c-16.541,0-29.999-13.457-29.999-29.999C240.998,43.456,254.456,29.999,270.997,29.999z M300.197,379.826l-29.968,91.903    c-2.608,7.824-11.055,12.136-18.976,9.484c-7.864-2.623-12.112-11.111-9.488-18.977c0.012-0.036,0.024-0.072,0.036-0.108    l26.835-82.504c0.992-3.051,0.98-6.339-0.034-9.383l-13.442-40.328c5.043,0.096,10.14-0.626,15.073-2.234l14.229-4.742    l15.763,47.289C301.26,373.338,301.26,376.63,300.197,379.826z M414.302,357.471c-6.88,4.592-16.198,2.716-20.791-4.166    l-47.283-70.925c-3.754-5.632-10.812-8.048-17.222-5.91l-39.796,13.262c-0.002,0-0.003,0.001-0.005,0.001    s-0.003,0.001-0.005,0.002l-28.359,9.451c-9.209,3-18.602-3.015-19.739-12.463c-0.072-0.612-0.107-1.245-0.105-1.795V171.585    c0-9.456-8.668-16.567-17.941-14.707c-123.043,24.608-114.916,23.115-117.08,23.115c-7.111,0-13.282-5.065-14.676-12.055    c-1.623-8.109,3.653-16.026,11.758-17.649c165.379-33.076,151.87-31.467,158.935-29.109c0.082,0.028,0.164,0.055,0.246,0.082    l70.912,23.642c5.391,1.797,11.333,0.393,15.35-3.624l46.888-46.888c5.848-5.847,15.36-5.847,21.208,0    c5.866,5.868,5.865,15.341,0,21.208l-59.997,59.997c-3.876,3.876-9.808,5.477-15.353,3.627l-50.506-16.835    c-9.698-3.231-19.742,3.995-19.742,14.229v66.755c0,10.224,10.032,17.465,19.745,14.228l50.513-16.847    c6.394-2.138,13.474,0.293,17.219,5.915l59.995,89.993C423.052,343.542,421.229,352.855,414.302,357.471z" fill="#8dc6e8"/>
	</g>
</g>
<g>
</g>
<g>
</g>
<g>
</g>
<g>
</g>
<g>
</g>
<g>
</g>
<g>
</g>
<g>
</g>
<g>
</g>
<g>
</g>
<g>
</g>
<g>
</g>
<g>
</g>
<g>
</g>
<g>
</g>
</svg>
