<?xml version="1.0"?>
<svg xmlns="http://www.w3.org/2000/svg" height="512px" viewBox="-53 -21 682 682.66669" width="512px"><path d="m504.722656 493.992188h-27.527344v-117.503907c0-10.347656-8.386718-18.734375-18.734374-18.734375h-85.945313v-153.671875h48.417969v69.273438c0 10.347656 8.386718 18.734375 18.734375 18.734375h54.929687c10.347656 0 18.738282-8.386719 18.738282-18.734375 0-10.347657-8.390626-18.738281-18.738282-18.738281h-36.191406v-69.269532c0-10.347656-8.386719-18.738281-18.738281-18.738281h-137.382813v-4.109375c23.941406-7.078125 41.464844-29.257812 41.464844-55.464844v-11.269531h26.054688c10.347656 0 18.734374-8.386719 18.734374-18.734375 0-10.351562-8.386718-18.742188-18.734374-18.742188h-26.054688v-.445312c0-31.898438-25.949219-57.84375-57.84375-57.84375h-4.71875c-31.894531 0-57.84375 25.945312-57.84375 57.84375v.445312h-26.054688c-10.347656 0-18.734374 8.390626-18.734374 18.742188 0 10.347656 8.386718 18.734375 18.734374 18.734375h26.054688v11.269531c0 26.207032 17.523438 48.386719 41.464844 55.464844v4.109375h-131.65625v-69.617187c0-10.347657-8.386719-18.734376-18.738282-18.734376h-54.933593c-10.34375 0-18.734375 8.386719-18.734375 18.734376 0 10.347656 8.390625 18.734374 18.734375 18.734374h36.199219v69.621094c0 10.347656 8.386718 18.734375 18.734374 18.734375h80.171876v365.964844c0 10.347656 8.386718 18.738281 18.734374 18.738281h16.375v13.746094h-28.984374c-10.34375 0-18.734376 8.386719-18.734376 18.734375 0 10.34375 8.390626 18.734375 18.734376 18.734375h47.722656c10.34375 0 18.734375-8.390625 18.734375-18.734375v-32.480469h16.382812c10.34375 0 18.734375-8.390625 18.734375-18.738281v-109.078125h137.441406v51.761719c0 10.347656 8.386719 18.734375 18.734376 18.734375h46.261718c10.34375 0 18.734375-8.386719 18.734375-18.734375 0-10.347657-8.390625-18.738281-18.734375-18.738281zm-243.90625-436.148438c0-11.234375 9.140625-20.375 20.371094-20.375h4.71875c11.238281 0 20.371094 9.140625 20.371094 20.375v.445312h-45.457032v-.445312zm0 37.921875h45.460938v11.269531c0 11.230469-9.132813 20.367188-20.371094 20.367188h-4.71875c-11.230469 0-20.371094-9.136719-20.371094-20.367188zm22.734375 203.886719c10.34375 0 18.734375-8.386719 18.734375-18.734375v-76.835938h32.757813v153.671875h-102.988281v-153.671875h32.753906v76.835938c0 10.347656 8.390625 18.734375 18.742187 18.734375zm-18.742187 251.660156h-32.753906v-156.085938h32.753906zm37.476562-127.816406v-28.265625h137.441406v28.265625zm0 0" fill="#8dc6e8"/><path d="m120.375 306.234375c-5.371094-3.445313-12.128906-3.921875-17.929688-1.257813l-73.519531 33.71875c-6.660156 3.058594-10.921875 9.707032-10.921875 17.03125v113.398438l-14.347656 14.347656c-7.320312 7.3125-7.320312 19.179688 0 26.492188 3.65625 3.660156 8.453125 5.488281 13.246094 5.488281 4.796875 0 9.589844-1.828125 13.25-5.488281l19.832031-19.828125c3.511719-3.515625 5.488281-8.28125 5.488281-13.246094v-109.140625l36.050782-16.539062v81.332031l-15.21875 13.554687c-7.730469 6.878906-8.414063 18.726563-1.535157 26.449219 6.878907 7.730469 18.722657 8.421875 26.449219 1.539063l21.5-19.144532c3.988281-3.554687 6.273438-8.648437 6.273438-13.988281v-118.945313c0-6.382812-3.246094-12.324218-8.617188-15.773437zm0 0" fill="#8dc6e8"/><path d="m573.671875 73.011719c-9.445313-35.261719-38.941406-48.003907-54.878906-49.96875-5.320313-.65625-10.683594 1.003906-14.703125 4.558593-4.023438 3.554688-6.328125 8.667969-6.328125 14.035157v112.152343l-16.390625 13.117188c-8.082032 6.457031-9.394532 18.25-2.929688 26.332031 3.703125 4.621094 9.144532 7.03125 14.644532 7.03125 4.105468 0 8.238281-1.34375 11.6875-4.101562l23.429687-18.742188c4.441406-3.554687 7.03125-8.933593 7.03125-14.628906v-86.195313c.878906 1.828126 1.640625 3.859376 2.242187 6.101563 2.675782 9.996094 12.949219 15.933594 22.941407 13.253906 9.996093-2.675781 15.933593-12.949219 13.253906-22.945312zm0 0" fill="#8dc6e8"/></svg>
