<?xml version="1.0" encoding="iso-8859-1"?>
<!-- Generator: Adobe Illustrator 19.0.0, SVG Export Plug-In . SVG Version: 6.00 Build 0)  -->
<svg xmlns="http://www.w3.org/2000/svg" xmlns:xlink="http://www.w3.org/1999/xlink" version="1.1" id="Capa_1" x="0px" y="0px" viewBox="0 0 512 512" style="enable-background:new 0 0 512 512;" xml:space="preserve" width="512px" height="512px">
<g>
	<g>
		<path d="M210,491.997c-5.52,0-10,4.49-10,10c0,5.52,4.48,10,10,10c5.51,0,10-4.48,10-10C220,496.488,215.51,491.997,210,491.997z" fill="#8dc6e8"/>
	</g>
</g>
<g>
	<g>
		<path d="M302,491.997c-5.52,0-10,4.49-10,10c0,5.52,4.48,10,10,10c5.51,0,10-4.48,10-10C312,496.488,307.51,491.997,302,491.997z" fill="#8dc6e8"/>
	</g>
</g>
<g>
	<g>
		<path d="M502,491.997h-30.45l-85.339-99.912c1.712-1.794,2.769-4.219,2.769-6.895v-40.707c0-5.523-4.477-10-10-10h-24.537    c-8.326-19.817-30.386-74.516-31.066-76.2v-42.636c0-5.523-4.477-10-10-10h-13.971c-1.417-5.376-3.126-12.492-4.263-17.55    C284.888,142.466,277.207,86.07,272.125,48.75c-1.619-11.885-3.017-22.149-4.123-29.26c-0.613-3.942-1.103-6.717-1.542-8.734    C264.908,3.619,261.276,0,255.668,0c-3.865,0-8.862,1.85-10.72,10.663c-0.403,1.913-0.854,4.546-1.418,8.287    c-1.018,6.745-2.309,16.513-3.805,27.825c-5.024,38-12.616,95.426-23.075,141.943c-1.071,4.764-2.713,11.663-4.085,16.93h-13.949    c-5.523,0-10,4.477-10,10v44.537c-0.692,1.672-22.702,54.866-31.021,74.3h-24.582c-5.523,0-10,4.477-10,10v40.707    c0,2.463,0.894,4.714,2.37,6.457l-85.714,100.35H10c-5.52,0-10,4.49-10,10c0,5.52,4.48,10,10,10h160c5.51,0,10-4.48,10-10    c0-5.51-4.49-10-10-10h-19.326c12.001-20.26,42.25-56.689,104.937-57.681c36.067,0.571,65.723,12.569,88.14,35.66    c7.605,7.834,13.07,15.704,16.796,22.021H342c-5.52,0-10,4.49-10,10c0,5.52,4.48,10,10,10h160c5.51,0,10-4.48,10-10    C512,496.488,507.51,491.997,502,491.997z M332.773,334.484h-33.735l-28.845-68.129h34.875    C305.795,268.156,324.576,314.725,332.773,334.484z M277.319,334.484h-42.773l20.89-51.684L277.319,334.484z M236.164,193.105    c8.321-37.006,14.816-80.455,19.678-115.982c4.929,35.16,11.513,78.538,19.789,115.36c0.025,0.112,1.456,6.465,3.126,13.165    h-45.556C234.743,199.408,236.065,193.543,236.164,193.105z M208.617,225.647h94.76v20.708h-94.76V225.647z M207.708,266.354    h32.803l-27.537,68.129h-33.643C187.512,315.163,206.796,268.556,207.708,266.354z M143.014,354.484H368.98v20.707H143.014    V354.484z M128.045,491.997H65.973l20.735-24.275h56.298C135.519,477.414,130.744,486.251,128.045,491.997z M349.238,447.721    c-19.207-16.451-49.304-32.745-93.478-33.405c-0.099-0.001-0.199-0.001-0.298,0c-44.175,0.66-74.272,16.954-93.479,33.405h-58.192    l44.87-52.531h213.9l44.869,52.531H349.238z M383.176,491.997c-2.698-5.747-7.474-14.585-14.961-24.275h56.298l20.735,24.275    H383.176z" fill="#8dc6e8"/>
	</g>
</g>
<g>
</g>
<g>
</g>
<g>
</g>
<g>
</g>
<g>
</g>
<g>
</g>
<g>
</g>
<g>
</g>
<g>
</g>
<g>
</g>
<g>
</g>
<g>
</g>
<g>
</g>
<g>
</g>
<g>
</g>
</svg>
