<?xml version="1.0" encoding="iso-8859-1"?>
<!-- Generator: Adobe Illustrator 19.0.0, SVG Export Plug-In . SVG Version: 6.00 Build 0)  -->
<svg xmlns="http://www.w3.org/2000/svg" xmlns:xlink="http://www.w3.org/1999/xlink" version="1.1" id="Layer_1" x="0px" y="0px" viewBox="0 0 511.997 511.997" style="enable-background:new 0 0 511.997 511.997;" xml:space="preserve" width="512px" height="512px">
<g>
	<g>
		<path d="M352.464,263.008c-2.168-6.739-3.047-12.807-2.613-18.035c0.386-4.627-3.053-8.689-7.679-9.074    c-4.637-0.384-8.689,3.054-9.074,7.679c-0.62,7.45,0.512,15.72,3.363,24.58c1.147,3.563,4.447,5.832,8,5.832    c0.853,0,1.721-0.131,2.577-0.407C351.458,272.162,353.886,267.427,352.464,263.008z" fill="#8dc6e8"/>
	</g>
</g>
<g>
	<g>
		<path d="M247.064,188.359c-3.139-17.637-13.928-33.003-31.203-44.433c-12.65-8.371-24.431-11.743-24.927-11.882    c-4.472-1.259-9.111,1.345-10.368,5.813c-1.259,4.468,1.345,9.111,5.813,10.368c0.383,0.109,38.456,11.176,44.133,43.08    c0.724,4.073,4.269,6.935,8.266,6.935c0.489,0,0.985-0.044,1.483-0.132C244.831,197.293,247.878,192.929,247.064,188.359z" fill="#8dc6e8"/>
	</g>
</g>
<g>
	<g>
		<path d="M483.28,175.377c-9.048-29.832-30.811-56.157-65.044-78.145C375.635,69.87,300.95,77.25,251.528,82.135    c-5.216,0.516-10.135,1.002-14.684,1.412c-39.466,3.568-64.234,20.688-72.905,27.73c-11.339-1.974-43.267-6.394-69.107,0.925    c-24.959,7.07-33.22,31.38-34.599,47.354c-6.547,4.169-14.648,14.816-20.756,40.765c-0.351,1.487-0.74,3.121-1.161,4.893    c-3.83,16.078-9.812,41.208-13.848,68.979c-11.306,6.426-19.851,11.05-20.055,11.16c-3.255,1.757-4.978,5.436-4.245,9.061    c0.733,3.626,3.749,6.346,7.431,6.701c4.058,0.392,8.074,0.566,12.018,0.566c0.567,0,1.13-0.01,1.693-0.018    c-3.816,46.703,0.957,94.934,31.799,117.428c16.074,11.722,29.275,15.496,39.609,15.496c12.429,0,20.712-5.458,24.855-9.106    c13.053-11.493,17.321-32.382,9.514-46.563c-1.929-3.502-6.058-5.164-9.875-3.969l-16.787,5.254    c-3.659,1.145-6.08,4.623-5.884,8.453c0.099,1.925-0.476,5.599-1.568,6.748c-0.052,0.055-0.133,0.14-0.517,0.168    c-0.889-0.214-5.786-1.686-10.443-8.76c-14.987-22.768-6.925-68.892,0.219-97.41c12.587-3.213,42.842-12.601,54.76-30.951    l9.679-1.081c4.513,9.445,9.002,13.238,12.648,15.267c3.831,2.131,8.416,3.192,13.545,3.192c4.26,0,8.902-0.749,13.792-2.209    L200,390.585c-24.452,18.603-19.958,35.104-19.332,37.013c1.133,3.451,4.354,5.783,7.985,5.783h67.22    c4.642,0,8.406-3.763,8.406-8.406v-80.174c3.692-8.105,7.372-17.734,10.81-27.586c19.58,5.542,36.89,7.399,51.276,7.399    c18.625,0,32.347-3.102,39.777-5.318c4.811,6.04,8.972,10.723,11.442,13.414v60.321c-12.322,12.397-18.859,28.031-19.15,28.737    c-1.069,2.593-0.776,5.55,0.785,7.881c1.56,2.331,4.18,3.731,6.986,3.731h74.196c2.595,0,5.043-1.198,6.635-3.246    c1.593-2.048,2.15-4.716,1.512-7.231c-0.161-0.632-15.631-64.235,23.218-147.766c8.282-17.809,13.395-34.962,15.38-51.363    c4.657,18.984,8.389,46.882,8.017,87.281c-0.043,4.642,3.686,8.44,8.327,8.483c0.027,0,0.053,0,0.08,0    c4.605,0,8.362-3.713,8.403-8.328C512.863,214.935,490.932,183.422,483.28,175.377z M92.178,412.392    c5.133,0,9.623-1.871,12.985-5.409c3.543-3.729,5.086-8.532,5.74-12.443l3.249-1.018c0.494,6.424-1.903,14.246-7.69,19.341    c-9.605,8.458-25.442,5.776-43.447-7.355c-19.537-14.248-28.122-45.596-25.517-93.171c0.217-3.968,0.509-7.939,0.86-11.898    c9.755-1.255,18.43-3.28,25.214-5.208c-13.575,60.511-4.312,89.724,6.432,103.675C78.2,409.552,87.798,412.392,92.178,412.392z     M80.227,269.075c-0.245,1.345-2.404,3.47-7.723,5.404c-0.002,0.001-0.006,0.002-0.008,0.003    c-0.002,0.001-0.003,0.001-0.006,0.002c-0.132,0.048-0.272,0.103-0.401,0.157c-0.188,0.08-11.971,4.968-28.499,7.955    c11.513-6.713,24.039-14.322,33.495-20.866C79.073,264.367,80.566,267.225,80.227,269.075z M456.524,268.05    c-32.389,69.639-29.366,126.006-26.192,148.52h-50.059c2.877-4.476,6.691-9.511,11.338-13.687    c1.774-1.594,2.787-3.867,2.787-6.252v-67.246c0-2.187-0.854-4.289-2.377-5.858c-0.179-0.185-18.129-18.78-30.607-40.782    c-2.291-4.039-7.423-5.456-11.459-3.165c-4.038,2.29-5.456,7.421-3.165,11.459c2.703,4.765,5.614,9.353,8.548,13.651    c-13.801,3.075-40.409,6.128-74.919-3.456c7.171-22.436,12.371-42.334,12.732-43.723c1.168-4.493-1.526-9.083-6.02-10.25    c-4.494-1.17-9.081,1.528-10.25,6.02c-0.147,0.563-14.796,56.609-28.617,86.109c-0.523,1.116-0.793,2.335-0.793,3.566v73.616    h-48.999c1.984-3.766,6.212-9.002,15.166-15.088c2.583-1.756,3.98-4.8,3.626-7.905l-14.486-126.961    c17.857-10.107,36.132-28.133,42.77-50.628c1.314-4.453-1.231-9.127-5.683-10.441c-4.454-1.315-9.126,1.229-10.441,5.683    c-6.249,21.177-26.551,37.958-42.769,44.588c-9.77,3.993-16.306,3.718-19.164,2.127c-1.57-0.874-9.743-7.325-16.419-48.638    c-3.729-23.076-4.983-45.132-4.996-45.351c-0.257-4.634-4.213-8.173-8.858-7.927c-4.634,0.257-8.184,4.223-7.927,8.857    c0.052,0.93,1.305,23.043,5.164,46.974c1.932,11.985,4.058,21.559,6.268,29.26l-9.91,1.108c-2.957,0.331-5.519,2.2-6.736,4.914    c-3.523,7.857-14.953,14.719-27.079,19.713c-1.029-11.83-12.003-21.482-13.418-22.68c-3.013-2.551-7.395-2.662-10.532-0.267    c-7.2,5.496-18.456,12.592-29.785,19.354c3.737-21.947,8.343-41.296,11.406-54.154c0.425-1.788,0.818-3.436,1.171-4.937    c5.803-24.651,12.27-29.612,13.478-30.344c1.801-0.194,3.508-0.973,4.853-2.229c1.745-1.63,2.713-3.939,2.665-6.327    c-0.001-0.081-0.129-8.226,2.92-16.971c3.686-10.571,10.299-17.275,19.657-19.925c27.272-7.727,64.84,0.056,65.212,0.134    c2.73,0.577,5.589-0.255,7.599-2.189c0.231-0.221,23.492-22.177,66.132-26.033c4.592-0.416,9.558-0.906,14.823-1.426    c47.102-4.656,118.288-11.689,155.969,12.513C470.584,150.835,486.522,203.548,456.524,268.05z" fill="#8dc6e8"/>
	</g>
</g>
<g>
	<g>
		<path d="M88.467,195.232c-5.383,0-9.762,4.371-9.762,9.744s4.379,9.744,9.762,9.744c5.383,0,9.762-4.371,9.762-9.744    C98.229,199.604,93.85,195.232,88.467,195.232z" fill="#8dc6e8"/>
	</g>
</g>
<g>
</g>
<g>
</g>
<g>
</g>
<g>
</g>
<g>
</g>
<g>
</g>
<g>
</g>
<g>
</g>
<g>
</g>
<g>
</g>
<g>
</g>
<g>
</g>
<g>
</g>
<g>
</g>
<g>
</g>
</svg>
