<?xml version="1.0" encoding="iso-8859-1"?>
<!-- Generator: Adobe Illustrator 19.0.0, SVG Export Plug-In . SVG Version: 6.00 Build 0)  -->
<svg xmlns="http://www.w3.org/2000/svg" xmlns:xlink="http://www.w3.org/1999/xlink" version="1.1" id="Capa_1" x="0px" y="0px" viewBox="0 0 511.999 511.999" style="enable-background:new 0 0 511.999 511.999;" xml:space="preserve" width="512px" height="512px">
<g>
	<g>
		<path d="M508.129,305.943c-1.155-1.278-28.809-31.661-73.431-62.307C375.034,202.658,313.241,181,256,181    c-57.241,0-119.034,21.659-178.698,62.635c-44.623,30.646-72.276,61.029-73.431,62.307c-5.161,5.711-5.161,14.404,0,20.115    c1.155,1.278,28.809,31.661,73.431,62.307C136.966,429.341,198.759,451,256,451c57.241,0,119.034-21.659,178.698-62.635    c44.622-30.646,72.275-61.029,73.431-62.307C513.29,320.347,513.29,311.654,508.129,305.943z M145.484,393.44    c-19.249-9.239-36.38-19.665-50.595-29.392c-26.893-18.403-47.485-37.004-58.854-48.042C47.114,305.267,66.969,287.35,93,269.33    c15.496-10.728,33.181-21.493,52.506-30.802C130.074,260.472,121,287.195,121,316C121,344.792,130.065,371.502,145.484,393.44z     M256,421c-57.85,0-105-47.062-105-105c0-57.897,47.103-105,105-105c57.85,0,105,47.062,105,105C361,373.897,313.897,421,256,421z     M417,364.046c-15.012,10.269-32.007,20.514-50.506,29.426C381.926,371.528,391,344.805,391,316    c0-28.792-9.065-55.502-24.484-77.44c19.249,9.239,36.38,19.665,50.595,29.392c26.89,18.401,47.483,37.001,58.854,48.042    C464.604,327.006,444.014,345.566,417,364.046z" fill="#8dc6e8"/>
	</g>
</g>
<g>
	<g>
		<path d="M256,301c-8.271,0-15-6.729-15-15c0-6.042,3.596-11.468,9.159-13.825c6.717-2.844,14.755-0.417,22.059,6.659    c5.951,5.765,15.445,5.614,21.211-0.335c5.764-5.95,5.614-15.446-0.336-21.21c-6.771-6.561-14.3-11.198-22.093-13.815V226    c0-8.284-6.716-15-15-15s-15,6.716-15,15v17.571c-18.373,6.537-30,23.651-30,42.429c0,24.813,20.187,45,45,45    c8.271,0,15,6.729,15,15c0,6.286-3.965,11.953-9.866,14.103c-7.7,2.806-16.674-0.999-24.606-10.444    c-5.327-6.343-14.788-7.167-21.134-1.839c-6.344,5.328-7.167,14.79-1.839,21.134c8.109,9.654,17.549,16.275,27.445,19.608V406    c0,8.284,6.716,15,15,15s15-6.716,15-15v-17.573c0.134-0.047,0.268-0.088,0.401-0.136C289.105,381.843,301,364.847,301,346    C301,321.187,280.813,301,256,301z" fill="#8dc6e8"/>
	</g>
</g>
<g>
	<g>
		<path d="M84.32,183.519l-45-30c-6.893-4.594-16.207-2.732-20.801,4.161c-4.596,6.893-2.733,16.206,4.16,20.801l45,30    c6.897,4.597,16.209,2.729,20.801-4.161C93.076,197.427,91.213,188.114,84.32,183.519z" fill="#8dc6e8"/>
	</g>
</g>
<g>
	<g>
		<path d="M493.48,157.68c-4.595-6.893-13.908-8.754-20.801-4.161l-45,30c-6.894,4.596-8.756,13.909-4.16,20.801    c4.6,6.899,13.915,8.752,20.801,4.161l45-30C496.214,173.885,498.076,164.572,493.48,157.68z" fill="#8dc6e8"/>
	</g>
</g>
<g>
	<g>
		<path d="M256,61c-8.284,0-15,6.716-15,15v60c0,8.284,6.716,15,15,15s15-6.716,15-15V76C271,67.716,264.284,61,256,61z" fill="#8dc6e8"/>
	</g>
</g>
<g>
	<g>
		<path d="M178.48,142.68l-30-45c-4.595-6.894-13.908-8.755-20.801-4.161c-6.894,4.596-8.756,13.909-4.16,20.801l30,45    c4.6,6.899,13.915,8.752,20.801,4.161C181.214,158.885,183.076,149.572,178.48,142.68z" fill="#8dc6e8"/>
	</g>
</g>
<g>
	<g>
		<path d="M384.32,93.519c-6.893-4.594-16.206-2.733-20.801,4.161l-30,45c-4.596,6.893-2.733,16.206,4.16,20.801    c6.898,4.597,16.209,2.728,20.801-4.161l30-45C393.076,107.427,391.213,98.114,384.32,93.519z" fill="#8dc6e8"/>
	</g>
</g>
<g>
</g>
<g>
</g>
<g>
</g>
<g>
</g>
<g>
</g>
<g>
</g>
<g>
</g>
<g>
</g>
<g>
</g>
<g>
</g>
<g>
</g>
<g>
</g>
<g>
</g>
<g>
</g>
<g>
</g>
</svg>
