<?xml version="1.0" encoding="iso-8859-1"?>
<!-- Generator: Adobe Illustrator 19.0.0, SVG Export Plug-In . SVG Version: 6.00 Build 0)  -->
<svg xmlns="http://www.w3.org/2000/svg" xmlns:xlink="http://www.w3.org/1999/xlink" version="1.1" id="Capa_1" x="0px" y="0px" viewBox="0 0 512 512" style="enable-background:new 0 0 512 512;" xml:space="preserve" width="512px" height="512px">
<g>
	<g>
		<path d="M319.465,299.222c-3.272-12.083-12.473-21.685-16.278-25.254c-17.632-16.53-44.415-26.777-61.993-30.529l-1.818-0.394    c-11.514-2.516-32.942-7.199-41.868,5.801c-3.101,4.518-6.727,13.982,3.836,26.598c4.708,5.624,10.811,10.353,15.268,13.806    c1.03,0.798,1.949,1.509,2.699,2.12c6.764,5.516,14.203,10.35,22.111,14.371c18.232,9.27,39.509,14.165,61.553,14.165    c0.1,0,0.203,0,0.303,0c5.221-0.011,10.227-2.489,13.391-6.631C319.766,309.22,320.785,304.098,319.465,299.222z M304.735,304.161    c-0.13,0.171-0.623,0.727-1.487,0.729c-19.764,0.019-38.813-4.293-55.022-12.534c-6.956-3.536-13.491-7.783-19.426-12.622    c-0.831-0.678-1.85-1.469-2.993-2.354c-3.917-3.035-9.281-7.191-12.951-11.575c-4.823-5.76-3.475-7.722-2.969-8.46    c2.129-3.101,10.972-2.977,26.282,0.369l1.89,0.411c16.933,3.614,40.462,13.301,54.857,26.797    c5.976,5.605,10.482,12.417,12.055,18.224C305.01,303.289,305.112,303.667,304.735,304.161z" fill="#8dc6e8"/>
	</g>
</g>
<g>
	<g>
		<path d="M489.36,282.283c-1.145-1.217-1.145-3.351,0-4.567c17.927-19.048,21.87-52.317,22.624-70.452    c0.234-5.633-2.037-11.024-6.232-14.79c-4.143-3.72-9.665-5.376-15.147-4.558c-8.248,1.24-18.888,4.517-28.463,8.766    c-3.79,1.682-5.499,6.119-3.816,9.909c1.683,3.791,6.118,5.497,9.909,3.817c6.495-2.884,16.369-6.405,24.601-7.642    c1.415-0.219,2.416,0.46,2.885,0.882c0.848,0.762,1.308,1.853,1.26,2.992c-0.667,16.047-3.965,45.283-18.555,60.784    c-6.526,6.933-6.526,18.216,0,25.151c14.59,15.501,17.888,44.736,18.555,60.784c0.047,1.14-0.412,2.231-1.26,2.992    c-0.469,0.42-1.466,1.099-2.885,0.882c-50.933-7.653-86.046-63.112-94.222-77.235c4.29-7.42,14.555-23.802,29.936-39.855    c2.869-2.994,2.767-7.747-0.227-10.615c-2.994-2.871-7.747-2.768-10.616,0.227c-4.4,4.593-8.41,9.211-12.013,13.667    c-16.807-22.614-38.981-40.799-65.806-53.97c-14.686-24.051-37.225-42.632-67.074-55.216    c-25.258-10.65-50.488-14.737-67.207-16.289c-13.654-1.271-26.964,5.563-33.904,17.406l-22.155,37.797    c-41.86,10.461-76.758,30.61-101.685,58.723c-5.417-2.814-11.529-4.058-17.778-3.546c-15.773,1.288-28.355,13.644-29.917,29.378    c-0.804,8.092,1.306,15.903,5.881,22.293c-4.574,6.39-6.684,14.199-5.882,22.289c1.56,15.735,14.141,28.093,29.913,29.383    c6.25,0.514,12.361-0.73,17.779-3.545c30.528,34.489,70.52,51.226,104.19,59.298c0.385,0.128,0.775,0.219,1.167,0.283    c15.33,3.6,29.3,5.41,40.395,6.292c4.128,0.313,7.751-2.756,8.079-6.889c0.328-4.134-2.756-7.751-6.89-8.08    c-8.401-0.668-18.565-1.904-29.721-4.116c13.194-32.025,16.899-73.817,10.995-124.436c-3.407-29.217-9.155-53.335-12.291-65.156    c32.371-6.565,57.581-4.95,57.834-4.932c0.349,0.025,0.698,0.025,1.047,0c0.336-0.025,34.313-2.237,74.455,8.911    c23.443,6.51,44.262,16.238,61.88,28.916c14.641,10.535,27.09,23.178,37.239,37.731c-5.527,7.847-9.376,14.31-11.406,17.9    c-2.147,3.795-2.147,8.509,0,12.304c1.829,3.233,5.698,9.76,11.417,17.849c-16.088,22.939-38.067,41.056-65.632,54.018    c-31.008,14.58-62.544,19.573-83.539,21.193c-4.134,0.319-7.227,3.929-6.908,8.063c0.304,3.938,3.593,6.93,7.477,6.93    c0.194,0,0.39-0.007,0.586-0.023c22.247-1.717,55.707-7.027,88.774-22.575c28.443-13.375,51.434-31.851,68.717-55.092    c18.434,22.736,47.662,49.977,84.879,55.568c0.922,0.139,1.845,0.206,2.763,0.206c4.538,0,8.938-1.67,12.384-4.764    c4.195-3.766,6.466-9.157,6.232-14.79C511.229,334.598,507.287,301.33,489.36,282.283z M150.217,371.485    c-31.705-8.37-68.215-25.035-95.142-58.052c-1.278-1.568-3.136-2.554-5.151-2.733c-2.013-0.176-4.017,0.461-5.553,1.778    c-3.638,3.117-8.28,4.613-13.065,4.228c-8.402-0.688-15.365-7.524-16.195-15.9c-0.575-5.797,1.6-11.327,5.967-15.172    c1.618-1.425,2.546-3.478,2.546-5.635c0-2.157-0.927-4.21-2.546-5.635c-4.367-3.846-6.543-9.377-5.966-15.174    c0.831-8.376,7.795-15.211,16.197-15.897c4.786-0.386,9.426,1.111,13.062,4.228c1.536,1.317,3.535,1.956,5.554,1.778    c2.015-0.18,3.873-1.166,5.151-2.733c27.264-33.433,64.4-49.787,94.067-57.79C155.995,214.767,177.519,308.586,150.217,371.485z     M285.19,170.714c-16.223-3.553-37.516-6.659-62.388-6.659c-16.368,0-34.292,1.347-53.328,4.795l15.184-25.905    c4.006-6.834,11.69-10.773,19.561-10.048c15.665,1.455,39.27,5.268,62.762,15.173c18.183,7.667,33.317,17.717,45.236,30.013    C304.663,175.59,295.594,172.993,285.19,170.714z" fill="#8dc6e8"/>
	</g>
</g>
<g>
	<g>
		<path d="M119.121,236.547c-1.301-6.018-6.03-10.747-12.048-12.048c-12.21-2.64-22.743,8.66-18.703,21.003    c1.504,4.595,5.154,8.244,9.748,9.748C110.461,259.289,121.761,248.757,119.121,236.547z" fill="#8dc6e8"/>
	</g>
</g>
<g>
</g>
<g>
</g>
<g>
</g>
<g>
</g>
<g>
</g>
<g>
</g>
<g>
</g>
<g>
</g>
<g>
</g>
<g>
</g>
<g>
</g>
<g>
</g>
<g>
</g>
<g>
</g>
<g>
</g>
</svg>
