<?xml version="1.0"?>
<svg xmlns="http://www.w3.org/2000/svg" height="512px" viewBox="-24 0 511 511.99943" width="512px"><path d="m187.179688 209.738281c14.550781 0 26.386718-11.835937 26.386718-26.386719 0-14.546874-11.835937-26.382812-26.386718-26.382812-14.546876 0-26.382813 11.835938-26.382813 26.382812 0 14.550782 11.835937 26.386719 26.382813 26.386719zm0-37.703125c6.242187 0 11.320312 5.078125 11.320312 11.320313 0 6.238281-5.078125 11.316406-11.320312 11.316406-6.238282 0-11.316407-5.078125-11.316407-11.316406 0-6.242188 5.078125-11.320313 11.316407-11.320313zm0 0" fill="#8dc6e8"/><path d="m381.996094 144.222656c-14.136719 0-25.636719 11.5-25.636719 25.636719s11.5 25.640625 25.636719 25.640625c14.136718 0 25.640625-11.503906 25.640625-25.640625s-11.503907-25.636719-25.640625-25.636719zm0 36.210938c-5.828125 0-10.570313-4.742188-10.570313-10.570313 0-5.832031 4.742188-10.574219 10.570313-10.574219 5.832031 0 10.574218 4.742188 10.574218 10.574219 0 5.828125-4.742187 10.570313-10.574218 10.570313zm0 0" fill="#8dc6e8"/><path d="m462.738281 163.09375c0-21.433594-16.582031-39.058594-37.582031-40.746094-1.90625-11.238281-8.414062-20.921875-17.503906-27.046875 29.535156-18.230469 18.730468-62.8125-14.90625-66.335937-6.414063-32.839844-50.585938-39.699219-66.65625-10.496094-21.789063-2.957031-40.824219 14.015625-40.824219 35.5625v.171875c-11.75.050781-22.539063 5.042969-30.058594 13.316406-3.214843-18.066406-18.339843-32.054687-36.941406-33.554687-6.566406-38.679688-58.554687-46.496094-76.507813-12.121094-23.277343-3.714844-44.25 12.78125-47.0625 35.253906-18.066406-4.894531-37.796874 3.199219-46.8125 20.488282-2.148437-.34375-4.316406-.523438-6.507812-.523438-7.5625 0-14.941406 2.078125-21.351562 6.015625-3.542969 2.179687-4.660157 6.808594-2.488282 10.363281 2.179688 3.546875 6.816406 4.652344 10.363282 2.480469 6.574218-4.039063 14.667968-4.902344 21.953124-2.359375 4 1.382812 8.351563-.777344 9.652344-4.832031 3.425782-10.746094 13.308594-17.964844 24.597656-17.964844 4.308594 0 8.363282 1.0625 11.941407 2.941406 8.234375 4.308594 13.867187 12.945313 13.867187 22.867188.023438.101562-.570312 4.394531 3.296875 6.972656 2.847657 1.933594 5.101563 1.082031 7.882813 1.082031 10.917968 0 20.265625 6.8125 24.03125 16.414063-8.394532.109375-16.21875 2.679687-22.757813 7.027343-4.238281 2.8125-7.933593 6.367188-10.914062 10.484376-11.3125 15.617187-10.4375 36.53125 1.273437 51.160156-1.988281 3.40625-3.484375 7.070312-4.449218 10.886718-13.125 7.070313-30.199219 1.65625-36.175782-13.183593-1.871094-4.714844-7.699218-6.1875-11.589844-3.175781-16.847656 12.953124-41.558593 1.011718-41.558593-20.449219 0-6.042969 2.019531-11.699219 5.847656-16.367188 2.550781-3.105469 2.21875-7.652343-.753906-10.355469-6.191407-5.617187-9.300781-13.910156-8.308594-22.175781.492187-4.136719-2.46875-7.882812-6.597656-8.367187-4.136719-.472656-7.871094 2.472656-8.363281 6.609375-1.292969 11.332031 2.082031 22.019531 8.585937 30.21875-3.566406 6.179687-5.472656 13.238281-5.472656 20.4375 0 30.070312 31.453125 49.695312 58.328125 36.980469 3.183594 4.730468 7.273437 8.679687 11.992187 11.660156v37.351562c0 76.476563 56.726563 139.945313 130.308594 150.570313-11.925781 8.230469-23.179687 18.867187-33.640625 31.851562-2.609375 3.238281-2.097656 7.980469 1.140625 10.589844s7.980469 2.097656 10.59375-1.140625c14.894531-18.496094 31.371094-31.679688 49.007813-39.230469 41.527343 17.78125 67.859374 63.066407 81.761718 94.507813h-163.535156c4.925781-11.179688 10.347656-21.703125 16.175781-31.386719 2.144531-3.5625.996094-8.191406-2.566406-10.335937-3.566406-2.148438-8.195313-.996094-10.339844 2.566406-8.011719 13.3125-15.277343 28.078125-21.59375 43.898437-1.972656 4.9375 1.667969 10.324219 6.996094 10.324219h186.199219c5.320312 0 8.96875-5.378906 6.996094-10.324219-11.488282-28.765625-35.402344-76.394531-75.21875-102.789062 47.578124-9.640625 88.542968-41.6875 108.828124-87.074219 14.640626-32.734375 13.054688-63.535156 13.175782-64.75 5.554687 2.792969 11.808594 4.320312 18.347656 4.320312 26.335938 0 45.769531-24.613281 39.820312-50.195312 15.339844-6.019531 26.074219-21.101562 26.074219-38.09375zm-134.730469-128.734375c4.03125 1.390625 8.359376-.8125 9.652344-4.832031 2.761719-8.675782 10.738282-14.503906 19.855469-14.503906 11.480469 0 20.828125 9.351562 20.828125 20.832031l-.007812.460937c-.105469 4.527344 3.804687 8.140625 8.355468 7.652344 12.101563-1.414062 23.121094 8.171875 23.121094 20.699219 0 10.214843-7.59375 19.074219-17.667969 20.597656-2.046875.3125-3.867187 1.457031-5.03125 3.136719-12.828125-.695313-25.128906 4.558594-33.382812 14.289062-6.839844-8.144531-16.792969-13.585937-28-14.492187-2.410157-14.171875-12.144531-25.878907-25.160157-31.082031-2.417968-15.265626 12.621094-27.945313 27.4375-22.757813zm-76.175781 57.886719c3.800781.96875 7.773438-1.171875 9.007813-5.011719 6.648437-20.859375 34.410156-24.332031 46.210937-6.234375 6.894531 10.484375 1.761719 15.898438 6.617188 20.355469 3.042969 2.78125 6.015625 1.777343 8.757812 1.777343 16.621094 0 28.910157 15.554688 25.148438 31.636719-2.371094 10.054688-10.707031 18.097657-21.222657 19.695313-4.78125.730468-7.578124 5.652344-5.933593 10.054687.898437 2.589844 6.921875 13.238281-1.398438 25.933594-11.480469 17.53125-37.847656 14.855469-45.574219-4.542969-.601562-1.488281-1.648437-2.730468-2.964843-3.554687 1.445312-9.46875-.5-19.734375-6.027344-28.507813 16.019531 16.007813 43.753906 4.785156 43.753906-18.125 0-14.136718-11.5-25.640625-25.636719-25.640625-14.136718 0-25.640624 11.503907-25.640624 25.640625 0 4.515625 1.179687 8.757813 3.238281 12.445313-7.082031-7.914063-17.089844-13.164063-28.3125-14-1.53125-9.289063-6.25-18.242188-13.917969-24.925781 2.324219-7.996094 8.335938-14.289063 15.976562-17.066407 8.847657-3.230469 15.585938-.457031 17.917969.070313zm20.164063 43.472656c0-5.828125 4.742187-10.570312 10.574218-10.570312 5.828126 0 10.574219 4.742187 10.574219 10.570312 0 5.832031-4.746093 10.574219-10.574219 10.574219-5.832031 0-10.574218-4.742188-10.574218-10.574219zm-147.601563-46.011719c-1.71875-10.105469-7.152343-18.953125-14.835937-25.089843-1.847656-18.472657 16.363281-33.011719 34.167968-26.792969 4 1.378906 8.347657-.777344 9.652344-4.832031 3.425782-10.746094 13.304688-17.96875 24.59375-17.96875 14.230469 0 25.8125 11.582031 25.8125 25.8125l-.011718.5625c-.105469 4.585937 3.847656 8.15625 8.347656 7.652343 15.808594-1.628906 28.664062 10.699219 28.664062 25.660157 0 .300781-.011718.601562-.019531.90625-16.382813.773437-30.273437 11.226562-36.046875 25.757812-3.4375-1.261719-7.085938-2.089844-10.875-2.417969 4.277344-4.582031 6.902344-10.726562 6.902344-17.476562 0-14.136719-11.5-25.636719-25.636719-25.636719s-25.640625 11.5-25.640625 25.636719c0 11.261719 7.296875 20.839843 17.410156 24.277343-3.214844 2.117188-6.136718 4.664063-8.671875 7.589844-6.035156-13.074218-18.789062-22.4375-33.8125-23.640625zm61.285157-8.226562c0 5.832031-4.742188 10.574219-10.570313 10.574219-5.832031 0-10.574219-4.742188-10.574219-10.574219 0-5.828125 4.742188-10.570313 10.574219-10.570313 5.828125 0 10.570313 4.742188 10.570313 10.570313zm-31.066407 56.121093c3.957031 1.386719 8.324219-.753906 9.652344-4.820312 7.710937-23.679688 39.96875-25.433594 50.457031-3.394531 3.070313 6.410156 2.597656 12.128906 2.609375 12.253906-.105469 4.605469 3.949219 8.136719 8.347657 7.640625 16.394531-1.765625 30.1875 11.101562 30.1875 27.015625 0 13.3125-9.902344 24.882813-23.058594 26.878906-2.359375.359375-4.417969 1.816407-5.53125 3.933594-3.089844 5.84375 2.550781 7.503906 2.550781 18.5625 0 14.984375-12.195313 27.175781-27.1875 27.175781-11.1875 0-21.101563-6.71875-25.25-17.125-1.867187-4.628906-7.617187-6.226562-11.597656-3.171875-4.792969 3.707031-10.527344 5.652344-16.582031 5.652344-22.976563 0-35.464844-26.828125-21.019532-44.417969 2.539063-3.105468 2.207032-7.664062-.765625-10.355468-5.601562-5.082032-8.925781-12.449219-8.925781-20.148438 0-18.5625 18.375-31.8125 36.113281-25.679688zm-65.339843 80.578126c5.847656.976562 12.136718.707031 18.136718-1.035157 1.019532 7.03125 3.78125 13.507813 7.832032 18.972657l-25.96875-6.921876zm264.761718 81.589843-26.378906-7.03125c-4.015625-1.074219-8.144531 1.316407-9.21875 5.332031-1.0625 4.027344 1.324219 8.144532 5.34375 9.222657l23.878906 6.367187c-22.765625 43.175782-67.035156 71.191406-115.980468 73.09375-.195313 0-.390626.007813-.585938.023438-77.402344 2.675781-141.824219-59.539063-141.824219-136.992188v-5l205.394531 54.742188c4.019532 1.074218 8.144532-1.316406 9.21875-5.332032 1.078126-4.019531-1.3125-8.144531-5.339843-9.21875l-78.367188-20.890624c18.175781-8.324219 28.308594-28.371094 23.558594-48.308594 8.257813-3.183594 15.246094-8.898438 20.066406-16.128906 10.300781 14.953124 28.933594 20.890624 45.558594 15.808593 6.847656 12.984375 20.496094 21.851563 36.164063 21.851563 6.136718 0 12.042968-1.335938 17.457031-3.894532.148437.21875.300781.441407.449219.652344-.019532 24.976563.542968 40.382813-9.394532 65.703125zm71.746094-111.167969c-2.371094.363282-4.421875 1.816407-5.535156 3.9375-3.074219 5.816407 2.410156 7.332032 2.410156 17.964844 0 14.234375-11.578125 25.8125-25.8125 25.8125-7.078125 0-13.605469-2.832031-18.347656-7.640625-6.65625-6.742187-4.691406-11.476562-10.636719-13.097656-7.199219-1.992187-8.199219 6.667969-22.335937 6.667969-9.890626 0-18.5-5.59375-22.828126-13.789063 12.609376-9.953125 18.101563-26.074219 14.542969-41.417969 19.171875-7.527343 30.414063-28.722656 24.507813-49.3125 7.796875-15.800781 28.929687-19.207031 41.355468-6.75 8.363282 8.347657 7.53125 18.644532 7.5625 18.800782-.105468 4.589844 3.847657 8.15625 8.347657 7.652344 15.808593-1.628907 28.660156 10.703124 28.660156 25.664062 0 12.640625-9.417969 23.621094-21.890625 25.507812zm0 0" fill="#8dc6e8"/><path d="m355.074219 93.367188c12.644531 0 22.933593-10.289063 22.933593-22.933594 0-12.648438-10.289062-22.933594-22.933593-22.933594-12.648438 0-22.933594 10.285156-22.933594 22.933594 0 12.644531 10.289063 22.933594 22.933594 22.933594zm0-30.800782c4.339843 0 7.871093 3.53125 7.871093 7.867188 0 4.339844-3.53125 7.871094-7.871093 7.871094-4.339844 0-7.871094-3.53125-7.871094-7.871094 0-4.335938 3.53125-7.867188 7.871094-7.867188zm0 0" fill="#8dc6e8"/><path d="m81.230469 162.859375c14.136719 0 25.640625-11.5 25.640625-25.636719 0-14.136718-11.503906-25.640625-25.640625-25.640625s-25.636719 11.5-25.636719 25.640625c0 14.136719 11.5 25.636719 25.636719 25.636719zm0-36.210937c5.832031 0 10.574219 4.742187 10.574219 10.570312 0 5.832031-4.742188 10.574219-10.574219 10.574219-5.828125 0-10.570313-4.742188-10.570313-10.574219 0-5.828125 4.742188-10.570312 10.570313-10.570312zm0 0" fill="#8dc6e8"/></svg>
