<?xml version="1.0"?>
<svg xmlns="http://www.w3.org/2000/svg" height="512px" viewBox="-52 1 511 511.999" width="512px" class=""><g transform="matrix(1 0 0 -1 0 512.999)"><path d="m400.039062 234.207031c4.320313-6.636719 6.660157-14.40625 6.660157-22.4375 0-2.4375-.214844-4.878906-.640625-7.261719-.011719-.0625-.03125-.117187-.042969-.179687.007813-.632813.011719-1.265625.011719-1.898437 0-48.613282-17.558594-95.644532-49.441406-132.429688-2.710938-3.132812-7.449219-3.46875-10.578126-.757812-3.132812 2.714843-3.46875 7.453124-.757812 10.582031 28.558594 32.949219 44.703125 74.769531 45.726562 118.207031-12.082031.648438-39.171874.929688-69.296874-6.414062-53.503907-13.042969-90.925782-42.792969-111.226563-88.425782-1.207031-2.707031-3.890625-4.449218-6.855469-4.449218-2.960937 0-5.648437 1.742187-6.851562 4.449218-20.300782 45.632813-57.726563 75.386719-111.230469 88.425782-30.128906 7.34375-57.214844 7.0625-69.296875 6.414062 2.347656-101.328125 85.5-183.03125 187.378906-183.03125 44.992188 0 88.527344 16.25 122.582032 45.757812 3.128906 2.710938 7.867187 2.375 10.578124-.757812 2.714844-3.132812 2.375-7.867188-.757812-10.582031-36.777344-31.867188-83.800781-49.417969-132.402344-49.417969-111.621094 0-202.429687 90.808594-202.429687 202.429688 0 .640624.007812 1.28125.011719 1.917968-.441407 2.441406-.679688 4.929688-.679688 7.421875 0 8.015625 2.339844 15.804688 6.660156 22.449219-4.21875 6.253906-6.660156 13.769531-6.660156 21.78125 0 9.363281 3.324219 17.96875 8.859375 24.691406-4.757813 19.109375-9.042969 46.601563-4.746094 74.808594 5.167969 33.925781 21.304688 61.007812 47.984375 80.59375-9.539062 21.097656-14.671875 44.3125-14.671875 68.40625 0 4.140625 3.355469 7.5 7.5 7.5h316.347657c4.140624 0 7.5-3.359375 7.5-7.5 0-23.636719-5.074219-46.992188-14.742188-68.355469 26.613281-19.511719 42.753906-46.480469 47.992188-80.25 4.402343-28.378906.078124-56.074219-4.683594-75.203125 5.53125-6.722656 8.859375-15.328125 8.859375-24.695312 0-8.015625-2.441407-15.535156-6.660157-21.789063zm-21.910156.207031c2.507813 1.203126 4.757813 2.820313 6.671875 4.761719.109375.125.222657.25.339844.371094 4.082031 4.316406 6.554687 10.125 6.554687 16.453125 0 13.191406-10.730468 23.925781-23.925781 23.925781-1.480469 0-2.933593-.132812-4.355469-.394531 6.894532-14.25 11.851563-29.402344 14.714844-45.117188zm13.507813-21.378906c-.171875 3.609375-1.058594 7.117188-2.636719 10.3125-2.695312-1.753906-5.636719-3.179687-8.769531-4.230468.179687-1.910157.328125-3.828126.449219-5.75 4.324218-.03125 8.019531-.167969 10.957031-.332032zm-376.136719 42.964844c0-9.410156 5.457031-17.71875 13.609375-21.601562 2.882813 15.632812 7.855469 30.824218 14.753906 45.113281-1.449219.269531-2.929687.414062-4.4375.414062-13.191406 0-23.925781-10.734375-23.925781-23.925781zm11.019531-42.632812c.121094 1.917968.265625 3.835937.449219 5.746093-3.128906 1.050781-6.066406 2.476563-8.761719 4.230469-1.578125-3.199219-2.472656-6.703125-2.648437-10.308594 2.9375.164063 6.632812.300782 10.960937.332032zm-4.160156 77.609374c5.15625 2.527344 10.949219 3.949219 17.066406 3.949219 4.042969 0 7.976563-.617187 11.75-1.816406 5.003907 8.414063 10.707031 16.433594 17.085938 23.945313 1.484375 1.75 3.597656 2.648437 5.722656 2.648437 1.714844 0 3.4375-.585937 4.847656-1.78125 3.160157-2.679687 3.546875-7.414063.867188-10.570313-22.457031-26.464843-35.886719-59.753906-38.171875-94.320312 13.332031-.679688 29.628906-2.511719 47.0625-6.722656 52.183594-12.605469 91.640625-41.257813 115.007812-83.28125 23.371094 42.023437 62.828125 70.675781 115.011719 83.28125 17.4375 4.210937 33.730469 6.039062 47.0625 6.71875-5.5 85.53125-75.609375 151.710937-162.074219 151.710937-38.402344 0-75.667968-13.648437-104.925781-38.433593-3.160156-2.675782-7.890625-2.285157-10.570313.875-2.675781 3.164062-2.285156 7.894531.875 10.570312 8.554688 7.246094 17.738282 13.609375 27.398438 19.0625-1.171875 2.707031-2.027344 5.539062-2.550781 8.449219-22.910157 14.785156-41.351563 34.476562-54.316407 57.257812-47.605468-36.601562-45.234374-94.300781-37.148437-131.542969zm277.207031 97.34375v108.679688h-191.933594v-108.679688c2.28125-1.878906 4.625-3.695312 7.027344-5.449218 4.640625 16.3125 19.660156 28.296875 37.4375 28.296875 7.273438 0 14.238282-1.988281 20.285156-5.695313 7.105469 9.519532 18.453126 15.695313 31.214844 15.695313 12.761719 0 24.105469-6.175781 31.210938-15.6875 6.042968 3.707031 13.007812 5.6875 20.289062 5.6875 17.777344 0 32.800782-11.984375 37.4375-28.296875 2.40625 1.753906 4.75 3.570312 7.03125 5.449218zm-134.308594-12.78125c-.382812 2.199219-.585937 4.4375-.585937 6.703126 0 3.296874.417969 6.503906 1.195313 9.566406-4.003907 2.828125-8.769532 4.359375-13.769532 4.359375-13.191406 0-23.925781-10.734375-23.925781-23.925781 0-2.980469.550781-5.882813 1.601563-8.601563 11.363281 5.195313 23.261718 9.191406 35.484374 11.898437zm61.917969 2.640626c.226563 1.332031.347657 2.6875.347657 4.0625 0 13.191406-10.730469 23.925781-23.925782 23.925781-13.191406 0-23.925781-10.734375-23.925781-23.925781 0-1.382813.121094-2.742188.351563-4.078126 7.78125 1.042969 15.65625 1.578126 23.574218 1.578126 7.949219 0 15.820313-.535157 23.578125-1.5625zm51.847657-5.9375c0 13.191406-10.730469 23.925781-23.925782 23.925781-5.007812 0-9.765625-1.53125-13.765625-4.359375.777344-3.0625 1.191407-6.265625 1.191407-9.566406 0-2.25-.199219-4.464844-.574219-6.644532 12.257812-2.695312 24.148437-6.683594 35.507812-11.886718 1.03125 2.699218 1.566407 5.582031 1.566407 8.53125zm-186.390626 30.238281v94.519531h-39.523437c1.738281-35.683594 15.855469-68.875 39.523437-94.519531zm221.933594 94.519531v-94.523438c23.667969 25.640626 37.785156 58.832032 39.523438 94.523438zm33.054688-74.429688c-9.304688-16.320312-21.363282-30.972656-35.523438-43.257812-.125-.117188-.253906-.226562-.386718-.332031-5.777344-4.988281-11.910157-9.566407-18.339844-13.71875-.523438-2.890625-1.371094-5.703125-2.53125-8.398438 13.117187-7.421875 25.359375-16.5625 36.425781-27.320312 11.289063-10.976563 20.941406-23.222657 28.824219-36.417969 3.765625 1.179688 7.71875 1.800781 11.679687 1.800781 6.117188 0 11.910157-1.421875 17.066407-3.949219 8.0625 37.144532 10.488281 94.96875-37.214844 131.59375zm0 0" data-original="#000000" class="active-path" data-old_color="#8dc6e8" fill="#8dc6e8"/><path d="m203.597656 257.382812c9.574219 0 18.484375-5.160156 23.261719-13.464843 2.0625-3.589844.828125-8.175781-2.765625-10.238281-3.585938-2.066407-8.171875-.828126-10.238281 2.761718-2.105469 3.664063-6.035157 5.941406-10.257813 5.941406-4.21875 0-8.148437-2.277343-10.257812-5.941406-2.0625-3.589844-6.648438-4.828125-10.238282-2.765625-3.589843 2.066407-4.828124 6.648438-2.765624 10.242188 4.777343 8.304687 13.691406 13.464843 23.261718 13.464843zm0 0" data-original="#000000" class="active-path" data-old_color="#8dc6e8" fill="#8dc6e8"/><path d="m267.289062 228.105469c4.140626 0 7.5-3.359375 7.5-7.5v-11.355469c0-4.144531-3.359374-7.5-7.5-7.5-4.144531 0-7.5 3.355469-7.5 7.5v11.355469c0 4.140625 3.355469 7.5 7.5 7.5zm0 0" data-original="#000000" class="active-path" data-old_color="#8dc6e8" fill="#8dc6e8"/><path d="m139.910156 228.105469c4.140625 0 7.5-3.359375 7.5-7.5v-11.355469c0-4.144531-3.359375-7.5-7.5-7.5-4.144531 0-7.5 3.355469-7.5 7.5v11.355469c0 4.140625 3.355469 7.5 7.5 7.5zm0 0" data-original="#000000" class="active-path" data-old_color="#8dc6e8" fill="#8dc6e8"/><path d="m261.609375 249.570312h11.355469c4.144531 0 7.5-3.359374 7.5-7.5 0-4.140624-3.355469-7.5-7.5-7.5h-11.355469c-4.140625 0-7.5 3.359376-7.5 7.5 0 4.140626 3.359375 7.5 7.5 7.5zm0 0" data-original="#000000" class="active-path" data-old_color="#8dc6e8" fill="#8dc6e8"/><path d="m134.230469 249.570312h11.355469c4.144531 0 7.5-3.359374 7.5-7.5 0-4.140624-3.355469-7.5-7.5-7.5h-11.355469c-4.140625 0-7.5 3.359376-7.5 7.5 0 4.140626 3.359375 7.5 7.5 7.5zm0 0" data-original="#000000" class="active-path" data-old_color="#8dc6e8" fill="#8dc6e8"/></g> </svg>
