<?xml version="1.0"?>
<svg xmlns="http://www.w3.org/2000/svg" xmlns:xlink="http://www.w3.org/1999/xlink" version="1.1" viewBox="0 0 463 463" enable-background="new 0 0 463 463" width="512px" height="512px" class=""><g transform="matrix(1 -1.22465e-16 -1.22465e-16 -1 -1.42272e-16 463)"><g>
    <path d="m175.517,192c-4.142,0-7.5,3.358-7.5,7.5v8c0,4.142 3.358,7.5 7.5,7.5s7.5-3.358 7.5-7.5v-8c0-4.142-3.357-7.5-7.5-7.5z" data-original="#000000" class="active-path" data-old_color="#8dc6e8" fill="#8dc6e8"/>
    <path d="m287.517,192c-4.142,0-7.5,3.358-7.5,7.5v8c0,4.142 3.358,7.5 7.5,7.5s7.5-3.358 7.5-7.5v-8c0-4.142-3.357-7.5-7.5-7.5z" data-original="#000000" class="active-path" data-old_color="#8dc6e8" fill="#8dc6e8"/>
    <path d="m259.298,249.08c-6.368,4.333-16.753,6.92-27.781,6.92s-21.413-2.587-27.781-6.92c-3.424-2.331-8.089-1.443-10.42,1.981-2.33,3.424-1.443,8.089 1.981,10.42 8.89,6.049 22.091,9.519 36.219,9.519s27.33-3.47 36.219-9.519c3.425-2.331 4.312-6.996 1.981-10.42-2.328-3.425-6.994-4.31-10.418-1.981z" data-original="#000000" class="active-path" data-old_color="#8dc6e8" fill="#8dc6e8"/>
    <path d="m412.079,303.184c1.989-3.32 4.243-7.082 2.028-11.221-8.021-14.998-14.173-54.694-20.685-96.722-3.236-20.879-6.577-42.396-10.432-63.069 2.241-1.59 4.053-3.772 5.208-6.396l15.363-34.878c2.181-4.952 1.653-10.57-1.413-15.029-3.066-4.459-8.13-6.968-13.527-6.7l-22.822,1.113c-12.934-24.302-36.332-43.777-67.73-56.345-25.689-10.284-51.907-13.935-66.56-13.937-0.001,0-0.001,0-0.002,0-0.002,0-0.004,0-0.006,0-0.002,0-0.004,0-0.007,0-0.001,0-0.002,0-0.003,0-31.109,0.006-124.146,17.223-143.261,93.681-7.667,30.667-13.251,66.706-18.652,101.558-6.512,42.028-12.664,81.726-20.685,96.722-2.215,4.14 0.039,7.902 2.027,11.222 2.621,4.375 12.739,19.7 32.895,33.207 12.559,8.416 26.434,14.502 41.493,18.226l-24.401,6.972c-17.177,4.908-30.024,18.839-33.528,36.357l-7.389,36.946c-1.386,6.931 0.389,14.041 4.871,19.507 4.481,5.467 11.105,8.602 18.174,8.602h296.965c7.068,0 13.692-3.135 18.173-8.601 4.481-5.466 6.256-12.576 4.871-19.507l-7.389-36.946c-3.504-17.518-16.351-31.449-33.528-36.357l-24.418-6.976c15.052-3.724 28.922-9.809 41.475-18.221 20.155-13.509 30.273-28.833 32.895-33.208zm-22.727-219.034c0.104-0.008 0.279-0.013 0.437,0.216 0.158,0.23 0.087,0.39 0.045,0.485l-15.363,34.878c-0.042,0.095-0.112,0.255-0.388,0.293-0.273,0.038-0.387-0.096-0.454-0.176l-23.032-27.78 2.713-6.159 36.042-1.757zm-69.654-.082c-0.252-0.111-0.367-0.407-0.255-0.659l6.45-14.643c0.021-0.047 0.083-0.189 0.276-0.265 0.068-0.026 0.13-0.036 0.184-0.036 0.098,0 0.168,0.031 0.199,0.044l14.643,6.45c0.047,0.021 0.189,0.083 0.264,0.276s0.012,0.335-0.009,0.382l-6.45,14.645c-0.021,0.047-0.083,0.189-0.276,0.264-0.193,0.074-0.335,0.012-0.382-0.008l-14.644-6.45zm-32.888-45.062c0.272-0.037 0.387,0.096 0.454,0.176l23.032,27.78-2.713,6.159-36.043,1.758c-0.105,0.005-0.279,0.013-0.437-0.216-0.158-0.229-0.087-0.389-0.045-0.484l15.364-34.879c0.042-0.095 0.112-0.256 0.388-0.294zm50.966,18.058l-5.178-2.281c-3.788-1.669-8.001-1.763-11.86-0.264-0.318,0.124-0.622,0.271-0.929,0.414l-19.735-23.803c13.6,6.233 26.869,14.667 37.702,25.934zm-273.921,238.394c8.271-18.699 13.991-55.611 20.547-97.921 5.349-34.52 10.88-70.214 18.38-100.217 7.141-28.562 27.018-50.669 59.079-65.708 27.951-13.112 56.922-16.611 69.639-16.612 10.273,0.001 30.269,2.317 51.635,9.466-4.645,1.146-8.481,4.338-10.441,8.787l-15.363,34.878c-2.181,4.952-1.653,10.57 1.412,15.029 2.919,4.246 7.643,6.72 12.753,6.719 0.257,0 0.516-0.006 0.774-0.019l32.865-1.603c1.296,4.109 4.271,7.668 8.515,9.538l14.643,6.45c2.001,0.881 4.121,1.324 6.244,1.324 1.896,0 3.796-0.353 5.617-1.06 0.318-0.124 0.622-0.271 0.929-0.414l20.998,25.326c1.637,1.974 3.688,3.451 5.955,4.4 3.9,20.785 7.286,42.578 10.562,63.718 6.556,42.31 12.275,79.22 20.546,97.92-5.954,9.607-34.146,48.402-98.589,48.539l-15.373-4.392c-3.63-1.037-6.165-4.398-6.165-8.173v-22.193c46.846-20.059 80-68.859 80-125.74 0-32.559-24.939-59.938-26.001-61.088-1.671-1.809-4.121-2.682-6.563-2.337-2.438,0.346-4.552,1.867-5.654,4.069-0.452,0.903-0.845,1.689-7.559,29.368-24.281,6.547-56.548,6.782-68.608,6.609l-14.163-35.406c-1.051-2.628-3.493-4.44-6.313-4.686-2.812-0.241-5.538,1.118-7.028,3.524-4.823,7.791-7.206,19.964-8.34,28.448h-58.353c-0.296-3.24-0.72-7.296-1.291-11.512-2.545-18.798-5.643-23.871-8.611-26.553-2.963-2.677-7.507-2.564-10.332,0.262-16.396,16.396-26.186,42.304-26.186,69.303 0,56.881 33.154,105.681 80,125.74v22.191c0,3.775-2.535,7.136-6.165,8.173l-15.374,4.393c-64.465-0.125-92.666-38.931-98.621-48.54zm118.118,58.569c10.036-2.867 17.044-12.159 17.044-22.596v-16.899c10.38,2.91 21.272,4.467 32.5,4.467s22.12-1.557 32.5-4.468v16.899c0,10.437 7.009,19.729 17.044,22.596l36.857,10.531c-13.482,35.183-47.713,59.443-86.401,59.443-38.688,0-72.918-24.26-86.401-59.442l36.857-10.531zm49.544-50.027c-62.033,0-112.5-54.056-112.5-120.5 0-17.944 5.188-35.718 13.969-49.024 1.304,6.866 2.472,16.299 3.034,25.481 0.242,3.957 3.521,7.043 7.486,7.043h72c3.416,0 7.088-2.455 7.5-7.146 0.28-3.194 0.711-6.693 1.296-10.168l8.24,20.601c1.097,2.742 3.701,4.585 6.651,4.708 2.012,0.083 49.682,1.936 82.549-8.335 2.515-0.786 4.433-2.834 5.053-5.395 1.363-5.633 2.813-11.576 4.091-16.758 6.112,9.546 13.13,23.813 13.13,38.995 0.001,66.442-50.466,120.498-112.499,120.498zm149.429,96.886l7.389,36.946c0.501,2.507-0.141,5.079-1.761,7.056-1.621,1.978-4.017,3.112-6.574,3.112h-36.983v-16.5c0-4.142-3.358-7.5-7.5-7.5s-7.5,3.358-7.5,7.5v16.5h-193v-16.5c0-4.142-3.358-7.5-7.5-7.5-4.142,0-7.5,3.358-7.5,7.5v16.5h-36.982c-2.557,0-4.953-1.134-6.574-3.111-1.621-1.978-2.263-4.549-1.761-7.056l7.389-36.946c2.397-11.985 11.188-21.518 22.94-24.875l25.626-7.322c15.343,41.55 55.46,70.31 100.862,70.31s85.519-28.761 100.862-70.31l25.626,7.322c11.754,3.357 20.544,12.889 22.941,24.874z" data-original="#000000" class="active-path" data-old_color="#8dc6e8" fill="#8dc6e8"/>
  </g></g> </svg>
