<?xml version="1.0" encoding="iso-8859-1"?>
<!-- Generator: Adobe Illustrator 19.0.0, SVG Export Plug-In . SVG Version: 6.00 Build 0)  -->
<svg xmlns="http://www.w3.org/2000/svg" xmlns:xlink="http://www.w3.org/1999/xlink" version="1.1" id="Capa_1" x="0px" y="0px" viewBox="0 0 512 512" style="enable-background:new 0 0 512 512;" xml:space="preserve" width="512px" height="512px">
<g>
	<g>
		<path d="M437.019,74.981C388.667,26.629,324.38,0,256,0S123.333,26.629,74.981,74.981S0,187.62,0,256    s26.629,132.667,74.981,181.019S187.621,512,256,512s132.667-26.629,181.019-74.981C485.371,388.667,512,324.379,512,256    S485.371,123.333,437.019,74.981z M415.775,415.775c-42.677,42.677-99.42,66.181-159.775,66.181s-117.098-23.503-159.775-66.181    C53.547,373.098,30.044,316.355,30.044,256S53.547,138.902,96.225,96.225C138.902,53.547,195.645,30.044,256,30.044    s117.098,23.503,159.775,66.181c42.677,42.677,66.181,99.42,66.181,159.775S458.453,373.098,415.775,415.775z" fill="#8dc6e8"/>
	</g>
</g>
<g>
	<g>
		<path d="M315.62,234.152H196.38c-19.761,0-35.839,16.077-35.839,35.839v73.652c0,52.636,42.823,95.459,95.459,95.459    s95.459-42.823,95.459-95.459V269.99C351.459,250.229,335.382,234.152,315.62,234.152z M321.415,343.641    c0,36.07-29.345,65.415-65.415,65.415s-65.415-29.345-65.415-65.415v-23.467h130.83V343.641z M321.415,290.131h-130.83V269.99    c0-3.196,2.599-5.794,5.794-5.794H315.62c3.195,0,5.794,2.599,5.794,5.794V290.131z" fill="#8dc6e8"/>
	</g>
</g>
<g>
	<g>
		<path d="M176.383,125.607c-30.724,0-55.72,24.996-55.72,55.72c0,8.296,6.726,15.022,15.022,15.022    c8.296,0,15.022-6.726,15.022-15.022c0-14.158,11.518-25.676,25.676-25.676s25.676,11.518,25.676,25.676    c0,8.296,6.726,15.022,15.022,15.022s15.022-6.726,15.022-15.022C232.103,150.603,207.107,125.607,176.383,125.607z" fill="#8dc6e8"/>
	</g>
</g>
<g>
	<g>
		<path d="M335.617,125.607c-30.724,0-55.72,24.996-55.72,55.72c0,8.296,6.726,15.022,15.022,15.022s15.022-6.726,15.022-15.022    c0-14.158,11.518-25.676,25.676-25.676c14.158,0,25.676,11.518,25.676,25.676c0,8.296,6.726,15.022,15.022,15.022    c8.296,0,15.022-6.726,15.022-15.022C391.336,150.603,366.341,125.607,335.617,125.607z" fill="#8dc6e8"/>
	</g>
</g>
<g>
</g>
<g>
</g>
<g>
</g>
<g>
</g>
<g>
</g>
<g>
</g>
<g>
</g>
<g>
</g>
<g>
</g>
<g>
</g>
<g>
</g>
<g>
</g>
<g>
</g>
<g>
</g>
<g>
</g>
</svg>
