<?xml version="1.0" encoding="iso-8859-1"?>
<!-- Generator: Adobe Illustrator 19.0.0, SVG Export Plug-In . SVG Version: 6.00 Build 0)  -->
<svg xmlns="http://www.w3.org/2000/svg" xmlns:xlink="http://www.w3.org/1999/xlink" version="1.1" id="Capa_1" x="0px" y="0px" viewBox="0 0 512 512" style="enable-background:new 0 0 512 512;" xml:space="preserve" width="512px" height="512px">
<g>
	<g>
		<path d="M496.999,366.648c0.039,4.118,3.389,7.43,7.499,7.43c0.023,0,0.048,0,0.071,0c4.142-0.039,7.468-3.428,7.43-7.57    c-0.246-26.185-8.694-50.727-23.136-70.883v-74.676c0-2.371-1.121-4.602-3.023-6.017c-1.902-1.417-4.361-1.848-6.632-1.167    l-4.027,1.208c-5.871-39.238-22.168-76.044-47.395-106.868c-2.623-3.206-7.349-3.677-10.554-1.054    c-3.205,2.624-3.678,7.349-1.054,10.554c23.967,29.285,39.277,64.362,44.47,101.728l-9.657,2.897    c-3.166-23.99-10.654-46.916-22.336-68.244c-12.032-21.971-27.912-41.193-47.208-57.197V83.977    c4.076,3.128,8.056,6.398,11.887,9.815c1.43,1.275,3.213,1.903,4.989,1.903c2.063,0,4.118-0.847,5.6-2.508    c2.758-3.091,2.486-7.832-0.604-10.589c-6.919-6.172-14.271-11.94-21.872-17.182v-11.86c0-6.989-3.785-13.407-9.878-16.751    C336.464,17.546,296.502,7.368,256.004,7.368c-40.213,0-80.168,10.222-115.543,29.562c-6.107,3.339-9.902,9.763-9.902,16.764    v11.714c-11.121,7.667-21.64,16.416-31.278,26.054c-33.958,33.959-55.455,76.546-62.448,123.513l-4.034-1.21    c-2.271-0.682-4.73-0.249-6.632,1.167c-1.902,1.415-3.023,3.646-3.023,6.017v74.783c-0.667,0.933-1.326,1.873-1.97,2.827    C3.772,324.356-3.25,355.52,1.4,386.31c4.641,30.73,20.51,58.396,44.682,77.898c22.148,17.87,49.492,27.504,77.681,27.504    c1.216,0,2.434-0.019,3.653-0.055c1.765,3.051,4.15,5.737,7.071,7.892c4.516,3.331,9.861,5.079,15.371,5.079    c1.306,0,2.621-0.099,3.936-0.297c14.168-2.14,23.954-15.408,21.814-29.576l-20.292-134.353c-0.619-4.096-4.443-6.911-8.536-6.296    c-4.096,0.619-6.915,4.44-6.296,8.536l20.292,134.353c0.905,5.989-3.232,11.598-9.221,12.503    c-2.903,0.437-5.801-0.279-8.162-2.021s-3.903-4.299-4.341-7.2l-33.891-224.393c-0.438-2.901,0.279-5.8,2.021-8.161    c1.742-2.361,4.299-3.903,7.201-4.341c5.986-0.905,11.598,3.232,12.502,9.222l8.409,55.676c0.619,4.096,4.441,6.914,8.536,6.296    c4.096-0.619,6.915-4.44,6.296-8.536l-8.409-55.676c-2.14-14.167-15.406-23.95-29.575-21.814    c-6.863,1.037-12.912,4.684-17.033,10.27c-2.156,2.924-3.642,6.197-4.427,9.635c-1.975,0.547-3.932,1.143-5.869,1.785v-15.289    c0-3.312-2.172-6.232-5.345-7.184l-3.89-1.167c5.217-44.041,26.046-83.97,59.182-113.639c1.661,2.066,3.763,3.803,6.226,5.06    c6.439,3.287,14.076,2.692,19.934-1.551c27.829-20.159,60.709-30.814,95.085-30.814c34.377,0,67.257,10.655,95.085,30.814    c3.346,2.423,7.271,3.656,11.223,3.656c2.967,0,5.948-0.695,8.709-2.104c2.459-1.255,4.559-2.988,6.219-5.05    c32.726,29.425,53.992,70.129,59.193,113.627l-3.892,1.168c-3.172,0.952-5.345,3.872-5.345,7.184v15.293    c-1.931-0.639-3.889-1.223-5.866-1.77c-0.784-3.445-2.271-6.724-4.431-9.653c-4.119-5.586-10.168-9.233-17.032-10.27    c-6.863-1.035-13.721,0.663-19.306,4.782c-5.586,4.12-9.233,10.169-10.27,17.033l-33.891,224.393    c-2.14,14.169,7.646,27.436,21.814,29.576c1.315,0.199,2.63,0.297,3.937,0.297c5.508,0,10.854-1.748,15.369-5.078    c2.922-2.155,5.307-4.841,7.072-7.892c1.175,0.034,2.349,0.051,3.523,0.051c25.424,0,50.55-7.94,71.438-22.692    c22.744-16.063,39.571-39.553,47.385-66.146c1.167-3.974-1.108-8.142-5.082-9.31c-3.979-1.168-8.143,1.108-9.311,5.082    c-6.862,23.36-21.652,44.002-41.646,58.121c-18.209,12.859-40.083,19.802-62.227,19.918l32.129-212.729    C465.552,277.956,496.555,319.244,496.999,366.648z M38.142,231.029l31.668,9.5v15.792c-11.643,5.641-22.322,13.082-31.668,22.062    V231.029z M91.206,263.957l32.132,212.747c-24.616-0.096-48.481-8.553-67.838-24.171c-21.243-17.14-35.189-41.453-39.268-68.463    c-4.087-27.062,2.084-54.452,17.377-77.125C47.49,286.364,67.765,271.305,91.206,263.957z M130.558,96.788    c-19.42,16.113-35.377,35.477-47.426,57.597c-11.553,21.212-18.972,44.006-22.118,67.844l-9.664-2.899    c6.176-44.615,26.36-85.085,58.537-117.262c6.495-6.495,13.422-12.55,20.671-18.114V96.788z M366.447,100.988    c0,2.279-1.569,3.327-2.245,3.671c-0.677,0.346-2.453,1.007-4.313-0.339c-30.404-22.025-66.327-33.666-103.886-33.666    s-73.481,11.641-103.885,33.666c-1.858,1.345-3.635,0.685-4.313,0.339c-0.675-0.345-2.245-1.392-2.245-3.671V53.693    c0-1.514,0.804-2.895,2.098-3.602c33.174-18.137,70.639-27.723,108.346-27.723c37.981,0,75.449,9.539,108.35,27.586    c1.291,0.708,2.093,2.087,2.093,3.6V100.988z M442.196,240.529l31.667-9.5v47.305c-9.244-8.858-19.889-16.338-31.667-22.031    V240.529z M406.848,255.884l-33.891,224.393c-0.438,2.901-1.979,5.458-4.341,7.2c-2.362,1.742-5.26,2.458-8.161,2.021    c-2.901-0.438-5.459-1.98-7.2-4.341c-1.742-2.361-2.46-5.26-2.021-8.161l33.891-224.393c0.438-2.901,1.979-5.458,4.341-7.2    c1.909-1.408,4.169-2.147,6.498-2.147c0.552,0,1.107,0.042,1.663,0.125c2.901,0.438,5.459,1.98,7.2,4.341    C406.569,250.083,407.287,252.981,406.848,255.884z" fill="#8dc6e8"/>
	</g>
</g>
<g>
</g>
<g>
</g>
<g>
</g>
<g>
</g>
<g>
</g>
<g>
</g>
<g>
</g>
<g>
</g>
<g>
</g>
<g>
</g>
<g>
</g>
<g>
</g>
<g>
</g>
<g>
</g>
<g>
</g>
</svg>
