<?xml version="1.0" encoding="iso-8859-1"?>
<!-- Generator: Adobe Illustrator 19.0.0, SVG Export Plug-In . SVG Version: 6.00 Build 0)  -->
<svg xmlns="http://www.w3.org/2000/svg" xmlns:xlink="http://www.w3.org/1999/xlink" version="1.1" id="Capa_1" x="0px" y="0px" viewBox="0 0 512 512" style="enable-background:new 0 0 512 512;" xml:space="preserve" width="512px" height="512px">
<g>
	<g>
		<path d="M213.75,219.209c-9.621-11.969-23.438-18.833-37.91-18.833c-14.473,0-28.29,6.865-37.91,18.833    c-2.597,3.228-2.083,7.949,1.146,10.544c3.229,2.594,7.949,2.081,10.544-1.147c6.758-8.408,16.314-13.231,26.219-13.231    c9.904,0,19.46,4.823,26.219,13.231c1.482,1.844,3.656,2.802,5.851,2.802c1.648,0,3.309-0.542,4.694-1.655    C215.832,227.158,216.345,222.437,213.75,219.209z" fill="#8dc6e8"/>
	</g>
</g>
<g>
	<g>
		<path d="M206.851,148.976c-1.538-3.846-5.9-5.716-9.749-4.178l-80.162,32.064c-3.846,1.539-5.716,5.903-4.178,9.749    c1.173,2.933,3.989,4.717,6.966,4.717c0.927,0,1.87-0.173,2.783-0.538l80.162-32.065    C206.519,157.187,208.389,152.823,206.851,148.976z" fill="#8dc6e8"/>
	</g>
</g>
<g>
	<g>
		<path d="M374.072,219.207c-9.621-11.967-23.438-18.832-37.911-18.832c-14.472,0-28.29,6.865-37.91,18.833    c-2.595,3.229-2.082,7.949,1.147,10.544c1.385,1.114,3.045,1.655,4.694,1.655c2.194,0,4.369-0.958,5.851-2.802    c6.759-8.408,16.315-13.231,26.219-13.231s19.46,4.823,26.219,13.231c2.594,3.228,7.314,3.741,10.544,1.147    C376.154,227.157,376.667,222.436,374.072,219.207z" fill="#8dc6e8"/>
	</g>
</g>
<g>
	<g>
		<path d="M395.06,176.862l-80.162-32.064c-3.847-1.539-8.211,0.332-9.749,4.178c-1.539,3.846,0.332,8.21,4.178,9.749l80.162,32.065    c0.913,0.366,1.856,0.538,2.783,0.538c2.977,0,5.793-1.784,6.966-4.717C400.777,182.765,398.906,178.401,395.06,176.862z" fill="#8dc6e8"/>
	</g>
</g>
<g>
	<g>
		<path d="M507.307,304.921c7.256-37.51,6.013-76.816-3.63-113.753c-10.003-38.313-29.149-74.31-55.369-104.1    c-2.736-3.109-7.476-3.411-10.585-0.675c-3.109,2.737-3.412,7.476-0.675,10.585c25.032,28.441,42.566,61.406,52.115,97.979    c7.82,29.951,9.761,61.557,5.791,92.314c-14.495-14.127-37.476-26.086-68.369-35.544c-3.965-1.214-8.155,1.015-9.367,4.976    c-1.212,3.961,1.015,8.154,4.976,9.367c28.645,8.77,50.401,20.02,62.916,32.534c7.668,7.668,11.891,17.862,11.891,28.706    s-4.223,21.039-11.891,28.707c-7.667,7.667-17.862,11.89-28.706,11.89s-21.039-4.223-28.707-11.89    c-24.804-24.805-37.133-76.759-41.418-98.843c1.383,0.268,2.882,0.565,4.482,0.896c4.056,0.839,8.024-1.77,8.863-5.826    c0.839-4.056-1.77-8.025-5.826-8.864c-9.425-1.949-15.438-2.814-15.69-2.851c-2.335-0.333-4.695,0.452-6.364,2.122    c-1.669,1.669-2.455,4.027-2.122,6.364c0.199,1.391,2.33,15.869,7.296,34.846c-38.81,8.292-79.451,12.499-120.919,12.499    c-41.469,0-82.109-4.207-120.919-12.499c4.966-18.977,7.097-33.456,7.296-34.846c0.333-2.337-0.452-4.694-2.122-6.364    c-1.67-1.67-4.027-2.455-6.364-2.122c-0.251,0.036-6.265,0.902-15.69,2.851c-4.057,0.839-6.665,4.808-5.826,8.864    c0.838,4.056,4.807,6.662,8.863,5.826c1.602-0.331,3.103-0.63,4.487-0.897c-4.275,22.076-16.585,74.005-41.423,98.844    c-7.668,7.667-17.863,11.89-28.707,11.89c-10.844,0-21.039-4.223-28.706-11.89C19.223,348.35,15,338.155,15,327.311    s4.223-21.038,11.891-28.706c12.521-12.521,34.293-23.776,62.963-32.549c3.961-1.212,6.189-5.405,4.978-9.366    s-5.404-6.189-9.366-4.978c-30.89,9.452-53.873,21.402-68.378,35.52C7.405,213.171,32.426,138.778,85.616,85.587    c43.598-43.597,101.53-68.617,163.126-70.451c61.331-1.825,120.388,19.429,166.308,59.845c3.109,2.737,7.849,2.435,10.585-0.675    c2.737-3.109,2.435-7.849-0.675-10.585C376.176,20.784,313.442-1.799,248.296,0.143C182.863,2.091,121.322,28.668,75.009,74.981    c-60.247,60.247-86.472,146.098-70.263,229.82C1.646,311.799,0,319.427,0,327.311c0,14.851,5.783,28.812,16.284,39.313    c4.192,4.192,8.943,7.619,14.075,10.239c9.214,17.183,20.439,33.355,33.39,48.069c1.482,1.685,3.552,2.545,5.633,2.545    c1.76,0,3.527-0.616,4.952-1.87c3.109-2.737,3.412-7.476,0.675-10.585c-8.885-10.095-16.895-20.925-23.952-32.311    c1.503,0.121,3.015,0.197,4.539,0.197c14.851,0,28.812-5.783,39.313-16.284c8.983-8.983,16.431-20.775,22.557-33.422    C145.219,388.777,198,423.823,256,423.823c57.902,0,110.772-35.074,138.534-90.621c6.126,12.647,13.574,24.439,22.557,33.422    c10.501,10.501,24.462,16.284,39.313,16.284c1.573,0,3.134-0.079,4.685-0.208c-9.773,15.787-21.378,30.444-34.646,43.713    c-43.598,43.597-101.53,68.617-163.126,70.451c-61.311,1.822-120.388-19.427-166.308-59.844    c-3.108-2.736-7.848-2.435-10.585,0.675c-2.737,3.109-2.435,7.849,0.675,10.585c46.849,41.234,106.568,63.693,168.923,63.693    c2.576,0,5.157-0.038,7.741-0.115c65.434-1.948,126.975-28.525,173.287-74.838c17.886-17.886,32.934-38.15,44.759-60.24    c5.069-2.61,9.762-6.008,13.909-10.156C506.217,356.123,512,342.161,512,327.311C512,319.472,510.373,311.887,507.307,304.921z     M256.001,311.361c36.857,0,73.095-3.246,108.042-9.654c-1.989,4.033-4.179,7.938-6.567,11.673    c-3.728,5.831-10.244,9.788-17.432,10.586c-28.07,3.116-56.346,4.695-84.044,4.695c-27.704,0-55.987-1.58-84.062-4.697    c-7.17-0.797-13.668-4.731-17.381-10.525c-2.406-3.754-4.612-7.681-6.614-11.734C182.895,308.114,219.137,311.361,256.001,311.361    z M256,408.823c-56.274,0-107.22-36.958-130.54-94.38c1.874-4.988,3.566-9.961,5.091-14.814    c3.158,7.676,6.974,15.038,11.375,21.905c6.132,9.566,16.731,16.048,28.355,17.339c28.624,3.178,57.463,4.789,85.718,4.789    c28.249,0,57.082-1.61,85.699-4.787c11.647-1.293,22.27-7.803,28.415-17.414c4.379-6.849,8.181-14.187,11.329-21.849    c1.527,4.859,3.222,9.84,5.098,14.836C363.227,371.834,312.18,408.823,256,408.823z" fill="#8dc6e8"/>
	</g>
</g>
<g>
</g>
<g>
</g>
<g>
</g>
<g>
</g>
<g>
</g>
<g>
</g>
<g>
</g>
<g>
</g>
<g>
</g>
<g>
</g>
<g>
</g>
<g>
</g>
<g>
</g>
<g>
</g>
<g>
</g>
</svg>
