<?xml version="1.0"?>
<svg xmlns="http://www.w3.org/2000/svg" viewBox="0 -19 511.99966 511" width="512px" height="512px"><path d="m147.285156 89.433594c1.136719 0 2.292969-.195313 3.421875-.609375l.425781-.152344c5.1875-1.894531 7.859376-7.632813 5.96875-12.820313-1.890624-5.191406-7.628906-7.863281-12.820312-5.972656l-.421875.15625c-5.191406 1.890625-7.863281 7.632813-5.972656 12.820313 1.480469 4.058593 5.316406 6.578125 9.398437 6.578125zm0 0" fill="#8dc6e8"/><path d="m511.191406 116.25c-11.457031-26.753906-35.261718-46.375-63.679687-52.484375-15.101563-3.246094-30.585938-2.476563-44.996094 1.910156 4.96875-11.886719 6.417969-22.566406 5.347656-34.785156-1.707031-19.515625-15.027343-30.058594-27.300781-30.382813-10.617188-.28125-24.039062 7.152344-27.128906 29.023438-1.78125 12.601562-12.148438 30.132812-25.769532 44.007812-7.613281-1.398437-16.183593-1.453124-25.867187-.238281-9.527344 1.191407-19.132813-2.4375-29.304687-6.28125-7.949219-3.003906-16.167969-6.109375-25.289063-7.425781-25.125-3.621094-50.054687-2.925781-74.097656 2.074219-5.40625 1.125-8.878907 6.417969-7.757813 11.824219 1.125 5.410156 6.421875 8.886718 11.828125 7.757812 21.757813-4.523438 44.359375-5.148438 67.171875-1.859375 6.953125 1.003906 13.8125 3.59375 21.074219 6.339844 12 4.535156 24.414063 9.226562 38.863281 7.414062 9.347656-1.167969 16.878906-.984375 23.152344.859375.238281.082032.484375.148438.726562.210938 9.84375 3.144531 16.519532 10.570312 22.242188 23.554687-7.464844 22.160157-7.839844 46.433594-.503906 69.191407 7.871094 24.414062 23.960937 45.070312 45.035156 58.757812 2.671875 56.640625-21.246094 114.089844-64.601562 154.585938-43.96875 41.066406-100.53125 59.019531-159.257813 50.554687-7.335937-1.058594-14.269531-3.128906-21.613281-5.320313-11.402344-3.40625-23.199219-6.929687-36.789063-6.535156-32.570312.949219-41.640625-5.300781-47.765625-17.945312-3.601562-7.421875-4.941406-14.484375-6.238281-21.316406-1.652344-8.695313-3.359375-17.679688-9.535156-25.96875-26.773438-40.808594-35.476563-90.199219-24.5-139.113282 12.09375-53.902344 45.917969-101.191406 92.792969-129.738281 4.714843-2.875 6.210937-9.027344 3.339843-13.742187-2.875-4.71875-9.027343-6.214844-13.742187-3.339844-51.484375 31.351562-88.628906 83.273437-101.90625 142.441406-12.199219 54.355469-2.4375 109.3125 27.480468 154.746094.121094.1875.253907.371094.386719.546875 3.511719 4.625 4.625 10.484375 6.03125 17.902343 1.472657 7.730469 3.136719 16.496094 7.890625 26.304688 12.351563 25.484375 35.453125 30.113281 66.347656 29.210938 10.371094-.292969 20.140626 2.617187 30.484376 5.707031 7.710937 2.304687 15.6875 4.6875 24.484374 5.957031 10.40625 1.5 20.753907 2.246094 31.019532 2.246094 22.480468 0 44.558594-3.589844 65.9375-10.746094 29.195312-9.773438 55.707031-25.664062 78.800781-47.234375 44.75-41.792969 70.625-100.160156 71.140625-158.871094 2.25.875 4.539062 1.683594 6.859375 2.414063.988281.3125 1.996094.460937 2.996094.460937 3.09375 0 6.085937-1.441406 8.007812-4.007812 10.507813-14.039063 17.613281-30.574219 20.546875-47.828125.925782-5.445313-2.738281-10.609375-8.183594-11.535156-5.441406-.925782-10.609374 2.734374-11.535156 8.179687-1.996094 11.742187-6.351562 23.082031-12.707031 33.179687-24.703125-10.015624-43.933594-30.539062-52.171875-56.089843-8.234375-25.546875-4.613281-53.433594 9.578125-75.988281 18.636719 7.652343 34.835937 21.859374 45.136719 39.816406.050781.089844.113281.167968.164062.253906.097656.15625.191406.308594.292969.457031.09375.132813.1875.261719.285156.386719.101563.128906.199219.257812.304688.382812.109375.128907.226562.253907.339843.378907.105469.113281.210938.222656.324219.332031.121094.117188.246094.230469.375.34375.117188.105469.238281.203125.359375.304688.128906.097656.253906.195312.386719.289062.136719.097656.273437.195312.417969.285156.125.082032.25.160156.378906.234375.15625.089844.308594.175781.46875.257813.128906.070312.261719.128906.394531.191406.160157.074219.320313.144531.488281.210938.144532.058593.289063.109374.433594.160156.160156.054687.316406.109375.480469.152344.167969.050781.335937.089843.507813.132812.101562.023438.199218.054688.304687.074219.074219.015625.148437.027343.222656.039062.042969.007813.082031.015625.125.023438 5.703125 1.121093 11.457031 1.679687 17.183594 1.679687 22.296875 0 44.167969-8.332031 60.875-23.667968 3.121094-2.875 4.097656-7.40625 2.425781-11.304688zm-163.785156-34.636719c11.835938-13.570312 23.359375-31.804687 25.828125-49.28125 1.152344-8.152343 4.28125-11.832031 6.730469-11.832031h.0625c2.765625.074219 7.195312 3.980469 7.910156 12.136719 1.316406 15.0625-1.542969 27.027343-21.371094 54.289062-.019531.027344-.039062.054688-.058594.082031-2.03125 2.726563-3.925781 5.53125-5.679687 8.402344-3.9375-5.691406-8.386719-10.265625-13.421875-13.796875zm91.097656 48.957031c-10.765625-17.023437-26.007812-30.980468-43.550781-40.117187 14.585937-8.03125 31.765625-10.699219 48.355469-7.132813 19.671875 4.230469 36.5 16.789063 46.238281 34.1875-14.609375 10.800782-33.007813 15.53125-51.042969 13.0625zm0 0" fill="#8dc6e8"/><path d="m443.351562 167.515625c-5.492187.609375-9.445312 5.554687-8.835937 11.042969l.042969.375c.550781 5.128906 4.886718 8.929687 9.929687 8.929687.355469 0 .71875-.015625 1.082031-.054687 5.492188-.59375 9.464844-5.523438 8.875-11.015625l-.050781-.441407c-.609375-5.492187-5.5625-9.449218-11.042969-8.835937zm0 0" fill="#8dc6e8"/><path d="m231.132812 316.722656c-5.523437 0-10 4.480469-10 10.003906v.296876c0 5.523437 4.476563 10 10 10 5.523438 0 10.003907-4.476563 10.003907-10v-.296876c0-5.523437-4.480469-10.003906-10.003907-10.003906zm0 0" fill="#8dc6e8"/><path d="m217.3125 136.046875c-5.523438 0-10 4.476563-10 10v.300781c0 5.523438 4.476562 10 10 10s10-4.476562 10-10v-.300781c0-5.523437-4.476562-10-10-10zm0 0" fill="#8dc6e8"/><path d="m206.277344 242.035156v-.300781c0-5.523437-4.476563-10-10-10-5.523438 0-10 4.476563-10 10v.300781c0 5.523438 4.476562 10 10 10 5.523437 0 10-4.476562 10-10zm0 0" fill="#8dc6e8"/><path d="m134.625 404.773438c5.523438 0 10.003906-4.476563 10.003906-10v-.300782c0-5.523437-4.480468-10-10.003906-10-5.519531 0-10 4.476563-10 10v.300782c0 5.519531 4.480469 10 10 10zm0 0" fill="#8dc6e8"/><path d="m293.136719 232.320312v-.300781c0-5.523437-4.476563-10-10-10-5.523438 0-10 4.476563-10 10v.300781c0 5.523438 4.476562 10 10 10 5.523437 0 10-4.476562 10-10zm0 0" fill="#8dc6e8"/><path d="m92.128906 284.023438v.296874c0 5.523438 4.476563 10 10 10 5.523438 0 10-4.476562 10-10v-.296874c0-5.523438-4.476562-10.003907-10-10.003907-5.523437 0-10 4.480469-10 10.003907zm0 0" fill="#8dc6e8"/><path d="m236.8125 399.109375-.253906.089844c-5.210938 1.832031-7.949219 7.542969-6.113282 12.753906 1.445313 4.109375 5.308594 6.683594 9.433594 6.683594 1.101563 0 2.222656-.183594 3.320313-.570313l.253906-.089844c5.207031-1.832031 7.945313-7.542968 6.113281-12.753906-1.835937-5.210937-7.546875-7.949218-12.753906-6.113281zm0 0" fill="#8dc6e8"/><path d="m257.65625 401.882812c1.300781 4.332032 5.273438 7.128907 9.574219 7.128907.953125 0 1.921875-.136719 2.878906-.425781 18.441406-5.53125 35.996094-18.4375 46.953125-34.535157 3.109375-4.5625 1.929688-10.785156-2.632812-13.894531-4.566407-3.105469-10.789063-1.929688-13.894532 2.636719-8.335937 12.238281-22.195312 22.445312-36.171875 26.636719-5.289062 1.585937-8.292969 7.160156-6.707031 12.453124zm0 0" fill="#8dc6e8"/><path d="m342.140625 293.023438c5.523437 0 10-4.476563 10-10v-.296876c0-5.523437-4.476563-10.003906-10-10.003906s-10 4.480469-10 10.003906v.296876c0 5.523437 4.476563 10 10 10zm0 0" fill="#8dc6e8"/></svg>
