<?xml version="1.0" encoding="iso-8859-1"?>
<!-- Generator: Adobe Illustrator 18.0.0, SVG Export Plug-In . SVG Version: 6.00 Build 0)  -->
<!DOCTYPE svg PUBLIC "-//W3C//DTD SVG 1.1//EN" "http://www.w3.org/Graphics/SVG/1.1/DTD/svg11.dtd">
<svg xmlns="http://www.w3.org/2000/svg" xmlns:xlink="http://www.w3.org/1999/xlink" version="1.1" id="Capa_1" x="0px" y="0px" viewBox="0 0 462.428 462.428" style="enable-background:new 0 0 462.428 462.428;" xml:space="preserve" width="512px" height="512px">
<path d="M415.024,65.054c-0.591-1.478-1.744-2.659-3.207-3.286l-30.72-13.164c-3.047-1.311-6.574,0.105-7.878,3.151l-10.243,23.903  l-11.991-5.143c-2.485-7.614-7.82-14.28-15.434-18.346c-4.648-2.467-9.856-3.771-15.063-3.771c-4.84,0-9.528,1.122-13.766,3.141  l-14.269-6.117l10.238-23.891c0.627-1.463,0.647-3.114,0.056-4.592c-0.591-1.478-1.744-2.659-3.207-3.286L268.82,0.488  c-3.048-1.31-6.574,0.105-7.878,3.151l-25.209,58.826c-0.627,1.463-0.647,3.114-0.056,4.592c0.591,1.478,1.744,2.659,3.207,3.286  l30.72,13.164c0.771,0.331,1.572,0.487,2.36,0.487c2.328,0,4.543-1.363,5.518-3.639l10.244-23.905l8.135,3.487  c-1.714,2.042-3.2,4.299-4.372,6.763l-20.151,42.38c-10.781-8.639-24.444-13.823-39.302-13.823c-14.987,0-28.76,5.271-39.584,14.046  L172.196,66.7c-1.247-2.623-2.844-5.017-4.702-7.159l7.208-3.09l10.245,23.905c0.975,2.275,3.189,3.639,5.518,3.639  c0.788,0,1.59-0.157,2.36-0.487l30.719-13.164c3.046-1.305,4.457-4.832,3.151-7.878L201.486,3.64  c-1.305-3.046-4.83-4.455-7.878-3.151l-30.72,13.164c-1.463,0.627-2.616,1.809-3.207,3.286c-0.592,1.478-0.571,3.129,0.056,4.592  l10.239,23.891l-13.597,5.828c-4.081-1.844-8.565-2.852-13.181-2.852c-5.206,0-10.414,1.304-15.077,3.778  c-7.396,3.951-12.645,10.36-15.212,17.711l-13.456,5.771L89.209,51.755c-1.304-3.045-4.829-4.456-7.878-3.151l-30.72,13.164  c-1.463,0.627-2.616,1.809-3.207,3.286c-0.592,1.478-0.571,3.129,0.056,4.592l25.209,58.826c0.975,2.275,3.189,3.639,5.518,3.639  c0.788,0,1.59-0.157,2.36-0.487l30.72-13.164c1.463-0.627,2.616-1.809,3.207-3.286c0.592-1.478,0.571-3.129-0.056-4.592  l-10.239-23.893l7.109-3.049c0.313,3.077,1.071,6.16,2.319,9.162l50.387,121.171c2.027,4.876,3.059,10.025,3.065,15.305  l0.106,205.562c0,15.213,12.376,27.589,27.589,27.589s27.589-12.376,27.589-27.589v-77.144c0-5.346,4.349-9.694,9.693-9.694  c5.346,0,9.694,4.349,9.694,9.694v77.144c0,15.213,12.376,27.589,27.589,27.589s27.589-12.376,27.589-27.589V229.351  c-0.016-5.338,0.771-10.543,2.821-15.472l50.348-121.078c1.178-2.834,1.923-5.74,2.266-8.645l5.905,2.533l-10.239,23.893  c-0.627,1.463-0.647,3.114-0.056,4.592c0.591,1.478,1.744,2.659,3.207,3.286l30.72,13.164c0.771,0.331,1.572,0.487,2.36,0.487  c2.328,0,4.543-1.363,5.518-3.639l25.209-58.826C415.595,68.183,415.616,66.531,415.024,65.054z M268.816,70.115l-19.69-8.438  l20.482-47.797l19.69,8.438L268.816,70.115z M192.82,13.881l20.482,47.797l-19.689,8.438l-20.483-47.797L192.82,13.881z   M81.335,118.231L60.852,70.434l19.69-8.438l20.482,47.797L81.335,118.231z M283.006,158.227c0,28.104-22.865,50.97-50.97,50.97  s-50.969-22.865-50.969-50.97s22.864-50.969,50.969-50.969S283.006,130.122,283.006,158.227z M338.998,88.194L288.65,209.272  c-2.664,6.407-3.761,13.175-3.741,20.114v205.453c0,8.596-6.993,15.589-15.589,15.589s-15.589-6.993-15.589-15.589v-77.144  c0-11.962-9.732-21.694-21.694-21.694s-21.693,9.732-21.693,21.694v77.144c0,8.596-6.993,15.589-15.589,15.589  s-15.589-6.993-15.589-15.589l-0.106-205.578c-0.009-6.863-1.35-13.558-3.985-19.896L124.687,88.194  c-3.992-9.6-0.085-20.533,9.072-25.426c2.964-1.572,6.14-2.37,9.438-2.37c7.724,0,14.852,4.497,18.161,11.456l22.062,46.4  c-8.962,10.881-14.352,24.809-14.352,39.973c0,34.722,28.248,62.97,62.969,62.97c34.722,0,62.97-28.248,62.97-62.97  c0-15.302-5.492-29.343-14.602-40.267l21.921-46.105c3.311-6.96,10.439-11.457,18.162-11.457c3.298,0,6.474,0.798,9.423,2.362  C339.084,67.659,342.99,78.594,338.998,88.194z M381.093,118.231l-19.69-8.438l20.482-47.797l19.69,8.438L381.093,118.231z" fill="#8dc6e8"/>
<g>
</g>
<g>
</g>
<g>
</g>
<g>
</g>
<g>
</g>
<g>
</g>
<g>
</g>
<g>
</g>
<g>
</g>
<g>
</g>
<g>
</g>
<g>
</g>
<g>
</g>
<g>
</g>
<g>
</g>
</svg>
