<?xml version="1.0" encoding="iso-8859-1"?>
<!-- Generator: Adobe Illustrator 19.0.0, SVG Export Plug-In . SVG Version: 6.00 Build 0)  -->
<svg xmlns="http://www.w3.org/2000/svg" xmlns:xlink="http://www.w3.org/1999/xlink" version="1.1" id="Capa_1" x="0px" y="0px" viewBox="0 0 512 512" style="enable-background:new 0 0 512 512;" xml:space="preserve" width="512px" height="512px">
<g>
	<g>
		<path d="M187.171,157.692c-5.034-0.783-9.812,2.176-11.356,7.032l-13.755,43.231l-13.755-43.231    c-1.546-4.856-6.323-7.814-11.357-7.031c-5.035,0.782-8.69,5.048-8.69,10.144v79.885c0,4.142,3.358,7.5,7.5,7.5    c4.142,0,7.5-3.358,7.5-7.5v-49.389l8.5,26.716c1.434,4.504,5.574,7.532,10.302,7.532c4.728,0,8.868-3.027,10.302-7.533    l8.5-26.716v49.389c0,4.142,3.358,7.5,7.5,7.5c4.142,0,7.5-3.358,7.5-7.5v-79.885C195.862,162.74,192.207,158.474,187.171,157.692    z" fill="#8dc6e8"/>
	</g>
</g>
<g>
	<g>
		<path d="M375.05,157.692c-5.032-0.78-9.811,2.174-11.357,7.031l-13.755,43.231l-13.755-43.23    c-1.544-4.856-6.321-7.817-11.356-7.032c-5.036,0.782-8.691,5.048-8.691,10.144v79.885c0,4.142,3.358,7.5,7.5,7.5    c4.142,0,7.5-3.358,7.5-7.5v-49.389l8.5,26.716c1.434,4.505,5.574,7.533,10.302,7.533c4.728,0,8.868-3.027,10.302-7.533    l8.5-26.716v49.389c0,4.142,3.358,7.5,7.5,7.5c4.142,0,7.5-3.358,7.5-7.5v-79.885C383.74,162.74,380.085,158.474,375.05,157.692z" fill="#8dc6e8"/>
	</g>
</g>
<g>
	<g>
		<path d="M274.663,159.903c-6.719-0.001-13.231,2.14-18.664,6.024c-5.433-3.883-11.945-6.024-18.666-6.024    c-17.858,0-32.388,14.529-32.388,32.388c0,28.015,42.003,57.825,46.792,61.132c1.282,0.885,2.772,1.328,4.261,1.328    c1.489,0,2.979-0.443,4.261-1.328c4.79-3.307,46.792-33.118,46.792-61.132C307.051,174.433,292.522,159.903,274.663,159.903z     M256.017,237.985c-12.614-9.593-36.071-30.536-36.071-45.695c0-9.587,7.8-17.388,17.388-17.388c5.002,0,9.626,2.138,13.02,6.019    c1.424,1.629,3.482,2.564,5.646,2.564c2.164,0,4.223-0.935,5.646-2.564c3.393-3.881,8.017-6.019,13.02-6.019    c9.586,0,17.387,7.801,17.387,17.388C292.053,206.182,271.464,226.366,256.017,237.985z" fill="#8dc6e8"/>
	</g>
</g>
<g>
	<g>
		<path d="M365.056,71.143c-32.799-27.005-74.322-40.818-116.929-38.882c-42.892,1.944-83.247,19.749-113.631,50.132    c-30.384,30.383-48.187,70.738-50.132,113.631c-1.931,42.604,11.877,84.13,38.882,116.929c1.483,1.801,3.63,2.733,5.794,2.733    c1.678,0,3.366-0.56,4.763-1.71c3.198-2.633,3.656-7.359,1.023-10.557c-24.641-29.928-37.241-67.827-35.477-106.716    c1.775-39.144,18.024-75.974,45.754-103.704c27.73-27.73,64.56-43.979,103.704-45.754c38.883-1.766,76.787,10.836,106.715,35.478    c3.197,2.632,7.924,2.175,10.557-1.023S368.254,73.776,365.056,71.143z" fill="#8dc6e8"/>
	</g>
</g>
<g>
	<g>
		<path d="M388.752,94.838c-2.632-3.197-7.359-3.657-10.557-1.023c-3.198,2.633-3.656,7.359-1.023,10.557    c24.641,29.928,37.24,67.827,35.477,106.715c-1.775,39.144-18.024,75.974-45.754,103.704c-27.73,27.73-64.56,43.98-103.704,45.754    c-38.88,1.767-76.787-10.836-106.715-35.477c-3.197-2.633-7.924-2.175-10.557,1.023s-2.175,7.924,1.023,10.557    c30.777,25.34,69.236,39.06,109.062,39.06c2.616,0,5.241-0.059,7.867-0.178c42.892-1.945,83.247-19.749,113.631-50.133    c30.384-30.384,48.188-70.739,50.133-113.631C429.565,169.163,415.757,127.637,388.752,94.838z" fill="#8dc6e8"/>
	</g>
</g>
<g>
	<g>
		<path d="M463.126,444.347l-52.961-107.153c30.969-35.769,49.729-82.385,49.729-133.3C459.894,91.467,368.427,0,255.999,0    S52.104,91.467,52.104,203.895c0,50.915,18.759,97.53,49.729,133.299l-52.96,107.153c-1.208,2.444-0.995,5.352,0.558,7.593    c1.552,2.242,4.196,3.465,6.912,3.193l70.585-7.051l37.269,60.358c1.37,2.219,3.789,3.56,6.38,3.56    c0.118,0,0.235-0.003,0.354-0.008c2.723-0.128,5.163-1.724,6.371-4.168l50.416-102.004c9.247,1.289,18.687,1.971,28.283,1.971    c9.597,0,19.036-0.682,28.284-1.971l50.416,102.004c1.208,2.444,3.647,4.04,6.371,4.168c0.119,0.005,0.236,0.008,0.354,0.008    c2.591,0,5.01-1.341,6.38-3.56l37.269-60.358l70.585,7.051c2.71,0.267,5.359-0.952,6.912-3.193    C464.121,449.699,464.334,446.792,463.126,444.347z M169.849,489.046l-32.622-52.833c-1.506-2.44-4.272-3.807-7.127-3.522    l-61.785,6.172l44.474-89.982c11.889,11.745,25.212,22.039,39.677,30.601l-14.137,28.604c-1.835,3.713-0.313,8.211,3.4,10.047    c1.068,0.528,2.201,0.778,3.317,0.778c2.764,0,5.422-1.533,6.729-4.178l13.881-28.085c14.656,7.275,30.304,12.835,46.685,16.423    L169.849,489.046z M255.999,392.791c-104.157,0-188.895-84.739-188.895-188.896S151.842,15,255.999,15    s188.895,84.738,188.895,188.895S360.156,392.791,255.999,392.791z M381.898,432.691c-2.855-0.288-5.621,1.083-7.127,3.522    l-32.622,52.833l-42.494-85.976c16.381-3.588,32.029-9.148,46.685-16.423l13.881,28.085c1.308,2.645,3.966,4.178,6.729,4.178    c1.116,0,2.249-0.25,3.317-0.778c3.713-1.835,5.236-6.333,3.4-10.047l-14.137-28.604c14.466-8.562,27.788-18.856,39.677-30.601    l44.474,89.982L381.898,432.691z" fill="#8dc6e8"/>
	</g>
</g>
<g>
</g>
<g>
</g>
<g>
</g>
<g>
</g>
<g>
</g>
<g>
</g>
<g>
</g>
<g>
</g>
<g>
</g>
<g>
</g>
<g>
</g>
<g>
</g>
<g>
</g>
<g>
</g>
<g>
</g>
</svg>
