<?xml version="1.0"?>
<svg xmlns="http://www.w3.org/2000/svg" viewBox="0 -15 512.001 512" width="512px" height="512px"><path d="m300.988281 423.410156c-.660156 0-1.308593-.0625-1.957031-.191406-.640625-.128906-1.269531-.320312-1.871094-.570312-.601562-.25-1.179687-.558594-1.730468-.921876-.539063-.367187-1.050782-.789062-1.519532-1.25-.460937-.457031-.871094-.96875-1.238281-1.519531-.363281-.539062-.671875-1.117187-.921875-1.71875-.25-.609375-.441406-1.238281-.570312-1.871093-.128907-.648438-.199219-1.308594-.199219-1.957032 0-.652344.070312-1.3125.199219-1.953125.128906-.636719.320312-1.269531.570312-1.867187.25-.613282.558594-1.191406.921875-1.730469.367187-.550781.777344-1.0625 1.238281-1.519531.46875-.460938.980469-.882813 1.519532-1.242188.550781-.359375 1.128906-.667968 1.730468-.917968.601563-.25 1.230469-.441407 1.871094-.570313 1.289062-.261719 2.617188-.261719 3.910156 0 .636719.128906 1.269532.320313 1.867188.570313.601562.25 1.179687.558593 1.730468.917968.539063.359375 1.0625.78125 1.519532 1.242188.460937.457031.882812.96875 1.242187 1.519531.359375.539063.667969 1.117187.917969 1.730469.25.597656.441406 1.230468.570312 1.867187.132813.640625.199219 1.300781.199219 1.953125 0 .648438-.066406 1.308594-.199219 1.957032-.128906.632812-.320312 1.261718-.570312 1.871093-.25.601563-.558594 1.179688-.917969 1.71875-.359375.550781-.78125 1.0625-1.242187 1.519531-.457032.460938-.980469.882813-1.519532 1.25-.550781.363282-1.128906.671876-1.730468.921876-.597656.25-1.230469.441406-1.867188.570312-.652344.128906-1.300781.191406-1.953125.191406zm0 0" fill="#8dc6e8"/><path d="m472.382812 0h-462.382812c-5.523438 0-10 4.476562-10 10v350.453125c0 31.601563 23.339844 57.84375 53.632812 62.292969-3.433593 5.839844-5.410156 12.632812-5.410156 19.859375 0 21.742187 17.640625 39.429687 39.324219 39.429687h251.945313c21.683593 0 39.324218-17.6875 39.324218-39.429687 0-7.597657-2.183594-14.71875-5.953125-20.753907 27.941407-6.359374 48.863281-31.476562 48.863281-61.398437v-90.074219h50.65625c21.847657 0 39.617188-17.820312 39.617188-39.726562v-190.925782c0-21.90625-17.773438-39.726562-39.617188-39.726562zm-452.382812 63.542969h381.722656v28.136719h-381.722656zm0 48.136719h381.722656v193.359374h-381.722656zm401.722656-48.136719h26.894532v143.292969h-26.894532zm-401.722656-43.542969h381.722656v23.542969h-381.722656zm338.960938 383.410156h-18.640626c-5.496093 0-9.964843 4.4375-10 9.933594-.039062 5.496094 4.367188 9.992188 9.863282 10.066406 10.273437.140625 18.628906 8.75 18.628906 19.195313 0 10.714843-8.667969 19.429687-19.320312 19.429687h-251.945313c-10.65625 0-19.324219-8.714844-19.324219-19.429687 0-10.445313 8.359375-19.054688 18.632813-19.195313.046875 0 .097656-.003906.144531-.003906.101562.003906.207031.003906.3125.003906h173.542969c5.523437 0 10-4.476562 10-10 0-5.523437-4.476563-10-10-10h-173.542969c-.097656 0-.195312.003906-.289062.003906-.101563 0-.203126-.003906-.304688-.003906h-23.953125c-23.582031 0-42.765625-19.269531-42.765625-42.957031v-35.414063h381.722656v35.414063c0 23.6875-19.183594 42.957031-42.761718 42.957031zm133.039062-172.757812c0 10.875-8.800781 19.726562-19.617188 19.726562h-50.660156v-23.542968h36.894532c5.523437 0 10-4.476563 10-10v-163.292969c0-5.523438-4.476563-10-10-10h-36.894532v-23.542969h50.660156c10.816407 0 19.617188 8.851562 19.617188 19.726562zm0 0" fill="#8dc6e8"/><path d="m205.433594 269.660156c-3.164063 0-4.484375-.824218-11.796875-5.398437-3.601563-2.25-9.144531-5.832031-15.128907-10.117188-16.085937-11.511719-25.953124-21.21875-30.167968-29.675781-5.152344-10.339844-6.683594-22.101562-4.308594-33.117188 2.382812-11.078124 8.386719-20.386718 16.902344-26.210937 8.34375-5.707031 18.539062-7.527344 28.710937-5.121094 7.019531 1.660157 11.535157 5.082031 15.789063 9.28125 4.25-4.203125 8.765625-7.621093 15.789062-9.28125 10.167969-2.402343 20.363282-.585937 28.710938 5.121094 8.511718 5.824219 14.515625 15.132813 16.902344 26.210937 2.371093 11.015626.839843 22.777344-4.3125 33.117188-4.210938 8.457031-14.078126 18.164062-30.164063 29.675781-5.988281 4.285157-11.53125 7.867188-15.128906 10.117188-7.316407 4.570312-8.636719 5.398437-11.796875 5.398437zm-24.605469-90.691406c-3.113281 0-5.996094.898438-8.601563 2.679688-4.273437 2.921874-7.339843 7.863281-8.644531 13.917968-1.421875 6.59375-.476562 13.691406 2.660157 19.984375 4.789062 9.613281 27.542968 25.445313 39.191406 32.5625 11.644531-7.117187 34.398437-22.949219 39.1875-32.5625 3.136718-6.292969 4.082031-13.390625 2.660156-19.984375-1.300781-6.054687-4.371094-10.996094-8.640625-13.917968-3.746094-2.5625-8.058594-3.292969-12.816406-2.164063-3.214844.757813-4.914063 2.445313-9.804688 7.664063-1.046875 1.117187-2.167969 2.3125-3.398437 3.585937-1.882813 1.945313-4.476563 3.046875-7.1875 3.046875-2.710938 0-5.304688-1.101562-7.1875-3.050781-1.230469-1.269531-2.351563-2.464844-3.398438-3.582031-4.894531-5.21875-6.59375-6.90625-9.808594-7.664063-1.445312-.34375-2.851562-.515625-4.210937-.515625zm0 0" fill="#8dc6e8"/><path d="m97.066406 222.835938c-2 3.394531-5.074218 4.472656-7.992187 4.472656-2.765625 0-5.6875-.925782-7.53125-4.472656l-14.601563-26.839844v59.390625c0 4.933593-5.992187 7.402343-11.988281 7.402343-5.992187 0-11.988281-2.46875-11.988281-7.402343v-93.328125c0-8.792969 5.996094-12.03125 11.988281-12.03125 8.609375 0 12.296875.925781 18.597656 12.03125l15.832031 27.765625 15.828126-27.765625c6.304687-11.105469 9.992187-12.03125 18.597656-12.03125 6.148437 0 11.988281 3.238281 11.988281 12.03125v93.328125c0 4.9375-5.992187 7.402343-11.988281 7.402343-5.992188 0-11.988282-2.464843-11.988282-7.402343v-57.847657zm0 0" fill="#8dc6e8"/><path d="m329.167969 222.835938c-1.996094 3.394531-5.070313 4.472656-7.992188 4.472656-2.765625 0-5.6875-.925782-7.53125-4.472656l-14.601562-26.839844v59.390625c0 4.933593-5.992188 7.402343-11.988281 7.402343-5.992188 0-11.988282-2.46875-11.988282-7.402343v-93.328125c0-8.792969 5.996094-12.03125 11.988282-12.03125 8.609374 0 12.296874.925781 18.597656 12.03125l15.832031 27.765625 15.828125-27.765625c6.304688-11.105469 9.992188-12.03125 18.597656-12.03125 6.148438 0 11.988282 3.238281 11.988282 12.03125v93.328125c0 4.9375-5.992188 7.402343-11.988282 7.402343-5.992187 0-11.988281-2.464843-11.988281-7.402343v-57.847657zm0 0" fill="#8dc6e8"/></svg>
