<?xml version="1.0" encoding="iso-8859-1"?>
<!-- Generator: Adobe Illustrator 19.0.0, SVG Export Plug-In . SVG Version: 6.00 Build 0)  -->
<svg xmlns="http://www.w3.org/2000/svg" xmlns:xlink="http://www.w3.org/1999/xlink" version="1.1" id="Capa_1" x="0px" y="0px" viewBox="0 0 512 512" style="enable-background:new 0 0 512 512;" xml:space="preserve" width="512px" height="512px">
<g>
	<g>
		<path d="M436.998,75.032c-100.036-100.039-261.948-100.048-361.994,0C26.656,123.38,0.031,187.659,0.031,256.03    C0.031,397.507,114.514,512,256.001,512c141.474,0,255.969-114.484,255.969-255.97C511.97,187.659,485.344,123.38,436.998,75.032z     M256.002,497.001c-132.872,0-240.971-108.099-240.971-240.971S123.129,15.06,256.002,15.06    c132.87,0,240.968,108.099,240.97,240.971C496.971,388.902,388.873,497.001,256.002,497.001z" fill="#8dc6e8"/>
	</g>
</g>
<g>
	<g>
		<path d="M462.947,266.056c-4.129-0.331-7.754,2.721-8.1,6.848c-2.971,35.468-15.324,69.258-35.845,98.249l-67.017-67.017    c-0.118-155.946,0.006,24.694,0.006-131.614c0-18.931-19.756-31.57-36.932-23.536v-10.087c0-19.704-21.24-32.289-38.496-22.765    c-8.227-22.811-40.646-22.894-48.902-0.001c-17.344-9.568-38.411,3.112-38.395,22.754v2.531l-48.392-48.391    c126.465-89.661,301.302-5.078,313.962,146.132c0.346,4.127,3.959,7.188,8.1,6.848c4.127-0.346,7.193-3.972,6.848-8.1    c-14.054-167.849-210-256.065-344.95-151.657c-3.573,2.764-3.907,8.042-0.714,11.234    c310.756,310.754,291.209,292.624,295.732,292.624c2.296,0,4.496-1.054,5.933-2.91c25.343-32.756,40.562-71.845,44.011-113.042    C470.14,270.028,467.074,266.402,462.947,266.056z M226.131,178.281l-21.865-21.865c0-18.527-0.826-21.262,3.186-25.296    c6.819-6.856,18.662-2.003,18.671,7.742C226.133,153.696,226.131,145.742,226.131,178.281z M241.13,193.28    c0-7.414,0-60.675,0-68.355c0-6.056,4.927-10.981,10.982-10.981c6.056,0,10.982,4.927,10.982,10.981    c0.001,11.005,0.001,79.66,0.001,90.321L241.13,193.28z M278.094,230.245v-91.347c0-6.056,4.927-10.981,10.981-10.981    c6.057,0,10.983,4.927,10.983,10.981c0.001,13.586,0.001,100.081,0.001,113.313C288.447,240.598,293.245,245.396,278.094,230.245z     M336.974,289.125l-26.346-26.346c2.61-1.174,4.431-3.791,4.431-6.839v-83.419c0-6.048,4.92-10.968,10.967-10.968    c6.046,0,10.965,4.921,10.965,10.968C336.992,274.786,336.895,185.535,336.974,289.125z" fill="#8dc6e8"/>
	</g>
</g>
<g>
	<g>
		<path d="M396.801,407.29C84.212,94.699,103.867,112.911,99.169,113.039c-2.08,0.074-4.037,1.011-5.4,2.585    c-72.026,83.152-70.768,210.827,10.52,292.118c81.38,81.382,209.045,82.479,292.118,10.52    C399.7,415.411,399.875,410.365,396.801,407.29z M256.002,455.584c-110.034,0-199.553-89.52-199.553-199.553    c0-45.288,15.391-89.141,43.5-124.381l89.423,89.423v22.382l-21.625-28.391c-20.52-28.541-59.053-3.281-46.391,24.373    c37.104,84.919,38.71,92.341,51.311,104.679c0.276,0.273,11.728,11.614,11.728,11.613c5.995,5.939,5.139,19.895,5.139,48.403    c0,10.751,8.747,19.499,19.499,19.499h29.471c4.142,0,7.5-3.357,7.5-7.5c0-4.143-3.358-7.5-7.5-7.5h-29.471    c-2.481,0-4.5-2.019-4.5-4.5c0-27.599,1.961-47.625-9.583-59.06c-25.326-25.08-16.173-11.683-59.877-111.705    c-5.258-12.065,10.789-23.142,20.541-9.486c0.118,0.164,35.17,46.181,35.293,46.342c4.335,5.695,13.465,2.613,13.465-4.544    v-29.606L316.85,348.552c-7.873,12.333-6.279,19.253-6.279,55.581c0,2.481-2.019,4.5-4.5,4.5h-32.57c-4.142,0-7.5,3.357-7.5,7.5    s3.358,7.5,7.5,7.5h32.57c10.751,0,19.499-8.747,19.499-19.499c0-37.982-0.652-38.181,2.311-44.55l52.502,52.502    C345.142,440.193,301.289,455.584,256.002,455.584z" fill="#8dc6e8"/>
	</g>
</g>
<g>
</g>
<g>
</g>
<g>
</g>
<g>
</g>
<g>
</g>
<g>
</g>
<g>
</g>
<g>
</g>
<g>
</g>
<g>
</g>
<g>
</g>
<g>
</g>
<g>
</g>
<g>
</g>
<g>
</g>
</svg>
