<?xml version="1.0" encoding="iso-8859-1"?>
<!-- Generator: Adobe Illustrator 19.0.0, SVG Export Plug-In . SVG Version: 6.00 Build 0)  -->
<svg xmlns="http://www.w3.org/2000/svg" xmlns:xlink="http://www.w3.org/1999/xlink" version="1.1" id="Capa_1" x="0px" y="0px" viewBox="0 0 512 512" style="enable-background:new 0 0 512 512;" xml:space="preserve" width="512px" height="512px">
<g>
	<g>
		<path d="M247.949,182.841c-6.462-9.806-24.301-28.981-53.021-56.996c-12.624-12.313-29.287-19.093-46.926-19.093    c-0.009,0-0.02,0-0.028,0c-17.649,0.008-34.318,6.803-46.937,19.134c-28.574,27.923-46.354,47.088-52.85,56.965    c-6.741,10.257-14.338,24.68-13.23,45.344c0.874,16.327,7.786,31.658,19.464,43.168c11.879,11.709,27.402,18.157,43.71,18.157    c18.916,0,34.932-11.297,45.036-20.774c2.7-2.533,6.77-2.501,9.465,0.073c14.18,13.543,29.874,20.701,45.385,20.701    c16.306,0,31.829-6.448,43.709-18.157c11.677-11.511,18.589-26.841,19.463-43.17C262.306,207.248,254.168,192.279,247.949,182.841    z M241.217,227.125c-1.251,23.376-20.63,42.394-43.2,42.394c-12.971,0-24.328-8.246-31.572-15.164    c-5.202-4.967-11.9-7.454-18.598-7.454c-6.6,0-13.201,2.417-18.361,7.255c-7.472,7.008-18.977,15.362-31.355,15.362    c-22.571,0-41.952-19.017-43.203-42.395c-0.63-11.741,2.352-21.697,9.97-33.286c3.212-4.883,13.994-18.347,50.117-53.649    c18.173-17.758,47.757-17.77,65.948-0.027c36.314,35.422,47.093,48.839,50.286,53.684    C238.864,205.402,241.845,215.355,241.217,227.125z" fill="#8dc6e8"/>
	</g>
</g>
<g>
	<g>
		<g>
			<path d="M109.509,173.886c-21.182,21.554-26.711,29.131-27.903,30.944c-5.288,8.044-7.105,13.796-6.708,21.223     c0.687,12.816,11.013,23.342,23.019,23.466c0.035,0.001,0.07,0.001,0.105,0.001c5.475,0,9.941-4.41,9.998-9.897     c0.057-5.523-4.374-10.046-9.896-10.103c-1.058-0.011-3.111-1.889-3.253-4.536c-0.105-1.945-0.195-3.625,3.441-9.156     c0.172-0.258,4.465-6.556,25.462-27.923c3.871-3.94,3.816-10.271-0.123-14.142C119.711,169.892,113.38,169.947,109.509,173.886z" fill="#8dc6e8"/>
			<path d="M214.547,204.847c-1.636-2.481-9.467-12.015-27.399-30.342c-3.863-3.948-10.195-4.016-14.142-0.154     c-3.947,3.863-4.016,10.194-0.154,14.142c18.827,19.243,24.596,26.839,25.072,27.478c3.543,5.403,3.454,7.079,3.35,9.017     c-0.14,2.618-2.225,4.532-3.257,4.532c-5.523,0-10,4.477-10,10c0,5.523,4.477,10,10,10c12.115,0,22.536-10.525,23.229-23.465     C221.639,218.705,219.761,212.76,214.547,204.847z" fill="#8dc6e8"/>
		</g>
	</g>
</g>
<g>
	<g>
		<path d="M103.137,0C79.555,0,60.369,24.214,60.369,53.978c0,29.762,19.186,53.976,42.768,53.976    c23.579,0,42.762-24.214,42.763-53.977C145.9,24.214,126.717,0,103.137,0z M103.137,87.953c-12.342,0-22.768-15.559-22.768-33.976    S90.796,20,103.137,20c12.339,0,22.762,15.56,22.763,33.977C125.9,72.393,115.476,87.953,103.137,87.953z" fill="#8dc6e8"/>
	</g>
</g>
<g>
	<g>
		<path d="M193.011,0c-23.582,0-42.767,24.214-42.768,53.978c0,29.762,19.186,53.976,42.768,53.976    c23.58,0,42.763-24.214,42.763-53.977S216.591,0,193.011,0z M193.011,87.953c-12.342,0-22.768-15.559-22.768-33.976    S180.67,20,193.011,20c12.339,0,22.763,15.56,22.763,33.977C215.774,72.393,205.35,87.953,193.011,87.953z" fill="#8dc6e8"/>
	</g>
</g>
<g>
	<g>
		<path d="M268.461,72.686c-10.026-1.975-20.148,1.055-28.506,8.529c-7.576,6.775-12.965,16.688-15.175,27.913    c-2.209,11.216-0.978,22.427,3.465,31.566c4.902,10.084,13.123,16.724,23.145,18.697c1.998,0.394,3.998,0.588,5.989,0.588    c7.993,0,15.815-3.134,22.509-9.116c7.582-6.775,12.973-16.682,15.181-27.897C299.856,98.652,288.169,76.566,268.461,72.686z     M275.444,119.102c-1.372,6.972-4.527,12.954-8.884,16.847c-2.529,2.259-6.546,4.756-11.307,3.818    c-4.771-0.939-7.539-4.77-9.021-7.818c-2.553-5.251-3.203-11.983-1.83-18.958c1.375-6.984,4.53-12.974,8.884-16.867    c2.151-1.923,5.38-4.018,9.237-4.018c0.673,0,1.366,0.064,2.072,0.202h0.001C273.155,93.993,278.021,106.013,275.444,119.102z" fill="#8dc6e8"/>
	</g>
</g>
<g>
	<g>
		<path d="M71.362,109.129c-2.21-11.225-7.599-21.139-15.175-27.913c-8.358-7.474-18.481-10.502-28.506-8.529h0.001    c-19.707,3.88-31.394,25.966-26.607,50.28c2.208,11.215,7.599,21.122,15.181,27.897c6.695,5.982,14.515,9.116,22.508,9.115    c1.99,0,3.992-0.195,5.988-0.587c10.023-1.973,18.243-8.614,23.145-18.697C72.34,131.556,73.571,120.345,71.362,109.129z     M49.91,131.95c-1.481,3.048-4.249,6.879-9.021,7.818c-4.762,0.939-8.778-1.559-11.307-3.818    c-4.356-3.893-7.512-9.876-8.884-16.847c-2.577-13.089,2.289-25.109,10.848-26.794c0.709-0.14,1.401-0.203,2.074-0.203    c3.857,0,7.086,2.095,9.236,4.019c4.354,3.893,7.509,9.883,8.884,16.867C53.113,119.967,52.463,126.699,49.91,131.95z" fill="#8dc6e8"/>
	</g>
</g>
<g>
	<g>
		<path d="M463.807,405.321c-6.462-9.805-24.301-28.981-53.021-56.995c-12.624-12.314-29.287-19.094-46.926-19.094    c-0.008,0-0.019,0-0.028,0c-17.649,0.008-34.319,6.803-46.937,19.134c-28.574,27.922-46.355,47.088-52.851,56.965    c-6.742,10.257-14.338,24.68-13.231,45.344c0.874,16.327,7.786,31.658,19.464,43.168C282.156,505.552,297.679,512,313.987,512    c18.916,0,34.932-11.297,45.037-20.775c2.656-2.491,6.813-2.458,9.465,0.074C382.669,504.842,398.363,512,413.873,512    c16.307,0,31.829-6.448,43.711-18.157c11.677-11.51,18.59-26.841,19.464-43.17C478.165,429.729,470.026,414.76,463.807,405.321z     M457.074,449.605C455.822,472.982,436.442,492,413.873,492c-12.969,0-24.327-8.247-31.571-15.165    c-5.202-4.967-11.9-7.454-18.598-7.454c-6.601,0-13.201,2.416-18.362,7.257C337.869,483.646,326.364,492,313.987,492    c-22.571,0-41.952-19.018-43.203-42.396c-0.63-11.741,2.353-21.697,9.97-33.286c3.213-4.884,13.995-18.349,50.118-53.649    c18.173-17.758,47.757-17.771,65.947-0.027c36.314,35.422,47.093,48.839,50.286,53.684    C454.721,427.883,457.702,437.836,457.074,449.605z" fill="#8dc6e8"/>
	</g>
</g>
<g>
	<g>
		<g>
			<path d="M430.405,427.331c-1.632-2.478-9.46-12.008-27.401-30.345c-3.864-3.947-10.195-4.017-14.142-0.154     c-3.948,3.862-4.017,10.193-0.154,14.141c18.834,19.249,24.598,26.841,25.071,27.477c3.544,5.403,3.455,7.08,3.351,9.018     c-0.14,2.618-2.225,4.532-3.257,4.532c-5.523,0-10,4.477-10,10s4.477,10,10,10c12.116,0,22.536-10.525,23.229-23.465     C437.494,441.185,435.616,435.24,430.405,427.331z" fill="#8dc6e8"/>
			<path d="M325.366,396.366c-21.169,21.541-26.706,29.126-27.903,30.944c-5.288,8.044-7.105,13.796-6.708,21.223     c0.686,12.816,11.012,23.342,23.018,23.466c0.035,0.001,0.07,0.001,0.105,0.001c5.475,0,9.941-4.41,9.999-9.897     c0.057-5.523-4.374-10.046-9.896-10.103c-1.058-0.011-3.111-1.889-3.253-4.536c-0.105-1.944-0.195-3.625,3.439-9.153     c0.172-0.258,4.465-6.557,25.464-27.926c3.871-3.94,3.816-10.271-0.123-14.142C335.568,392.372,329.237,392.427,325.366,396.366z     " fill="#8dc6e8"/>
		</g>
	</g>
</g>
<g>
	<g>
		<path d="M318.993,222.48c-23.583,0-42.768,24.214-42.768,53.977s19.186,53.977,42.768,53.977c23.58,0,42.763-24.214,42.763-53.977    S342.573,222.48,318.993,222.48z M318.993,310.434c-12.342,0-22.768-15.56-22.768-33.977s10.427-33.977,22.768-33.977    c12.339,0,22.763,15.56,22.763,33.977S331.332,310.434,318.993,310.434z" fill="#8dc6e8"/>
	</g>
</g>
<g>
	<g>
		<path d="M408.868,222.48c-23.582,0-42.768,24.214-42.768,53.977s19.186,53.977,42.768,53.977    c23.579,0,42.763-24.214,42.763-53.977S432.448,222.48,408.868,222.48z M408.868,310.434c-12.342,0-22.768-15.56-22.768-33.977    s10.427-33.977,22.768-33.977c12.338,0,22.763,15.56,22.763,33.977S421.207,310.434,408.868,310.434z" fill="#8dc6e8"/>
	</g>
</g>
<g>
	<g>
		<path d="M484.318,295.166c-10.027-1.974-20.148,1.055-28.506,8.529c-7.576,6.775-12.965,16.688-15.175,27.913    c-2.209,11.216-0.978,22.427,3.465,31.566c4.902,10.084,13.122,16.724,23.145,18.697c1.997,0.394,3.997,0.588,5.989,0.588    c7.992-0.001,15.815-3.134,22.508-9.116c7.581-6.774,12.973-16.681,15.181-27.896    C515.713,321.132,504.025,299.046,484.318,295.166z M491.302,341.583c-1.372,6.97-4.528,12.953-8.884,16.846    c-2.529,2.26-6.544,4.757-11.308,3.818c-4.772-0.939-7.539-4.77-9.021-7.818c-2.553-5.251-3.203-11.983-1.83-18.958    c1.375-6.984,4.53-12.974,8.884-16.867c2.151-1.923,5.38-4.018,9.237-4.018c0.673,0,1.366,0.064,2.074,0.203    C489.012,316.474,493.879,328.494,491.302,341.583z" fill="#8dc6e8"/>
	</g>
</g>
<g>
	<g>
		<path d="M287.22,331.609c-2.21-11.225-7.599-21.139-15.175-27.913c-8.358-7.474-18.484-10.503-28.506-8.529    c-19.707,3.88-31.395,25.967-26.607,50.281c2.208,11.214,7.599,21.121,15.181,27.896c6.693,5.981,14.515,9.115,22.507,9.115    c1.991,0,3.992-0.194,5.989-0.587c10.023-1.973,18.244-8.613,23.146-18.697C288.198,354.036,289.428,342.825,287.22,331.609z     M265.767,354.429c-1.482,3.048-4.25,6.879-9.022,7.818c-4.767,0.938-8.779-1.559-11.307-3.818    c-4.356-3.892-7.511-9.875-8.884-16.846c-2.577-13.089,2.289-25.109,10.848-26.794h0.001c0.709-0.139,1.401-0.203,2.074-0.203    c3.856,0,7.086,2.095,9.236,4.018c4.354,3.893,7.509,9.883,8.884,16.867C268.97,342.446,268.32,349.178,265.767,354.429z" fill="#8dc6e8"/>
	</g>
</g>
<g>
</g>
<g>
</g>
<g>
</g>
<g>
</g>
<g>
</g>
<g>
</g>
<g>
</g>
<g>
</g>
<g>
</g>
<g>
</g>
<g>
</g>
<g>
</g>
<g>
</g>
<g>
</g>
<g>
</g>
</svg>
