<?xml version="1.0" encoding="iso-8859-1"?>
<!-- Generator: Adobe Illustrator 19.0.0, SVG Export Plug-In . SVG Version: 6.00 Build 0)  -->
<svg xmlns="http://www.w3.org/2000/svg" xmlns:xlink="http://www.w3.org/1999/xlink" version="1.1" id="Capa_1" x="0px" y="0px" viewBox="0 0 512 512" style="enable-background:new 0 0 512 512;" xml:space="preserve" width="512px" height="512px">
<g>
	<g>
		<path d="M220.354,124.254H171.02c-4.143,0-7.5,3.358-7.5,7.5c0,4.142,3.357,7.5,7.5,7.5h49.334c4.143,0,7.5-3.358,7.5-7.5    C227.854,127.612,224.497,124.254,220.354,124.254z" fill="#8dc6e8"/>
	</g>
</g>
<g>
	<g>
		<path d="M325.319,124.254h-49.334c-4.143,0-7.5,3.358-7.5,7.5c0,4.142,3.358,7.5,7.5,7.5h49.334c4.143,0,7.5-3.358,7.5-7.5    C332.819,127.612,329.462,124.254,325.319,124.254z" fill="#8dc6e8"/>
	</g>
</g>
<g>
	<g>
		<path d="M220.354,161.588H171.02c-4.143,0-7.5,3.358-7.5,7.5c0,4.142,3.357,7.5,7.5,7.5h49.334c4.143,0,7.5-3.358,7.5-7.5    C227.854,164.946,224.497,161.588,220.354,161.588z" fill="#8dc6e8"/>
	</g>
</g>
<g>
	<g>
		<path d="M325.319,161.588h-49.334c-4.143,0-7.5,3.358-7.5,7.5c0,4.142,3.358,7.5,7.5,7.5h49.334c4.143,0,7.5-3.358,7.5-7.5    C332.819,164.946,329.462,161.588,325.319,161.588z" fill="#8dc6e8"/>
	</g>
</g>
<g>
	<g>
		<path d="M220.354,198.922H171.02c-4.143,0-7.5,3.358-7.5,7.5c0,4.142,3.357,7.5,7.5,7.5h49.334c4.143,0,7.5-3.358,7.5-7.5    C227.854,202.28,224.497,198.922,220.354,198.922z" fill="#8dc6e8"/>
	</g>
</g>
<g>
	<g>
		<path d="M325.319,198.922h-49.334c-4.143,0-7.5,3.358-7.5,7.5c0,4.142,3.358,7.5,7.5,7.5h49.334c4.143,0,7.5-3.358,7.5-7.5    C332.819,202.28,329.462,198.922,325.319,198.922z" fill="#8dc6e8"/>
	</g>
</g>
<g>
	<g>
		<path d="M220.354,236.256H171.02c-4.143,0-7.5,3.358-7.5,7.5c0,4.142,3.357,7.5,7.5,7.5h49.334c4.143,0,7.5-3.358,7.5-7.5    C227.854,239.614,224.497,236.256,220.354,236.256z" fill="#8dc6e8"/>
	</g>
</g>
<g>
	<g>
		<path d="M325.319,236.256h-49.334c-4.143,0-7.5,3.358-7.5,7.5c0,4.142,3.358,7.5,7.5,7.5h49.334c4.143,0,7.5-3.358,7.5-7.5    C332.819,239.614,329.462,236.256,325.319,236.256z" fill="#8dc6e8"/>
	</g>
</g>
<g>
	<g>
		<path d="M220.354,273.59H171.02c-4.143,0-7.5,3.358-7.5,7.5c0,4.142,3.357,7.5,7.5,7.5h49.334c4.143,0,7.5-3.358,7.5-7.5    C227.854,276.948,224.497,273.59,220.354,273.59z" fill="#8dc6e8"/>
	</g>
</g>
<g>
	<g>
		<path d="M325.319,273.59h-49.334c-4.143,0-7.5,3.358-7.5,7.5c0,4.142,3.358,7.5,7.5,7.5h49.334c4.143,0,7.5-3.358,7.5-7.5    C332.819,276.948,329.462,273.59,325.319,273.59z" fill="#8dc6e8"/>
	</g>
</g>
<g>
	<g>
		<path d="M220.354,310.924H171.02c-4.143,0-7.5,3.358-7.5,7.5c0,4.142,3.357,7.5,7.5,7.5h49.334c4.143,0,7.5-3.358,7.5-7.5    C227.854,314.282,224.497,310.924,220.354,310.924z" fill="#8dc6e8"/>
	</g>
</g>
<g>
	<g>
		<path d="M325.319,310.924h-49.334c-4.143,0-7.5,3.358-7.5,7.5c0,4.142,3.358,7.5,7.5,7.5h49.334c4.143,0,7.5-3.358,7.5-7.5    C332.819,314.282,329.462,310.924,325.319,310.924z" fill="#8dc6e8"/>
	</g>
</g>
<g>
	<g>
		<path d="M484.036,77.887h-6.854c-10.24-19.083-30.175-31.165-52.103-31.165c-0.006,0-0.013,0-0.019,0H186.958    c-22.494,0-42.09,12.628-52.082,31.165h-9.928c-15.419,0-27.964,12.544-27.964,27.963s12.545,27.964,27.964,27.964h2.883v76.52    c0,4.142,3.357,7.5,7.5,7.5s7.5-3.358,7.5-7.5V105.85c0-24.332,19.796-44.128,44.128-44.128H385.78    c-12.156,10.837-19.829,26.6-19.829,44.128v260.935c-11.03-12.362-26.968-19.764-44.129-19.764H142.83V243.756    c0-4.142-3.357-7.5-7.5-7.5s-7.5,3.358-7.5,7.5v103.265H83.701c-22.494,0-42.09,12.628-52.082,31.165h-3.655    C12.545,378.187,0,390.731,0,406.15s12.545,27.963,27.964,27.963h3.655c9.993,18.537,29.589,31.165,52.082,31.165h128.966    c4.143,0,7.5-3.358,7.5-7.5c0-4.142-3.357-7.5-7.5-7.5H83.701c-24.332,0-44.128-19.796-44.128-44.128    c0-24.332,19.796-44.128,44.128-44.128h198.823c-12.156,10.837-19.829,26.6-19.829,44.128c0,17.528,7.674,33.291,19.829,44.128    H242c-4.143,0-7.5,3.358-7.5,7.5c0,4.142,3.357,7.5,7.5,7.5h79.822c21.972,0,41.867-12.071,52.103-31.165h6.855    c15.419,0,27.963-12.544,27.963-27.963c0-15.362-12.452-27.866-27.792-27.959V164.979h44.128    c21.973,0,41.867-12.071,52.102-31.165h6.855c15.419,0,27.964-12.544,27.964-27.964C512,90.431,499.455,77.887,484.036,77.887z     M127.83,105.85v12.964h-2.883c-7.148,0-12.964-5.815-12.964-12.964c0-7.148,5.815-12.963,12.964-12.963h4.332    C128.341,97.062,127.83,101.396,127.83,105.85z M25.984,418.946C19.774,417.987,15,412.623,15,406.15    c0-6.473,4.774-11.837,10.984-12.796c-0.914,4.123-1.41,8.402-1.41,12.796S25.071,414.822,25.984,418.946z M321.822,450.278    c-24.332,0-44.128-19.796-44.128-44.128c0-24.332,19.796-44.128,44.128-44.128c13.449,0,25.892,6.092,34.144,16.165h-23.809    c-15.419,0-27.963,12.544-27.963,27.964c0,15.419,12.544,27.963,27.963,27.963h23.819    C347.732,444.192,335.301,450.278,321.822,450.278z M332.158,419.113c-7.147,0-12.963-5.815-12.963-12.963    s5.815-12.964,12.963-12.964l23.33,1.052c-1.71,3.616-2.671,7.654-2.671,11.912c-0.001,4.677,1.159,9.085,3.198,12.963H332.158z     M393.743,406.15c0,7.148-5.815,12.963-12.963,12.963s-12.964-5.815-12.964-12.963s5.815-12.963,12.964-12.963    C387.928,393.187,393.743,399.002,393.743,406.15z M380.951,149.979v-4.829c1.516,1.701,3.128,3.313,4.829,4.829H380.951z     M425.079,149.979c-24.332,0-44.128-19.796-44.128-44.128c0-24.326,19.786-44.117,44.109-44.128h0.019c0.002,0,0.005,0,0.007,0    c13.446,0.002,25.886,6.093,34.137,16.165h-23.809c-15.419,0-27.963,12.544-27.963,27.963s12.544,27.964,27.963,27.964h23.818    C450.988,143.892,438.557,149.979,425.079,149.979z M459.271,118.814h-23.857c-7.147,0-12.963-5.815-12.963-12.964    c0-7.148,5.815-12.963,12.963-12.963h23.857c-2.038,3.878-3.198,8.287-3.198,12.963    C456.073,110.527,457.233,114.936,459.271,118.814z M484.036,118.814c-7.147,0-12.963-5.815-12.963-12.964    c0-7.148,5.815-12.963,12.963-12.963S497,98.702,497,105.85C497,112.999,491.185,118.814,484.036,118.814z" fill="#8dc6e8"/>
	</g>
</g>
<g>
</g>
<g>
</g>
<g>
</g>
<g>
</g>
<g>
</g>
<g>
</g>
<g>
</g>
<g>
</g>
<g>
</g>
<g>
</g>
<g>
</g>
<g>
</g>
<g>
</g>
<g>
</g>
<g>
</g>
</svg>
