<?xml version="1.0"?>
<svg xmlns="http://www.w3.org/2000/svg" height="512px" viewBox="0 -75 511.99908 511" width="512px"><path d="m490.75 60.300781c-2.351562-3.410156-7.023438-4.269531-10.433594-1.917969-3.410156 2.347657-4.269531 7.019532-1.921875 10.429688 11.554688 16.769531 28.394531 47.4375 11.386719 64.441406l-15.957031 15.957032c-12.210938 12.210937-28.441407 19.015624-45.648438 19.160156-18.636719 0-35.777343 11.054687-43.671875 28.167968-18.746094 40.652344-32.539062 74.53125-71.75 113.742188-21.753906 21.753906-50.621094 34.894531-81.28125 36.996094-4.132812.285156-7.253906 3.863281-6.96875 7.996094.269532 3.960937 3.566406 6.988281 7.476563 6.988281.171875 0 .347656-.003907.519531-.015625 34.277344-2.355469 66.546875-17.042969 90.863281-41.359375 41.234375-41.230469 56.320313-78.066407 74.765625-118.066407 5.449219-11.8125 17.242188-19.449218 30.109375-19.449218 21.226563-.179688 41.183594-8.542969 56.195313-23.550782l15.953125-15.957031c18.304687-18.300781 14.878906-47.976562-9.636719-83.5625zm0 0" fill="#8dc6e8"/><path d="m138.425781 334.683594c17.359375 12.667968 36.570313 21.152344 57.097657 25.214844.492187.097656.984374.144531 1.464843.144531 3.511719 0 6.644531-2.476563 7.351563-6.046875.804687-4.0625-1.835938-8.011719-5.902344-8.816406-18.367188-3.632813-35.582031-11.242188-51.167969-22.613282-7.710937-5.628906-8.597656-16.832031-1.839843-23.585937 63.640624-63.640625 70.863281-87.296875 98.871093-159.714844 1.335938-3.453125 5.257813-5.300781 8.8125-3.929687 23.375 9.03125 52.050781 14.988281 75.539063 6.925781 15.320312-5.269531 19.644531-11.4375 45.527344-37.320313 22.90625-22.90625 35.519531-53.359375 35.519531-85.75 0-2.519531 2.457031-4.296875 4.882812-3.492187 17.535157 5.851562 30.765625 14.839843 42.25 26.777343 2.867188 2.988282 7.617188 3.082032 10.605469.210938 2.984375-2.871094 3.078125-7.621094.207031-10.609375-13.105469-13.636719-28.46875-23.988281-48.316406-30.609375-11.214844-3.738281-23.117187 3.734375-24.503906 15.5625-2.84375 5.070312-13.734375 23.695312-30.832031 43.800781-40.757813 4.835938-94.925782 2.789063-128.519532-32.171875-5.296875-10.023437-17.585937-14.390625-28.125-9.730468-78.035156 34.515624-96.515625 41.738281-176.777344 41.738281-18.757812 0-33.09375 16.765625-30.199218 35.300781 10.957031 70.121094 70.058594 121.015625 140.527344 121.015625 18.804687 0 37.601562-1.792969 56.070312-5.320313-12.988281 23.222657-30.195312 44.75-62.148438 76.707032-13.261718 13.261718-11.546874 35.253906 3.605469 46.3125zm154.855469-204.246094c24.421875-7.792969 46.027344-23.128906 64.324219-40.785156 11.464843-11.0625 22.015625-23.398438 31.519531-36.351563-5.386719 15.898438-14.222656 29.703125-25.554688 41.03125-27.214843 27.214844-34.09375 40.457031-70.289062 36.105469zm55.46875-53.167969c-2.519531 2.476563-5.125 4.929688-7.8125 7.332031-7.140625.8125-12.160156.613282-45.222656.613282-17.035156 0-30.851563-10.757813-41.386719-24.128906 29.402344 15.199218 64.058594 18.027343 94.421875 16.183593zm-207.851562 124.710938c-63.03125 0-115.894532-45.558594-125.703126-108.328125-1.472656-9.433594 5.816407-17.984375 15.375-17.984375 80.71875 0 100.199219-6.449219 182.847657-43.019531 3.449219-1.523438 7.492187.023437 9.007812 3.453124 14.113281 31.878907 38.410157 64.113282 73.285157 64.113282 4.03125 0 3.992187 0 25.15625.023437-19.347657 12.914063-40.789063 21.054688-63.742188 20.617188-11.035156-3.421875-22.722656 2.410156-26.816406 13-9.613282 24.863281-16.703125 43.800781-24.566406 60.609375-21.234376 4.988281-43.03125 7.515625-64.84375 7.515625zm0 0" fill="#8dc6e8"/></svg>
