<?xml version="1.0" encoding="iso-8859-1"?>
<!-- Generator: Adobe Illustrator 19.0.0, SVG Export Plug-In . SVG Version: 6.00 Build 0)  -->
<svg xmlns="http://www.w3.org/2000/svg" xmlns:xlink="http://www.w3.org/1999/xlink" version="1.1" id="Capa_1" x="0px" y="0px" viewBox="0 0 512.002 512.002" style="enable-background:new 0 0 512.002 512.002;" xml:space="preserve" width="512px" height="512px">
<g>
	<g>
		<g>
			<path d="M441.032,357.516c-5.919,0-10.746,4.828-10.746,10.746c-0.001,5.92,4.827,10.748,10.746,10.748     s10.747-4.828,10.747-10.748C451.779,362.344,446.951,357.516,441.032,357.516z" fill="#8dc6e8"/>
			<path d="M152.992,357.516c-5.919,0-10.746,4.828-10.746,10.746c0,5.92,4.827,10.748,10.746,10.748s10.746-4.828,10.746-10.748     C163.738,362.344,158.911,357.516,152.992,357.516z" fill="#8dc6e8"/>
		</g>
	</g>
</g>
<g>
	<g>
		<path d="M509.337,227.25c-1.893-2.042-4.551-3.203-7.335-3.203H334.589l14.422-188.903c0.212-2.775-0.744-5.515-2.636-7.558    c-1.893-2.042-4.551-3.203-7.335-3.203H172.962c-2.785,0-5.443,1.161-7.335,3.203c-1.893,2.043-2.848,4.782-2.636,7.559    l14.422,188.902H10c-2.785,0-5.443,1.161-7.335,3.203c-1.893,2.043-2.848,4.782-2.636,7.559l18.596,243.57    c0.003,0.044,0.012,0.086,0.016,0.13c0.015,0.163,0.038,0.322,0.061,0.483c0.023,0.165,0.044,0.33,0.075,0.493    c0.03,0.158,0.068,0.314,0.105,0.468c0.039,0.163,0.078,0.325,0.125,0.484c0.042,0.145,0.092,0.287,0.141,0.43    c0.057,0.164,0.114,0.328,0.179,0.488c0.053,0.131,0.11,0.259,0.168,0.387c0.075,0.165,0.151,0.327,0.234,0.486    c0.062,0.119,0.128,0.236,0.194,0.352c0.092,0.16,0.187,0.317,0.287,0.471c0.071,0.11,0.145,0.218,0.22,0.325    c0.107,0.15,0.216,0.297,0.33,0.44c0.081,0.104,0.165,0.205,0.25,0.305c0.118,0.137,0.239,0.271,0.364,0.4    c0.093,0.098,0.188,0.194,0.285,0.288c0.126,0.122,0.257,0.239,0.39,0.354c0.105,0.092,0.211,0.183,0.321,0.27    c0.134,0.107,0.271,0.207,0.411,0.308c0.117,0.083,0.233,0.167,0.354,0.246c0.142,0.093,0.288,0.179,0.435,0.265    c0.125,0.072,0.249,0.147,0.377,0.214c0.154,0.081,0.312,0.153,0.47,0.227c0.127,0.059,0.253,0.12,0.384,0.174    c0.173,0.071,0.351,0.132,0.529,0.193c0.121,0.042,0.24,0.089,0.364,0.126c0.208,0.063,0.421,0.113,0.634,0.163    c0.099,0.022,0.194,0.052,0.294,0.071c0.278,0.056,0.56,0.097,0.845,0.129c0.04,0.004,0.079,0.014,0.119,0.017    c0.33,0.033,0.665,0.052,1.003,0.052c0.008,0,0.017-0.001,0.025-0.001h41.423c5.523,0,10-4.478,10-10c0-5.522-4.477-10-10-10    H37.862L25.719,308.574h171.668l-12.142,159.043H151.31c-5.523,0-10,4.478-10,10c0,5.522,4.477,10,10,10h41.438    c0.298,0,0.591-0.02,0.882-0.045c0.04,0.004,0.079,0.013,0.12,0.016c5.51,0.431,10.312-3.702,10.732-9.21l17.928-234.831h67.181    l17.929,234.832c0.398,5.212,4.744,9.238,9.971,9.238h165.915c5.228,0,9.573-4.026,9.971-9.238l18.596-243.57    C512.184,232.032,511.229,229.293,509.337,227.25z M198.915,288.574H24.192l-3.399-44.527h181.521L198.915,288.574z     M197.434,223.547l-8.752-114.637h22.715c5.523,0,10-4.478,10-10c0-5.522-4.477-10-10-10h-24.242l-3.4-44.527h144.492    l-3.399,44.527h-32.173c-5.523,0-10,4.478-10,10c0,5.522,4.477,10,10,10h30.646l-8.752,114.637H197.434z M474.14,467.617H326.756    l-12.143-159.043h171.669L474.14,467.617z M487.809,288.574H313.087l-3.399-44.527H491.21L487.809,288.574z" fill="#8dc6e8"/>
	</g>
</g>
<g>
	<g>
		<path d="M263.59,88.91h-0.475c-5.523,0-10,4.478-10,10c0,5.523,4.478,10,10,10h0.475c5.523,0,10-4.478,10-10    C273.59,93.388,269.113,88.91,263.59,88.91z" fill="#8dc6e8"/>
	</g>
</g>
<g>
	<g>
		<path d="M99.593,467.617h-0.476c-5.523,0-10,4.478-10,10c0,5.522,4.477,10,10,10h0.476c5.523,0,10-4.478,10-10    C109.593,472.095,105.116,467.617,99.593,467.617z" fill="#8dc6e8"/>
	</g>
</g>
<g>
</g>
<g>
</g>
<g>
</g>
<g>
</g>
<g>
</g>
<g>
</g>
<g>
</g>
<g>
</g>
<g>
</g>
<g>
</g>
<g>
</g>
<g>
</g>
<g>
</g>
<g>
</g>
<g>
</g>
</svg>
