<?xml version="1.0" encoding="iso-8859-1"?>
<!-- Generator: Adobe Illustrator 19.0.0, SVG Export Plug-In . SVG Version: 6.00 Build 0)  -->
<svg xmlns="http://www.w3.org/2000/svg" xmlns:xlink="http://www.w3.org/1999/xlink" version="1.1" id="Capa_1" x="0px" y="0px" viewBox="0 0 512 512" style="enable-background:new 0 0 512 512;" xml:space="preserve" width="512px" height="512px">
<g>
	<g>
		<path d="M0,56.1V455.9h512V56.1H0z M327.673,71.217h39.724l-39.724,44.689V71.217z M295.616,71.217h16.94v84.45l75.066-84.45    h26.443l-118.45,118.451V71.217z M176.313,71.217v44.689l-39.724-44.689H176.313z M15.117,162.34l22.171,21.988H15.117V162.34z     M15.117,327.673h22.171l-22.171,21.985V327.673z M15.117,370.951L74,312.555H15.117v-16.94h94.407l-94.407,94.408V370.951z     M176.313,440.783h-39.937l39.937-44.93V440.783z M191.43,440.783v-84.691l-75.28,84.691H89.921l118.451-118.451v118.451H191.43z     M327.673,440.783v-44.93l39.937,44.93H327.673z M387.836,440.784v-0.001l-75.281-84.691v84.691h-16.94V322.334l118.45,118.451    H387.836z M496.883,357.966l-30.294-30.293h30.294V357.966z M496.883,280.499h-56.556l0.005,15.117h56.551v16.94h-66.789    l66.789,66.789v18.692L394.462,295.616h21.824v-15.117h-58.32l138.917,138.917v21.369h-61.439L280.499,285.838v154.946h-57.011    V285.838L68.542,440.783H15.117v-29.383L146.02,280.498H15.117V231.5H47.63v-15.117H15.117v-16.938H74l-58.883-58.393v-19.075    l94.407,94.407H71.675v15.117h74.345L15.117,100.599V71.217h53.425l154.946,154.945V111.74h-15.117v77.927L89.921,71.217h26.443    l75.066,84.45v-84.45h16.941v16.486h15.117V71.217h57.011v154.945L435.444,71.217h61.439v21.367h0L357.966,231.501h138.917    V280.499z M496.884,216.385H394.462l102.421-102.422v18.693l-66.788,66.789h66.789V216.385z M496.883,154.035v30.293h-30.294    L496.883,154.035z" fill="#8dc6e8"/>
	</g>
</g>
<g>
</g>
<g>
</g>
<g>
</g>
<g>
</g>
<g>
</g>
<g>
</g>
<g>
</g>
<g>
</g>
<g>
</g>
<g>
</g>
<g>
</g>
<g>
</g>
<g>
</g>
<g>
</g>
<g>
</g>
</svg>
