<?xml version="1.0" encoding="iso-8859-1"?>
<!-- Generator: Adobe Illustrator 17.1.0, SVG Export Plug-In . SVG Version: 6.00 Build 0)  -->
<!DOCTYPE svg PUBLIC "-//W3C//DTD SVG 1.1//EN" "http://www.w3.org/Graphics/SVG/1.1/DTD/svg11.dtd">
<svg xmlns="http://www.w3.org/2000/svg" xmlns:xlink="http://www.w3.org/1999/xlink" version="1.1" id="Capa_1" x="0px" y="0px" viewBox="0 0 401.726 401.726" style="enable-background:new 0 0 401.726 401.726;" xml:space="preserve" width="512px" height="512px">
<path d="M58.272,77.343c5.221-19.633,15.953-37.236,31.036-50.907c15.104-13.689,33.498-22.467,53.191-25.385  c24.103-3.566,45.448,2.037,58.571,15.381c8.086,8.224,16.861,23.252,12.744,48.151c-4.588,27.755-31.735,42.067-57.988,55.909  c-4.84,2.552-9.846,5.19-14.575,7.85c-11.212,6.304-12.703,9.425-12.893,10.231c-0.129,0.548-0.061,2.365,3.352,7.39  c5.946,8.753,27.283,37.317,52.192,37.359c6.659-0.011,13.896-2.495,23.438-8.056c24.403-14.223,39.563-41.438,39.563-71.023  c0-12.852-2.01-24.562-5.975-34.805c-1.794-4.636,0.509-9.848,5.145-11.643c4.635-1.793,9.847,0.509,11.642,5.145  c4.77,12.324,7.188,26.22,7.188,41.303c0,35.966-18.584,69.14-48.5,86.574c-12.438,7.249-22.461,10.489-32.502,10.505  c-32.845-0.055-57.853-31.66-67.082-45.245c-3.829-5.637-7.968-13.188-5.983-21.625c2.301-9.785,11.738-16.26,21.592-21.801  c4.941-2.777,10.055-5.474,15.001-8.082c23.396-12.335,45.494-23.985,48.624-42.922c2.314-13.998-0.316-24.965-7.819-32.595  c-9.044-9.199-24.751-12.919-43.099-10.195c-32.805,4.859-60.723,30.222-69.469,63.111c-10.996,41.348,8.831,85.635,54.397,121.506  c3.906,3.074,4.579,8.732,1.505,12.639c-1.776,2.255-4.414,3.433-7.078,3.433c-1.949,0.001-3.911-0.629-5.561-1.929  C67.451,177.092,45.342,125.964,58.272,77.343z M345.958,350.301c1.531,2.788,1.476,6.178-0.144,8.915  c-1.62,2.737-4.564,4.416-7.745,4.416h-88.427v20.094h5.817c4.971,0,9,4.029,9,9s-4.029,9-9,9h-29.632c-4.971,0-9-4.029-9-9  s4.029-9,9-9h5.815V354.76c0-0.043-0.001-0.085-0.001-0.128v-52.067c0-4.971,4.029-9,9-9c0.001,0,0.001,0,0.001,0h97.427  c3.181,0,6.125,1.679,7.746,4.416c1.62,2.737,1.674,6.127,0.144,8.915l-11.915,21.702L345.958,350.301z M322.861,345.632  l-6.974-12.703c-1.481-2.697-1.481-5.965,0-8.662l6.973-12.702h-73.219v34.067H322.861z M228.976,22.299  c32.858,4.996,56.433,25.586,66.383,57.978c12.536,40.81,0.168,91.789-28.77,118.583c-3.647,3.377-3.866,9.071-0.489,12.718  c1.774,1.916,4.187,2.886,6.606,2.886c2.188,0,4.381-0.793,6.113-2.396c34.22-31.684,48.412-89.333,33.747-137.076  c-5.657-18.416-15.07-33.825-27.979-45.799c-14.24-13.209-32.04-21.516-52.905-24.688c-4.911-0.749-9.503,2.63-10.25,7.545  C220.684,16.963,224.062,21.552,228.976,22.299z M264.449,267.518c1.681-4.678-0.749-9.832-5.426-11.513  c-21.659-7.782-35.725-17.584-40.684-28.35c-0.066-0.148-0.136-0.294-0.21-0.438c-0.59-1.152-1.398-2.127-2.352-2.896  c-0.921-0.745-2.003-1.318-3.208-1.657c-1.042-0.296-2.141-0.405-3.24-0.308c-0.003,0-0.009,0.003-0.01,0.001  c-1.153,0.103-2.262,0.428-3.271,0.94c-1.179,0.597-2.172,1.422-2.952,2.396c-0.738,0.919-1.305,1.998-1.641,3.196  c-0.048,0.171-0.091,0.343-0.129,0.517l-24.264,105.85c-1.11,4.845,1.917,9.673,6.762,10.783c0.677,0.155,1.353,0.229,2.019,0.229  c4.102,0,7.809-2.823,8.765-6.991l20.05-87.466c9.081,8.169,21.876,15.239,38.279,21.133  C257.615,274.626,262.768,272.196,264.449,267.518z M186.506,369.62h-25.207l-68.624-85.954c20.02-5.233,50.853-15.634,68.976-33.22  l4.771,14.117c1.592,4.71,6.698,7.232,11.408,5.645c4.709-1.592,7.236-6.699,5.645-11.408l-10.261-30.358  c-0.411-1.216-1.057-2.286-1.869-3.178c-0.766-0.843-1.706-1.553-2.796-2.07c-0.002-0.001-0.005-0.002-0.007-0.004  c-0.004-0.001-0.007-0.003-0.011-0.005c-0.141-0.066-0.284-0.129-0.428-0.188c-0.004-0.003-0.008-0.003-0.012-0.005  c-0.967-0.396-1.966-0.61-2.958-0.659c-1.098-0.062-2.222,0.092-3.326,0.465c-1.238,0.419-2.326,1.08-3.227,1.914  c-0.831,0.767-1.53,1.704-2.039,2.789c0,0.001-0.001,0.003-0.001,0.003c-0.002,0.005-0.004,0.009-0.006,0.013  c-0.012,0.027-0.024,0.053-0.037,0.08c-9.314,20.365-49.587,35.174-81.343,41.692c-0.84,0.15-1.666,0.423-2.45,0.818  c-0.896,0.451-1.697,1.042-2.38,1.741c-0.852,0.867-1.498,1.876-1.929,2.957c-0.568,1.417-0.782,2.991-0.556,4.594  c0.085,0.609,0.233,1.215,0.446,1.803c0.368,1.023,0.91,1.949,1.584,2.748l80.067,100.288c1.777,2.227,4.396,3.385,7.039,3.385  c0.066,0,0.133,0,0.2-0.002h29.331c4.971,0,9-4.029,9-9S191.477,369.62,186.506,369.62z" fill="#8dc6e8"/>
<g>
</g>
<g>
</g>
<g>
</g>
<g>
</g>
<g>
</g>
<g>
</g>
<g>
</g>
<g>
</g>
<g>
</g>
<g>
</g>
<g>
</g>
<g>
</g>
<g>
</g>
<g>
</g>
<g>
</g>
</svg>
